<svg id="Layer_2" data-name="Layer 2" xmlns="http://www.w3.org/2000/svg" width="2000.3442" height="2000.059" viewBox="0 0 2000.3442 2000.059"><defs><style>.cls-1{fill:none;stroke:lime;stroke-miterlimit:10;}</style></defs><path class="cls-1" d="M1892,.059a30.0679,30.0679,0,0,1-4,12c-3.6328,6.038-7.4186,7.1-12,12-2.902,3.1037-4.1112,5.5953-10,21-6.9843,18.27-6.4536,17.8272-9,24a223.372,223.372,0,0,1-14,28c-7.886,13.5544-9.32,12.9877-16,25-6.2386,11.2182-10.3977,18.6969-12,29-1.2684,8.1557.5261,8.6877,2,27,2.1167,26.3-1.3929,27.5832,2,44,1.7247,8.345,3.4443,11.9462,4,21,.5442,8.8663-.7252,11.6-1,21-.3267,11.1761,1.1161,19.34,3,30a182.783,182.783,0,0,0,8,31c3.4563,9.6945,8.402,23.2406,19,37a79.354,79.354,0,0,0,15,15c4.1724,3.1631,7.2509,5.455,12,7,7.3383,2.3874,9.2487-.0719,16,2,8.7146,2.6745,8.1228,7.5674,15,9,5.29,1.102,6.6791-1.5764,21-6,9.9338-3.0684,10.02-2.0128,19-5a137.4954,137.4954,0,0,0,19-8,134.1116,134.1116,0,0,0,20-12,128.0476,128.0476,0,0,0,11-9"/><path class="cls-1" d="M2000,728.059c-15.0392-7.7336-21.05-10.9013-21-11,.0541-.107,7.2408,3.3915,7,4-.2992.756-10.7979-6.1375-20-3-6.712,2.2886-7.7057,8.1994-15,17-6.8464,8.26-10.2291,8.1905-21,17-12.9625,10.6022-20.9231,21.2216-35,40-7.8376,10.4554-9.1969,13.3989-16,21-4.9791,5.5632-7.7579,7.9047-17,18-10.2634,11.211-11.8259,13.7734-13,17-1.9243,5.2883-.4774,5.9631-2,19-1.4781,12.6561-2.9022,12.5378-3,20-.0684,5.2127.9545,10.4751,3,21,2.6353,13.5594,3.558,13.6016,4,20,.73,10.569-1.7316,11.2638,0,18,1.5891,6.1821,4.9113,10.4549,10,17a96.4465,96.4465,0,0,0,10,11"/><path class="cls-1" d="M1893,989.059c3.31,3.852,8.632,8.7275,16,10,7.7455,1.3378,10.516-2.5557,20-2,7.6136.4462,7.2538,3.0389,21,7a86.6638,86.6638,0,0,0,23,4,100.8613,100.8613,0,0,0,16-1c4.4489-.59,8.1915-1.348,11-2"/><path class="cls-1" d="M2000,1162.059a42.7272,42.7272,0,0,0-9,12c-2.5212,5.0632-3.6967,10.11-6,20a50.0462,50.0462,0,0,1-3,10c-1.6008,3.649-3.0214,6.8869-6,9-3.8,2.6959-7.36,1.5921-13,2-4.7985.3471-9.199,2.2314-18,6a141.3378,141.3378,0,0,0-38,23c-6.55,5.59-12.8027,10.9261-19,20-8.15,11.9337-11.241,23.0639-14,33a157.7439,157.7439,0,0,0-5,28c-.974,10.0074-.1638,10.402-1,24-1.0327,16.7954-2.3593,17.6687-3,31-.5414,11.2656-.9595,19.9649,1,31,2.551,14.3662,5.6493,13.0805,9,30,2.517,12.71,1.3033,16.1349,5,26,3.4683,9.2556,5.5359,8.9075,8,17,1.9509,6.4073,1.9673,12.9382,2,26,.0292,11.6443.0437,17.4664-1,23-2.2865,12.1231-5.9651,15.2547-4,22,1.601,5.4953,4.7312,5.7813,9,13,3.7178,6.287,4.86,12.0173,6,19,2.998,18.3687,3.2528,28.7175,5,43,1.488,12.1646,3.1057,25.3882,8,42,2.64,8.9614,4.531,13.1284,7,24a145.6206,145.6206,0,0,1,4,26c.8107,15.995-2.55,16.5968-2,30,.5214,12.7177,3.9554,22.1477,9,36,7.0814,19.4456,9.6781,17.24,12,29,2.4589,12.4537.6262,20.3951,7,26,4.2657,3.7512,6.6724,1.5887,12,6,7.676,6.3558,5.8815,13.4958,12,16,3.6484,1.4933,7.3978.228,14-2a48.88,48.88,0,0,0,12-6"/></svg>