<svg id="Layer_2" data-name="Layer 2" xmlns="http://www.w3.org/2000/svg" width="1584" height="2000.4391" viewBox="0 0 1584 2000.4391"><defs><style>.cls-1{fill:none;stroke:lime;stroke-miterlimit:10;}</style></defs><path class="cls-1" d="M256,.2956a71.5432,71.5432,0,0,1-16,16c-6.8875,4.9475-13.8627,8.0006-23,12-6.0882,2.6648-7.62,2.9779-14,6-6.2268,2.95-7.36,3.8794-14,7-7.5678,3.5568-11.3517,5.3351-15,6-7.3224,1.3345-8.0575-1.0256-16,0-9.0482,1.1685-9.24,4.38-17,5-7.141.571-7.73-2.088-18-3-5.2824-.4691-9.8549.0207-19,1-8.4736.9075-9.3865,1.43-21,3-18.4008,2.4875-21.4228,1.8937-24,1-5.5491-1.924-11.8433-6.212-13-7-5.2784-3.5959-6.1507-5.2446-9-6-3.4509-.9149-8.7991-.2536-17,7"/><path class="cls-1" d="M17,181.2956c-.6219,5.1424-.6976,12.6519,3,20,2.9539,5.87,6.0062,7.0475,11,14,4.064,5.6581,6.0427,10.7721,10,21,5.9145,15.2864,4.8414,18.0616,10,27a50.0607,50.0607,0,0,0,11,14,46.6481,46.6481,0,0,0,20,10"/><path class="cls-1" d="M415,254.2956c-1.74,3.7832,9.6479,12.5618,18,19a216.6162,216.6162,0,0,0,26,17c12.2558,6.9015,10.1053,4.3632,24,12,10.766,5.9173,13.5785,8.2774,19,8,2.2385-.1145,3.3721-.5993,17-8,13.558-7.3626,16.2787-8.97,18-10,6.731-4.0293,10.0965-6.0439,14-9a78.42,78.42,0,0,0,14-13c4.265-5.1465,7.4064-8.9371,9-15,.91-3.4633,2.728-10.3786-1-16-2.9451-4.4408-7.8636-5.8309-12-7-5.8318-1.6483-9.909-1.2712-17-1-14.3758.55-26.9964.1236-27,0-.0031-.1035,8.8253-.9565,9,0,.2076,1.1366-11.6917,5.4522-25,7-10.0121,1.1646-11.9533-.2689-19,2-7.4694,2.4051-7.4958,4.7262-15,7-5.9227,1.7946-6.4955.5273-19,2-10.3136,1.2148-9.7526,2.0568-19,3C418.7639,253.34,415.8079,252.5394,415,254.2956Z"/><path class="cls-1" d="M100,292.2956a56.7522,56.7522,0,0,1,13,14c4.6792,7.2008,4.146,10.1111,9,18a65.582,65.582,0,0,0,15,17c6.454,5.0157,7.8365,3.8086,21,11,6.3057,3.4449,11.2038,6.63,21,13,16.0559,10.4405,16.1482,11.5256,21,13,2.3215.7055,17.1141,5.2008,28-3,1.6907-1.2737,6.5456-4.931,8-11,1.4436-6.0238-1.8952-8.4463,0-13,2.2114-5.3134,7.6022-4.0453,13-10,5.6732-6.2585,2.6677-10.9132,7-15,6.6766-6.2983,22.01-2.9746,32,3,6.4865,3.8794,4.99,5.45,22,22,9.4072,9.1531,12.5529,11.2882,16,13,7.2882,3.6194,13.8352,4.31,21,5,16.1611,1.5571,17.8591-2.1085,26,0,8.9455,2.3169,14.297,9.2113,25,23,10.4284,13.4351,16.2489,20.9336,18,33,.5546,3.8216,2.52,17.365-5,29-3.1551,4.8817-5.0756,4.9337-21,17-18.2288,13.8126-15.8317,13.8349-22,17-8.8951,4.5643-20.6277,7.98-31,11-7.4629,2.1728-10.5535,2.7751-13,6-1.1289,1.4881-3.7808,5.7231-1,22,2.3843,13.9558,4.68,12.8682,5,20,.1511,3.3654-.244,6.1931-10,32-4.3146,11.4131-5.311,13.7-5,18,.4232,5.8506,2.657,6.9947,8,19,6.3081,14.174,4.6882,15.9357,9,21,4.9116,5.7688,10.8312,7.9668,19,11,6.7221,2.4961,16.6294,6.1748,27,5,11.8391-1.341,15.2153-7.98,30-18,11.26-7.6308,8.8065-3.4446,59-25,12.3354-5.2973,19.1052-8.3938,30-10,9.6009-1.4154,16.7243-.8359,27,0,16.3314,1.3286,28.94,2.3542,43,9,6.7016,3.1677,9.116,5.43,16,7,10.4025,2.3729,14.1548-.679,23,0,9.2741.7121,17.1827,6.4747,33,18,16.8126,12.2506,20.5706,19.0819,22,22,1.79,3.6539,4.4347,9.0534,4,16-.6692,10.6949-8.18,17.7336-17,26-9.0734,8.5036-17.7818,16.665-31,19-13.5287,2.39-16.9842-3.9376-29,0-12.5128,4.1005-20.2722,14.7331-21,14-.2339-.2356.3669-1.5357,5-7"/><path class="cls-1" d="M706,510.2956c-5.5544-1.3064-11.37-.2043-23,2-13.1692,2.496-19.8187,3.8291-23,8-5.2844,6.9283-2.8118,16.7692-2,20,2.4737,9.8451,8.9669,15.7612,16,22a91.9232,91.9232,0,0,0,26,16,121.4736,121.4736,0,0,0,37,9c10.32.8963,20.9,1.8152,34-2,8.465-2.4653,19.3621-5.6389,27-16,2.5-3.3913,8.2267-12.4035,7-24-.2949-2.788-1.42-13.4286-9-18-4.3978-2.6524-6.2751-.4309-15-2-8.6682-1.5588-9.163-4.1737-23-9-8.2856-2.89-12.4285-4.3349-17-4-8.48.6213-9.6287,5.0014-17,5C716.293,517.2942,715.3965,512.5058,706,510.2956Z"/><path class="cls-1" d="M405,184.2956c-1.8168,7.1245-2.6907,10.7531-1,14,1.161,2.23,3.6,4.4523,15,7,8.8351,1.9745,14.904,3.3307,24,3,12.931-.47,22.0328-3.9881,35-9,11.694-4.52,17.541-6.78,24-12,3.894-3.1472,8.2627-8.7647,17-20,8.802-11.3183,9.918-13.9132,9-16-1.6845-3.8292-9.3232-3.9144-17-4-13.2266-.1474-15.2044,2.7731-27,3-5.5464.1067-12.0309-.9288-25-3-13.3387-2.13-14.8107-3.0894-21-3-8.0327.1161-16.86.2437-22,6-3.6666,4.106-1.0552,6.146-6,20C407.8561,176.3023,406.5631,178.1662,405,184.2956Z"/><path class="cls-1" d="M565,731.2956c-16.9434,1.5451-29.9423,10.8188-32,22-1.7709,9.6228,4.8686,18.9923,7,22,5.5643,7.8521,9.4409,7.3048,17,15,6.62,6.7389,9.7464,13.8259,16,28,6.0714,13.7611,9.427,20.6728,10,29,.4,5.8086.9684,14.0736-3,23-3.0242,6.8026-6.1385,8.2648-6,13,.22,7.5215,8.3428,12.91,13,16,4.623,3.067,14.5239,9.6354,25,7,5.987-1.5061,6.2693-4.5359,18-14,6.9635-5.618,12.3642-8.9877,22-15,12.1766-7.5976,18.265-11.3964,25-14,6.4436-2.4909,23.59-9.1192,41-4,18.4808,5.4341,16.4868,17.997,42,29,6.0591,2.6131,11.1513,4.0521,19,9,8.56,5.3965,14.1117,11.003,19,16,7.79,7.9635,14.3708,14.69,20,25,5.894,10.7947,7.5961,20.53,11,40,1.7865,10.2187,2.7194,19.3877,2,30-.62,9.1467-.9914,13.8056-4,18-5.5736,7.7705-12.75,4.833-29,12-2.9666,1.3084-11.6443,7.5389-29,20-7.1846,5.1584-10.9239,7.9648-12,13-1.4805,6.9274,3.0936,13.3311,5,16,1.3924,1.9494,5.3028,6.9441,18,13,14.2811,6.8115,16.2707,3.8012,24,9,1.7366,1.1681,13.8293,9.5466,16,23,1.3777,8.5389-2.5144,11.2332,0,18,2.81,7.562,10.2745,11.2054,16,14,9.33,4.5542,18.0139,5.4314,35,7,15.0929,1.3938,16.8465.4944,21,3,9.9484,6.0013,12.54,18.7929,14,26,.7273,3.59,2.6906,14.8511-1,31-5.5525,24.2962-16.076,25.4085-18,46-.9919,10.616,1.3364,15.3369-3,22-4.4435,6.8277-9.5038,5.89-18,15-3.6887,3.9554-2.0855,3.4359-11,16-6.9011,9.7265-8.3521,10.7286-13,18a155.924,155.924,0,0,0-8,14c-3.5891,7.2-4.1934,9.9942-9,22-4.2576,10.6344-4.4492,10.1193-8,19-1.543,3.8592-5.6533,14.1891-9,25-4.3774,14.14-3.91,17.6744-8,35-2.9622,12.5494-3.1176,10.316-10,35-6.7421,24.1807-10.113,36.2711-12,44-3.5761,14.6479-4.3773,19.7736-9,27-3.48,5.44-6.6022,8.126-9,15a38.5048,38.5048,0,0,0-2,18c1.5488,11.173,7.33,12.6057,8.361,24.15.6217,6.9636-1.4443,6.8631-.361,11.85,2.0914,9.6275,11.014,15.6287,19,21,9.3912,6.3164,12.0759,5.4784,17,11,1.0959,1.2289,2.5942,3.1,8,15,7.04,15.4983,7.3785,18.6642,12,25,3.5213,4.8275,6.5,8.8019,12,11,7.35,2.9374,14.451.8042,17,0,12.22-3.8552,11.4471-12.218,24-17,7.0436-2.6832,8.4229-.4829,18-4a52.32,52.32,0,0,0,15-8c13.0824-10.5252,15.8057-27.3958,17-27,.866.2871-1.1409,8.9679-1,9,.2053.0468.7567-19.2368,12-34,2.1728-2.853,12.7183-16.0067,29-18,5.3811-.6588,14.2541,1.8942,32,7,12.4016,3.5682,12.2939,4.0589,23,7,18.808,5.167,19.6611,3.7958,26,7,6.3172,3.1933,6.222,4.9352,22,20,16.4911,15.7458,19.2462,16.3741,22,23,1.0518,2.5308,5.7282,14.6581,0,27-5.456,11.7555-16.853,16.1686-19,17-10.88,4.2131-14.9375-.5643-22,4-8.5362,5.5168-4.3582,13.6265-13,23-10.3354,11.2106-23.7331,7.6609-26,16-1.8435,6.7816,5.3847,15.1336,7,17,4.3852,5.067,6.82,4.3136,11,10a40.2787,40.2787,0,0,1,6,13,51.6155,51.6155,0,0,1,2,11"/><path class="cls-1" d="M795,2000.2956a107.5852,107.5852,0,0,1,13-28,105.78,105.78,0,0,1,18-21,102.0051,102.0051,0,0,1,22-15c3.2889-1.6476,10.94-5.25,27-9a248.7924,248.7924,0,0,1,43-6c27.66-1.586,29.6718,2.0681,44-2a95.9536,95.9536,0,0,0,30-15,99.6775,99.6775,0,0,0,20-19c7.2839-9.36,10.96-17.848,14-25a138.0648,138.0648,0,0,0,7-21"/></svg>