<?xml version="1.0" encoding="iso-8859-1"?>
<!-- Generator: Adobe Illustrator 24.2.3, SVG Export Plug-In . SVG Version: 6.00 Build 0)  -->
<svg version="1.1" xmlns="http://www.w3.org/2000/svg" xmlns:xlink="http://www.w3.org/1999/xlink" x="0px" y="0px"
	 viewBox="0 0 2000 2000" style="enable-background:new 0 0 2000 2000;" xml:space="preserve">
<g id="Layer_1" style="display:none;">
	<image style="display:inline;overflow:visible;" width="2000" height="2000" xlink:href="P9_1_1_Copy.jpeg" >
	</image>
</g>
<g id="Layer_2">
	<path style="fill:none;stroke:#00FF00;stroke-miterlimit:10;" d="M1040.873,515.927c5.249-1.979,14.01-4.505,24.873-3.927
		c16.657,0.885,28.276,8.538,34.036,12.436c2.31,1.564,0.524,0.543,24.218,24.873c6.215,6.382,9.179,9.369,9.818,14.4
		c0.948,7.462-4.354,10.489-3.273,18.327c0.949,6.879,5.991,11.495,9.164,14.4c3.567,3.266,5.315,3.507,21.6,11.127
		c11.103,5.196,10.983,5.408,13.091,5.891c9.392,2.153,15.808-1.133,24.873-3.273c2.179-0.514,18.676-4.262,34.036-0.655
		c13.677,3.212,12.458,8.968,36.655,21.6c15.841,8.27,19.492,7.437,24.218,13.745c7.912,10.563,6.249,24.344,5.236,32.727
		c-1.172,9.702-2.638,21.851-10.473,25.527c-8.216,3.856-13.983-6.041-26.836-3.273c-13.032,2.807-19.28,15.603-19.636,16.364
		c-1.343,2.86-3.968,8.451-1.964,14.4c1.685,5.001,5.717,7.511,10.473,10.473c9.249,5.759,18.263,6.436,21.6,6.545
		c5.033,0.165,11.885,0.389,18.327-3.927c1.102-0.738,4.111-2.798,6.545-6.545c1.935-2.979,2.667-5.734,3.927-10.473
		c1.583-5.953,1.132-7.011,2.618-9.818c1.849-3.493,4.454-5.46,5.891-6.545c11.542-8.717,33.613-7.49,37.964-7.2
		c11.096,0.739,16.644,1.108,21.6,3.927c10.991,6.253,19.21,20.29,17.018,34.691c-1.888,12.406-10.67,19.613-13.091,21.6
		c-8.954,7.348-22.62,11.548-34.691,8.509c-8.052-2.027-12.156-6.46-22.909-6.545c-3.889-0.031-6.659,0.523-10.473,1.309
		c-10.632,2.191-22.297,4.595-31.418,14.4c-7.013,7.539-9.208,15.888-9.818,18.327c-1.36,5.433-0.464,6.652-0.655,19.636
		c-0.266,18.074-2.05,18.954-0.655,26.836c0.609,3.442,3.032,9.105,7.854,20.291c5.504,12.769,8.257,19.153,11.782,25.527
		c2.818,5.096,7.7,13.321,13.091,21.6c3.008,4.619,5.606,8.383,7.854,14.4c0.868,2.322,1.669,5.039,3.273,10.473
		c2.499,8.467,2.243,8.55,3.273,11.127c2.188,5.476,4.222,10.569,8.509,12.436c3.704,1.614,6.894-0.137,14.4-2.618
		c6.833-2.259,14.016-3.292,20.945-5.236c32.868-9.222,31.417-9.277,35.345-9.818c13.582-1.87,24.402-0.31,30.764,0.655
		c9.095,1.379,19.366,2.936,30.764,9.164c7.131,3.896,12.827,9.361,24.218,20.291c11.467,11.002,17.201,16.503,19.636,21.6
		c6.112,12.788,4.045,25.657,1.964,38.618c-0.78,4.859-2.81,15.265-8.509,27.491c-5.039,10.811-9.993,21.438-20.291,28.8
		c-8.783,6.279-11.579,3.125-36,9.818c-20.101,5.51-30.347,8.439-39.927,17.018c-7.577,6.785-6.052,9.179-16.364,18.327
		c-9.179,8.144-13.195,8.739-20.945,17.018c-5.813,6.21-10.252,10.952-11.782,18.327c-0.368,1.776-0.797,4.809,3.927,23.564
		c2.899,11.509,4.393,17.35,6.545,21.6c5.521,10.9,12.85,17.056,14.4,18.327c2.001,1.641,8.444,6.68,18.327,9.818
		c8.866,2.815,16.193,2.733,18.982,2.618c6.453-0.265,12.782-0.525,18.982-4.582c4.01-2.624,6.579-5.93,11.127-11.782
		c1.752-2.254,3.821-4.916,5.891-8.509c6.446-11.189,3.761-15.541,9.164-22.255c4.735-5.884,11.12-7.911,13.091-8.509
		c8.167-2.477,15.068-0.383,18.327,0.655c2.702,0.86,10.043,3.307,15.709,10.473c2.065,2.611,5.695,7.202,5.891,13.745
		c0.261,8.729-5.768,14.933-6.546,15.709c-8.335,8.322-17.077,3.291-31.64,11.532c-6.149,3.479-10.303,5.83-12.869,10.723
		c-7.085,13.51,8.529,26.207,1.964,41.236c-2.544,5.824-4.542,3.124-13.745,15.054c-4.775,6.19-8.048,12.065-14.4,23.564
		c-5.342,9.671-8.013,14.506-9.164,17.673c-2.806,7.724-3.616,14.968-5.236,29.454c-1.039,9.293-1.559,13.94-1.309,17.018
		c0.904,11.137,4.765,14.523,4.582,25.527c-0.033,1.966-0.676,5.674-1.964,13.091c-2.638,15.2-3.681,16.596-4.582,24.218
		c-1.49,12.606,1.02,11.688-0.655,20.945c-1.939,10.72-5.176,11.239-7.854,23.564c-0.779,3.585-1.174,8.717-1.964,18.982
		c-1.285,16.7-0.611,20.849,0,23.564c0.412,1.829,0.569,2.005,5.236,13.745c5.226,13.146,7.839,19.719,8.509,21.6
		c5.121,14.376,4.495,16.8,8.509,20.945c4.526,4.675,7,3.326,11.782,8.509c4.529,4.909,6.11,10.235,7.855,16.364
		c2.986,10.488,0.445,10.795,3.273,22.909c2.054,8.8,4.126,11.774,3.273,18.327c-0.339,2.605-0.885,6.799-3.927,10.473
		c-3.306,3.993-6.061,3.144-12.436,7.855c-5.06,3.738-7.902,7.653-8.509,8.509c-1.398,1.969-3.363,5.207-5.891,14.4
		c-2.69,9.78-4.035,14.67-3.927,20.945c0.145,8.491,2.541,14.967,5.236,22.255c2.837,7.67,3.744,7.288,6.545,15.055
		c2.08,5.766,1.838,6.69,5.236,19.636c3.648,13.896,4.091,13.458,5.236,19.636c0.796,4.296,2,10.972,1.964,19.636
		c-0.043,10.114-1.724,10.682-0.655,16.364c1.635,8.69,6.927,14.586,9.164,17.018c5.865,6.379,8.059,4.587,16.364,11.782
		c9.25,8.014,9.269,12.61,15.055,13.745c5.65,1.109,7.68-2.871,15.054-3.273c7.163-0.39,12.64,2.962,18.327,6.545
		c9.793,6.172,28.161,21.616,24.873,34.691c-1.075,4.272-3.205,3.294-8.509,13.091c-2.323,4.291-5.198,9.7-6.545,17.018
		c-0.723,3.931-0.021,3.06-0.655,15.055c-0.51,9.654-1.036,11.565-0.655,16.364c0.44,5.528,1.69,9.923,2.618,12.655"/>
	<path style="fill:none;stroke:#00FF00;stroke-miterlimit:10;" d="M1480.073,1418.545c-10.193,6.105-12.442,8.363-13.745,9.818
		c-2.693,3.007-5.38,6.007-5.891,10.473c-0.671,5.87,2.84,10.606,5.236,13.745c4.769,6.246,7.969,5.992,15.709,12.436
		c9.261,7.71,7.228,10.195,14.4,15.055c2.424,1.642,3.955,2.239,21.6,7.2c17.75,4.991,19.87,5.419,23.564,5.236
		c7.716-0.382,13.428-2.995,18.327-5.236c9.547-4.367,15.598-9.929,18.982-13.091c7.418-6.932,11.413-13.363,12.436-15.054
		c2.87-4.744,4.386-7.25,5.236-11.127c1.862-8.486-1.178-15.716-3.927-22.255c-1.235-2.938-3.349-7.855-7.854-13.091
		c-1.734-2.015-4.809-5.532-9.818-8.509c-8.429-5.01-16.792-5.199-20.291-5.236c-8.007-0.085-7.974,2.047-17.018,1.964
		c-7.795-0.071-8.56-1.661-15.709-1.309c-2.68,0.132-8.513,0.47-15.055,3.273c-4.324,1.853-4.16,2.727-12.436,7.855
		C1487.859,1414.383,1487.634,1414.017,1480.073,1418.545z"/>
</g>
</svg>
