<?xml version="1.0" encoding="iso-8859-1"?>
<!-- Generator: Adobe Illustrator 24.2.3, SVG Export Plug-In . SVG Version: 6.00 Build 0)  -->
<svg version="1.1" xmlns="http://www.w3.org/2000/svg" xmlns:xlink="http://www.w3.org/1999/xlink" x="0px" y="0px"
	 viewBox="0 0 2000 2000" style="enable-background:new 0 0 2000 2000;" xml:space="preserve">
<g id="Layer_1" style="display:none;">
	<image style="display:inline;overflow:visible;" width="2000" height="2000" xlink:href="P9_2_1 - Copy.jpeg" >
	</image>
</g>
<g id="Layer_2">
	<path style="fill:none;stroke:#00FF00;stroke-miterlimit:10;" d="M1519,0c-1.982,2.662-4.394,6.746-5,12
		c-0.661,5.726,1.27,8.959,3,17c2.224,10.339,0.533,11.97,2,18c1.305,5.362,4.269,10.756,18,23c13.664,12.184,17.471,12.855,34,26
		c18.424,14.653,16.632,16.156,26,21c13.638,7.052,19.945,11.514,25,13c1.705,0.501,6.244,1.751,10.673,5.436
		c2.461,2.048,6.945,5.779,6.546,9.818c-0.579,5.857-10.754,5.538-13.218,12.745c-1.888,5.524,3.586,7.789,3,17
		c-0.484,7.597-3.871,8.393-4,15c-0.142,7.305,3.951,8.746,7,18c3.078,9.341,2.065,17.458,1,26c-0.652,5.231-1.719,13.263-6,22
		c-2.966,6.053-5.014,7.423-16,20c-12.034,13.777-18.824,22.719-24,34c-3.305,7.203-4.025,11.158-3,15c1.853,6.949,7.833,7.599,9,14
		c1.035,5.675-3.38,6.729-6,17c-1.113,4.363-1.075,9.909-1,21c0.061,8.943,0.609,11.488,1,13c2.131,8.243,5.373,8.19,6,13
		c1.215,9.325-10.635,12.085-15,28c-0.773,2.818-2.217,8.312-1,15c1.329,7.299,4.331,7.796,6,15c2.149,9.277-0.745,17.454-2,21
		c-2.491,7.038-5.125,8.745-8,14c-8.145,14.89-0.552,25.964,2,61c0.239,3.286,0.46,7.143,3,11c3.902,5.927,8.891,5.192,12,11
		c1.927,3.599,0.626,5.028,2,12c1.385,7.027,3.9,11.631,5,14c6.421,13.829,14.315,58.554,21.182,94.855
		c4.494,23.758,4.452,48.762,13.091,71.345c3.636,9.505,10.931,25.43,4.582,37.309c-1.918,3.589-5.684,7.934-5.236,14.4
		c0.344,4.967,2.887,7.052,2.618,13.091c-0.232,5.211-2.205,5.418-1.964,9.164c0.364,5.635,4.945,6.974,10.473,15.055
		c1.776,2.596,0.636,1.483,7.2,15.055c5.627,11.634,6.048,11.592,7.855,16.364c2.431,6.424,2.146,7.765,4.582,12.436
		c2.183,4.185,4.488,7.091,7.2,10.473c6.275,7.826,7.374,6.83,9.818,11.127c4.136,7.271,1.217,10.518,5.236,15.055
		c3.812,4.303,7.258,2.308,13.091,6.545c5.819,4.228,8.079,10.347,9.818,15.055c1.857,5.026,1.242,6.176,3.927,22.909
		c1.662,10.355,2.152,11.499,2.618,12.436c1.539,3.093,2.58,3.457,13.745,14.4c6.162,6.04,6.737,6.803,9.164,8.509
		c5.43,3.818,7.55,3.51,8.509,5.891c1.698,4.216-3.876,7.848-7.2,17.018c-0.731,2.017-3.562,9.828-1.964,16.364
		c2.001,8.183,10.071,10.786,27.491,20.291c0,0,16.719,9.122,35.345,22.255c9.376,6.611,17.259,12.91,24.218,22.909
		c8.722,12.532,7.105,18.103,6.545,19.636c-1.572,4.304-5.749,6.71-11.782,9.164c-23.65,9.62-35.411,3.543-53.673,12.436
		c-9.293,4.525-14.578,10.155-17.018,13.091c-2.623,3.155-13.637,16.404-9.164,27.491c2.026,5.021,6.515,7.831,11.782,11.127
		c2.35,1.471,7.843,4.839,15.055,5.891c9.31,1.359,11.566-2.589,22.255-3.927c16.199-2.028,17.694,6.205,34.036,3.927
		c9.123-1.271,12.972-4.438,19.636-1.964c4.253,1.579,4.789,3.651,11.782,7.854c2.817,1.693,5.118,2.793,14.4,6.545
		c19.611,7.928,19.949,7.307,21.6,9.164c6.528,7.339,4.953,21.192,0.655,30.109c-5.102,10.583-11.693,9.342-17.018,20.946
		c-2.775,6.045-0.833,6.05-4.582,20.945c-0.57,2.265-0.724,2.698-7.2,22.909c-4.425,13.81-5.034,15.732-7.208,18.827
		c-4.605,6.553-10.315,9.95-13.737,11.937c-12.214,7.094-16.38,2.857-28.146,9.164c-9.583,5.137-8.256,8.719-18.982,13.745
		c-5.335,2.5-11.368,5.328-18.982,4.582c-3.133-0.307-3.194-0.892-17.673-5.236c-8.063-2.419-10.012-2.828-12.436-1.964
		c-4.52,1.612-7.714,6.586-8.509,11.127c-1.017,5.805,2.386,8.047,1.309,14.4c-0.71,4.187-2.816,6.92-3.927,8.509
		c-10.264,14.683-12.746,42.154-20.946,77.891c-0.314,1.368-1.279,5.55,0,10.473c0.505,1.943,1.826,7.029,6.546,9.818
		c3.149,1.861,8.38,3.037,11.127,0.655c2.158-1.872,1.001-4.395,2.618-8.509c1.783-4.535,5.215-6.622,8.509-9.164
		c1.621-1.251,6.099-6.289,15.055-16.364c13.536-15.229,15.529-19.594,21.6-20.291c2.859-0.328,5.317,0.307,9.164-1.309
		c3.882-1.631,4.162-3.448,8.509-6.545c3.006-2.142,8.494-6.052,14.4-5.236c3.671,0.507,3.793,2.327,9.164,4.582
		c1.353,0.568,3.899,1.525,13.745,2.618c13.497,1.499,15.13,0.413,18.327,2.618c5.596,3.859,6.489,11.251,6.546,11.782
		c0.842,7.905-4.907,9.826-7.2,20.945c-1.744,8.458,1.134,9.52-0.655,17.673c-0.692,3.156-1.959,6.808-9.818,18.327
		c-12.45,18.248-14.627,16.935-17.673,24.873c-3.62,9.434-0.496,11.165-5.236,22.255c-1.838,4.3-4.328,10.124-9.818,15.709
		c-3.64,3.703-5.124,3.765-8.509,7.855c-3.144,3.798-6.874,8.304-6.545,13.745c0.142,2.354,2.06,5.528,5.891,11.782
		c4.203,6.861,5.73,8.208,5.236,10.473c-0.826,3.788-6.315,5.603-9.164,6.545c-8.552,2.828-16.152,1.624-18.327,1.309
		c-23.196-3.361-44.656,5.176-49.745,7.2c-6.73,2.677-12.932,5.144-18.982,11.127c-6.347,6.277-5.741,9.713-15.709,26.836
		c-4.079,7.007-8.455,13.776-13.091,20.945c-7.216,11.16-8.66,12.778-10.473,17.673c-3.284,8.868-3.305,16.413-3.273,21.6
		c0.044,6.979,0.138,11.877,3.273,17.018c1.083,1.776,3.611,5.923,8.509,7.854c2.138,0.844,5.834,1.701,15.709-1.309
		c7.316-2.23,12.099-4.776,15.709-6.545c6.491-3.181,18.817-9.222,33.382-11.127c5.446-0.712,10.831-0.475,21.6,0
		c11.34,0.5,17.089,0.8,20.946,3.273c9.732,6.238,10.902,19.666,11.127,22.255c1.244,14.284-6.712,25.133-10.473,30.109
		c-7.163,9.476-12.523,10.603-28.8,22.255c-10.163,7.275-5.314,4.86-31.418,26.182c-1.112,0.909-24.142,19.716-32.727,36
		c-1.079,2.046-2.778,5.662-1.964,9.818c1.163,5.935,6.749,9.385,8.509,10.473c4.292,2.651,8.365,3.076,10.473,3.273
		c1.809,0.169,8.862,0.638,15.709-3.273c3.57-2.039,3.082-2.983,6.546-4.582c4.54-2.095,6.499-0.99,11.127-2.618
		c3.451-1.214,3.835-2.346,9.164-5.891c6.271-4.172,7.209-3.581,13.091-7.2c7.652-4.708,6.88-6.209,14.4-11.127
		c7.245-4.738,7.662-3.148,15.055-7.854c4.882-3.108,4.615-3.747,15.709-12.436c5.728-4.486,5.61-4.168,11.127-8.509
		c9.265-7.29,8.803-7.563,14.4-11.782c9.573-7.216,17.385-11.288,19.636-12.436c4.026-2.053,8.034-4.096,13.745-5.891
		c7.626-2.396,14.298-3.095,18.982-3.273"/>
	<path style="fill:none;stroke:#00FF00;stroke-miterlimit:10;" d="M1720.945,2000c0.941-2.854,2.792-7.205,6.546-11.345
		c1.005-1.108,4.07-4.323,11.127-7.854c10.615-5.311,13.785-3.093,23.564-7.855c6.472-3.151,4.792-3.981,13.091-8.509
		c6.317-3.447,8.452-3.599,20.291-8.509c10.414-4.318,8.729-4.187,16.364-7.2c10.595-4.182,21.271-7.369,22.909-7.854
		c10.003-2.966,10.839-2.63,13.745-4.582c5.344-3.589,8.354-8.643,11.782-14.4c2.564-4.306,4.22-8.028,5.891-11.782
		c4.214-9.47,3.699-10.874,6.546-14.4c3.61-4.471,5.317-3.301,9.818-8.509c1.637-1.894,4.83-5.59,6.546-11.127
		c1.848-5.967,0.24-8.456,2.618-12.436c1.894-3.17,4.896-4.908,7.2-5.891"/>
	<path style="fill:none;stroke:#00FF00;stroke-miterlimit:10;" d="M1876.073,1609.673c-5.013,3.168-7.52,4.752-9.818,7.2
		c-2.772,2.951-6.547,6.971-6.545,12.436c0.001,4.916,3.058,8.428,6.545,12.436c2.424,2.786,5.765,6.625,11.127,8.509
		c1.581,0.556,4.73,1.43,18.327-1.309c11.704-2.358,17.649-3.61,22.255-7.2c4.125-3.216,6.405-6.796,9.164-11.127
		c3.433-5.391,5.421-8.609,5.236-13.091c-0.227-5.511-3.591-9.344-4.582-10.473c-3.777-4.304-8.379-5.558-14.4-7.2
		c-5.053-1.378-9.906-2.701-15.709-1.309c-1.681,0.403-4.393,1.796-9.818,4.582
		C1883.378,1605.426,1880.169,1607.084,1876.073,1609.673z"/>
	<path style="fill:none;stroke:#00FF00;stroke-miterlimit:10;" d="M1772.655,758.764c5.128,0.77,10.021-6.053,11.782-8.509
		c1.117-1.558,3.146-4.713,6.545-18.327c2.358-9.444,1.94-10.161,3.927-17.018c1.912-6.597,2.443-6.428,5.236-15.055
		c0.768-2.372,3.037-9.515,5.236-18.982c1.172-5.047,2.347-10.106,3.273-17.018c0.491-3.672,0.764-7.684,1.309-15.709
		c0.654-9.635,0.975-14.516,0.655-17.673c-0.818-8.054-3.107-13.777-3.927-15.709c-0.408-0.96-1.9-4.391-4.582-8.509
		c-2.088-3.205-4.257-5.671-8.509-10.473c-6.059-6.841-6.683-6.914-8.509-9.818c-2.51-3.991-3.662-7.559-4.582-10.473
		c-0.535-1.696-0.988-3.407-2.618-13.091c-1.791-10.642-1.69-11.227-2.618-15.055c-1.542-6.363-2.243-6.488-2.618-9.818
		c-0.623-5.529,0.87-9.071,2.618-15.055c3.729-12.762,5.594-19.143,3.927-25.527c-0.243-0.929-2.702-9.784-11.127-14.4
		c-1.305-0.715-5.201-2.787-10.473-2.618c-8.187,0.262-13.607,5.733-15.709,7.855c-5.143,5.191-6.911,10.968-9.164,18.327
		c-1.004,3.279-2.269,7.504-2.618,13.091c-0.427,6.828,0.882,9.809,2.618,19.636c2.663,15.075,0.782,14.845,3.273,24.873
		c2.316,9.324,3.716,8.609,6.545,18.982c3.445,12.631,1.389,13.761,4.582,24.218c3.246,10.632,5.73,10.636,9.164,21.6
		c1.576,5.032,2.381,10.841,3.927,22.255c0.544,4.014,2.031,15.355,3.273,32.073c1.067,14.363,1.581,21.637,0.655,26.182
		c-1.518,7.446-3.729,10.224-3.927,18.327c-0.041,1.669-0.112,8.28,2.618,16.364
		C1765.125,750.486,1767.668,758.015,1772.655,758.764z"/>
	<path style="fill:none;stroke:#00FF00;stroke-miterlimit:10;" d="M1675.782,240.364c-4.159,2.913-8.966,6.28-11.782,12.436
		c-0.402,0.88-4.364,9.892-0.655,18.982c2.294,5.622,4.904,4.856,9.818,12.436c2.977,4.592,4.385,8.734,7.2,17.018
		c2.077,6.112,3.593,10.574,4.582,17.018c0.681,4.44,1.575,10.269,0.655,17.673c-0.948,7.625-2.715,8.032-2.618,13.745
		c0.129,7.607,3.365,13.061,4.582,15.055c2.137,3.501,6.217,10.187,11.127,9.818c2.871-0.216,4.926-2.761,8.509-7.2
		c4.055-5.024,3.234-6.203,5.891-8.509c3.874-3.363,6.512-1.631,14.4-4.582c5.433-2.033,10.258-3.838,11.782-7.854
		c1.79-4.719-3.042-7.045-2.618-14.4c0.268-4.648,2.446-8.032,6.545-14.4c4.037-6.271,5.46-6.178,7.855-11.127
		c1.281-2.647,3.35-6.926,3.273-12.436c-0.077-5.485-2.191-5.723-3.273-13.745c-0.802-5.95,0.197-7.034-1.309-9.818
		c-2.025-3.744-4.571-3.15-8.509-7.2c-1.71-1.758-1.607-2.259-6.545-11.782c-4.498-8.673-5.94-10.875-6.545-11.782
		c-3.052-4.567-4.678-6.949-7.855-9.164c-1.283-0.895-5.091-3.482-10.473-3.927c-4.296-0.355-7.882,1.072-15.055,3.927
		c-4.131,1.644-7.261,3.257-9.818,4.582C1681.016,237.164,1678.454,238.492,1675.782,240.364z"/>
</g>
</svg>
