<?xml version="1.0" encoding="iso-8859-1"?>
<!-- Generator: Adobe Illustrator 24.2.3, SVG Export Plug-In . SVG Version: 6.00 Build 0)  -->
<svg version="1.1" xmlns="http://www.w3.org/2000/svg" xmlns:xlink="http://www.w3.org/1999/xlink" x="0px" y="0px"
	 viewBox="0 0 2000 2000" style="enable-background:new 0 0 2000 2000;" xml:space="preserve">
<g id="Layer_1" style="display:none;">
	<image style="display:inline;overflow:visible;" width="2000" height="2000" xlink:href="P9_3_1 - Copy.jpeg" >
	</image>
</g>
<g id="Layer_2">
	<path style="fill:none;stroke:#00FF00;stroke-miterlimit:10;" d="M1757.6,1844c-5.702,2.211-8.272,8.345-9.164,10.473
		c-2.699,6.441-0.411,8.999-3.273,12.436c-3.822,4.592-10.105,2.672-11.127,5.891c-0.699,2.199,1.973,3.92,7.2,11.127
		c5.161,7.116,3.996,7.426,6.546,9.818c4.974,4.667,12.93,6.795,20.291,5.236c7.204-1.526,11.476-6.083,13.091-7.855
		c4.478-4.913,5.821-10.129,6.545-13.091c2.084-8.521,0.195-15.385-0.655-18.327c-1.293-4.478-2.378-8.235-5.891-11.127
		c-2.704-2.226-5.512-2.793-11.127-3.927C1763.844,1843.404,1760.748,1842.779,1757.6,1844z"/>
	<path style="fill:none;stroke:#00FF00;stroke-miterlimit:10;" d="M1845.964,1157.382c-4.796,0.832-7.934,3.489-13.091,7.854
		c-1.285,1.088-4.854,4.214-8.509,9.164c-3.621,4.902-5.431,7.354-5.891,11.127c-0.594,4.87,1.391,8.736,2.618,11.127
		c1.611,3.138,3.939,7.674,8.509,9.164c4.49,1.464,8.84-0.762,13.745-3.273c6.87-3.516,7.322-6.251,13.745-8.509
		c4.202-1.477,4.198-0.373,8.509-1.964c2.827-1.043,8.729-3.313,12.436-9.164c1.358-2.143,3.202-5.053,2.618-8.509
		c-0.68-4.032-4.252-6.373-8.509-9.164c-4.331-2.839-8.116-4.072-11.782-5.236
		C1853.42,1157.794,1849.949,1156.691,1845.964,1157.382z"/>
	<path style="fill:none;stroke:#00FF00;stroke-miterlimit:10;" d="M1710.473,0c-1.746,1.094-4.308,2.99-6.545,6.036
		c-1.432,1.95-2.283,3.945-3.927,7.854c-1.663,3.956-1.74,4.749-3.927,10.473c-2.512,6.575-2.659,6.18-3.273,8.509
		c-0.924,3.504-1.059,6.174-1.309,11.127c-0.24,4.738-0.36,7.108,0,9.818c0.706,5.326,2.052,5.575,3.273,11.782
		c1.158,5.892,0.082,6.36,1.309,10.473c1.595,5.347,3.63,5.279,5.891,10.473c2.181,5.011,0.745,6.128,2.618,17.018
		c1.133,6.584,1.699,9.877,3.273,12.436c4.428,7.201,12.952,9.301,15.055,9.818c7.592,1.87,13.789-0.063,26.182-3.927
		c5.381-1.678,11.781-3.674,19.636-7.854c8.911-4.743,9.681-6.967,15.055-7.855c7.783-1.285,9.383,2.851,18.327,1.964
		c3.368-0.334,2.925-0.899,15.709-5.236c7.464-2.532,11.196-3.799,15.054-4.582c8.739-1.774,15.22-1.428,17.018-1.309
		c5.755,0.381,9.122,0.604,13.091,2.618c6.37,3.232,9.576,8.684,11.782,12.436c3.064,5.211,4.179,9.834,4.582,11.782
		c0.64,3.096,1.788,8.654,0,15.055c-0.77,2.755-2.695,5.764-6.545,11.782c-2.542,3.973-2.781,3.967-9.164,13.091
		c-4.826,6.899-4.874,7.165-5.891,7.854c-3.561,2.416-6.328,1.425-18.327,1.309c-11.526-0.111-14.652,0.748-16.364,1.309
		c-4.619,1.515-8.014,3.839-9.818,5.236c-3.769,2.92-6.065,6.035-9.818,11.127c-3.944,5.351-3.975,6.415-6.546,8.509
		c-2.339,1.905-4.645,2.823-9.164,4.582c-8.736,3.4-11.616,2.995-12.436,5.236c-0.807,2.206,1.208,4.743,5.236,9.818
		c3.943,4.967,5.914,7.45,9.164,8.509c3.824,1.246,5.697-0.458,13.091-1.309c0,0,6.299-0.725,13.091,0
		c8.93,0.953,9.425,3.612,20.946,6.545c10.322,2.628,14.4,1.633,15.709,4.582c0.731,1.647-0.091,2.972-6.545,14.4
		c-5.39,9.544-6.219,11.102-8.509,13.745c-1.501,1.732-3.837,3.773-8.509,7.855c-5.399,4.717-6.316,5.229-12.436,10.473
		c-6.244,5.349-6.273,5.658-9.818,8.509c-5.74,4.616-8.609,6.925-11.782,8.509c-8.52,4.256-11.542,0.172-27.491,2.618
		c-6.908,1.06-6.672,1.877-18.327,3.927c-9.095,1.6-13.697,1.887-15.055,1.964c-7.622,0.429-7.672-0.458-14.4,0
		c-7.992,0.544-7.82,1.788-17.018,2.618c-7.397,0.668-8.84-0.017-13.091,1.309c-3.467,1.081-6.143,2.671-10.473,5.891
		c-3.868,2.877-10.017,7.771-21.6,19.636c-5.053,5.177-8.358,8.829-11.782,13.091c-3.927,4.888-5.916,7.394-7.2,10.473
		c-1.293,3.102-1.534,8.219-1.964,18.327c-0.647,15.234-0.665,15.936-0.655,17.673c0.053,8.446,0.595,8.516,0.655,17.018
		c0.048,6.932-0.277,12.204-0.655,18.327c-0.551,8.939-0.827,13.409-1.309,15.055c-2.498,8.525-6.563,8.716-13.091,20.945
		c-1.03,1.929-0.21,0.578-5.891,13.091c-4.334,9.547-6.529,14.362-7.855,16.364c-5.036,7.605-7.288,6.607-12.436,14.4
		c-3.217,4.87-4.866,9.085-7.2,15.055c-3.705,9.474-2.766,10.471-5.891,17.018c-2.67,5.595-3.376,4.909-8.509,13.745
		c-2.235,3.848-5.418,9.375-8.509,17.018c-1.248,3.086-3.003,7.808-4.582,13.745c-1.763,6.631-3.25,12.222-3.273,19.636
		c-0.01,3.238,0.43,6.522,1.309,13.091c0.462,3.452,0.918,6.287,2.618,15.709c2.096,11.615,3.144,17.422,3.927,20.945
		c2.116,9.515,2.58,9.23,3.927,16.364c1.788,9.466,0.998,10.109,2.618,16.364c0.512,1.975,2.326,8.611,6.545,16.364
		c2.281,4.192,5.23,8.031,11.127,15.709c4.43,5.767,7.042,9.169,11.127,13.745c3.97,4.448,7.447,7.765,14.4,14.4
		c10.147,9.683,12.126,10.854,14.4,11.782c5.618,2.292,10.663,2.125,14.4,1.964c2.16-0.093,8.057-0.508,19.636-5.236
		c15.15-6.187,15.348-9.681,22.255-9.818c4.958-0.098,9.632,2.334,18.982,7.2c8.18,4.257,12.326,6.48,15.055,11.127
		c0.433,0.738,4.403,7.723,2.618,15.709c-0.958,4.288-2.54,4.23-3.927,9.164c-1.897,6.747-0.569,12.653,0,15.055
		c1.662,7.013,5.262,11.73,7.854,15.055c5.346,6.856,7.749,6.292,9.818,11.127c2.886,6.742,0.68,13.597,0,15.709
		c-2.006,6.234-5.835,9.902-9.164,13.091c-3.415,3.272-7.246,6.942-13.091,8.509c-5.365,1.439-8.364,0.016-18.327-1.309
		c-5.386-0.716-3.408-0.154-18.327-1.309c-27.778-2.151-30.543-3.784-37.964-1.309c-4.848,1.617-8.25,3.914-15.054,8.509
		c-7.858,5.306-6.271,5.743-18.982,15.709c-4.84,3.794-6.927,5.187-8.509,8.509c-1.987,4.172-0.785,6.367-1.309,13.091
		c-0.744,9.539-3.499,9.425-4.582,19.636c-0.698,6.576-1.188,11.892,1.964,16.364c2.067,2.934,3.639,2.576,6.545,6.546
		c3.459,4.723,2.521,6.986,5.236,9.818c3.412,3.558,8.537,3.784,11.782,3.927c6.284,0.277,7.586-1.892,18.982-4.582
		c5.752-1.358,5.33-0.784,13.745-2.618c9.855-2.148,9.502-2.732,13.745-3.273c5.782-0.737,6.444,0.347,19.636,1.309
		c10.005,0.73,11.267,0.226,17.673,1.309c7.799,1.319,11.81,3.06,15.055,5.891c1.818,1.587,5.268,4.598,4.582,7.2
		c-1.009,3.824-10.378,4.588-18.327,5.236c-9.776,0.797-9.957-0.614-14.4,0.655c-7.052,2.014-13.613,7.573-17.018,14.4
		c-4.213,8.446-0.822,13.267-5.236,17.018c-3.526,2.995-6.514,0.622-17.673,1.964c-5.972,0.718-12.92,1.553-19.636,5.891
		c-6.418,4.145-9.73,9.617-11.782,13.091c-2.977,5.041-4.425,10.847-7.2,22.255c-2.871,11.803-2.193,11.687-4.582,20.291
		c-1.843,6.638-3.424,12.334-6.545,19.636c-1.948,4.557-3.258,6.846-5.236,12.436c-1.987,5.616-2.981,8.424-3.273,11.782
		c-0.594,6.823,1.821,7.855,1.964,16.364c0.073,4.341,0.144,8.573-1.964,13.091c-2.865,6.141-6.233,5.261-9.164,11.127
		c-2.332,4.668-2.189,9.209-1.964,16.364c0.245,7.791,1.535,7.011,1.309,11.782c-0.433,9.162-5.128,10.727-6.546,21.6
		c-0.707,5.42-0.132,9.573,0,10.473c0.732,4.986,1.982,6.046,4.582,13.745c1.738,5.147,3.244,9.689,3.927,15.709
		c0.274,2.413,0.75,6.857,0,12.436c-0.522,3.885-1.224,5.226-4.582,15.055c-3.542,10.367-3.103,9.871-5.891,17.673
		c-2.044,5.721-3.313,9.271-5.236,13.745c-3.756,8.738-5.342,10.144-7.854,15.709c-3.25,7.2-4.567,16.145-7.2,34.036
		c-0.812,5.516-1.289,9.566-2.618,17.018c-1.279,7.17-1.946,10.842-3.273,15.055c-2.31,7.334-3.558,7.587-4.582,13.091
		c-0.79,4.247-0.736,7.799-0.655,13.091c0.032,2.086,0.147,5.776,0.655,10.473c0.762,7.061,1.661,9.461,2.618,15.709
		c0,0,1.108,7.233,1.309,15.055c0.335,13.038-2.332,14.866-3.273,32.727c-0.467,8.867-0.113,14.167,0,15.709
		c0.364,4.966,0.761,5.61,1.964,15.055c0.379,2.975,1.25,9.874,1.964,18.327c0.979,11.592,0.425,11.444,1.309,15.709
		c0.822,3.963,2.581,10.272,6.545,17.018c2.342,3.986,4.834,6.803,9.818,12.436c6.146,6.947,11.002,11.359,13.745,13.745
		c6.632,5.769,10.025,8.663,13.745,9.164c4.934,0.664,9.151-1.381,14.4-3.927c2.73-1.324,5.567-3.301,11.127-7.2
		c3.614-2.534,7.476-5.251,12.436-9.164c6.697-5.282,10.466-8.856,13.091-11.127c5.544-4.797,7.99-5.516,37.964-20.291
		c14.476-7.136,17.451-8.715,23.564-9.818c2.046-0.369,10.3-1.741,20.945,0c7.921,1.296,14.182,2.319,20.291,7.2
		c9.517,7.603,11.351,18.722,11.782,21.6c0.433,2.895,1.261,10.885-2.618,19.636c-3.198,7.215-7.959,11.255-12.436,15.055
		c-4.15,3.521-9.312,6.275-19.636,11.782c-8.366,4.462-12.549,6.693-17.673,8.509c-8.768,3.107-10.02,1.961-13.091,4.582
		c-4.01,3.423-3.062,6.392-8.509,18.982c-1.73,4-3.276,7.535-5.891,11.782c-2.261,3.671-5.449,8.848-11.127,13.745
		c-2.836,2.446-10.225,8.667-20.945,10.473c-8.885,1.497-11.02-1.562-18.327,1.309c-5.499,2.16-5.563,4.391-11.782,6.545
		c-6.793,2.353-8.312,0.243-13.745,2.618c-6.984,3.054-10.411,9.136-11.127,10.473c-2.679,5.005-2.654,9.448-2.618,15.709
		c0.025,4.452,0.062,11.046,3.273,18.327c2.545,5.772,4.748,6.678,4.582,10.473c-0.127,2.893-2.05,5.677-5.891,11.127
		c-4.574,6.49-5.525,6.262-6.545,9.164c-1.514,4.304-0.617,8.206,0.655,13.745c1.477,6.432,2.848,6.901,4.582,13.745
		c1.576,6.221,0.51,6.1,1.964,12.436c1.39,6.061,2.389,6.278,5.891,17.018c0.938,2.877,2.071,6.375,3.273,11.127
		c1.124,4.447,1.744,7.758,2.618,12.436c1.247,6.666,1.87,9.999,1.964,12.436c0.207,5.373-0.674,6.368-0.655,13.091
		c0.01,3.3,0.229,5.517,0.655,9.818c0.984,9.941,2.024,12.197,2.618,20.945c0.419,6.165,0.149,8.67,0,9.818
		c-0.577,4.455-1.46,4.986-2.618,10.473c-1.241,5.88-2.01,9.524-0.655,13.745c0.475,1.48,1.92,5.982,5.891,7.854
		c1.994,0.94,4.166,0.845,8.509,0.655c4.362-0.191,4.631-0.757,7.2-0.655c5.346,0.213,9.234,2.864,9.818,3.273
		c4.9,3.432,6.542,8.387,7.2,10.473c1.44,4.562,1.003,8.356,0.655,11.127c-1.128,8.959-5.354,15.779-8.509,19.854"/>
</g>
</svg>
