<?xml version="1.0" encoding="iso-8859-1"?>
<!-- Generator: Adobe Illustrator 24.2.3, SVG Export Plug-In . SVG Version: 6.00 Build 0)  -->
<svg version="1.1" xmlns="http://www.w3.org/2000/svg" xmlns:xlink="http://www.w3.org/1999/xlink" x="0px" y="0px"
	 viewBox="0 0 2000 2000" style="enable-background:new 0 0 2000 2000;" xml:space="preserve">
<g id="Layer_1" style="display:none;">
	<image style="display:inline;overflow:visible;" width="2000" height="2000" xlink:href="P9_4_1 - Copy.jpeg" >
	</image>
</g>
<g id="Layer_2">
	<path style="fill:none;stroke:#00FF00;stroke-miterlimit:10;" d="M1609.673,0c-0.01,3.736-0.329,9.325-1.964,15.854
		c-1.575,6.289-2.621,6.464-4.582,13.091c-1.177,3.978-3.792,13.08-3.273,24.218c0.271,5.808,1.149,6.913,0.655,11.782
		c-0.692,6.807-2.688,7.398-3.273,13.091c-0.365,3.557,0.842,8.311,3.273,17.673c1.87,7.203,2.805,10.804,3.927,13.745
		c4.643,12.167,9.133,14.408,7.855,19.636c-1.312,5.363-7.401,8.578-8.509,9.164c-5.143,2.716-7.877,0.943-11.127,3.927
		c-2.592,2.381-3.122,5.594-3.927,10.473c-0.623,3.774-1.378,8.352,0.655,13.091c1.314,3.064,2.298,2.708,4.582,7.2
		c1.639,3.224,3.098,6.096,2.618,9.164c-0.509,3.253-2.905,4.842-5.236,7.2c0,0-8.057,8.151-9.382,20.727
		c-0.819,7.769,2.868,7.505,3.055,17.891c0.028,1.587,0.093,9.979-3.927,19.636c-2.511,6.032-3.692,5.536-7.854,13.527
		c-4.073,7.819-6.116,14.39-7.854,20.073c-2.41,7.879-1.659,7.729-4.8,20.073c-3.317,13.035-4.217,13.446-6.109,22.691
		c-0.879,4.294-2.052,10.128-2.618,17.891c-0.61,8.374,0.224,8.862-0.436,15.709c-0.399,4.131-1.153,11.437-4.364,19.636
		c-3.584,9.153-6.398,9.636-9.6,18.764c-1.787,5.093-2.309,8.93-3.055,14.4c-2.156,15.828,0.889,19.574-2.621,30.189
		c-0.842,2.547-1.785,4.652-2.615,8.648c-0.631,3.036-1.591,7.845-0.873,13.527c0.802,6.339,2.705,5.963,3.491,12.218
		c0.276,2.194,0.896,7.615-1.309,13.527c-1.633,4.376-3.167,4.607-4.8,8.727c-1.903,4.802-1.636,9.077-1.309,13.091
		c1.794,21.99,4.491,24.729,3.927,36.218c-0.332,6.777-1.429,9.06-0.873,16.145c0.497,6.331,1.475,5.806,2.618,14.836
		c1.041,8.225,0.621,11.75,3.491,13.964c1.727,1.333,4.322,1.94,6.545,1.309c4.083-1.159,3.431-5.51,8.291-9.164
		c4.096-3.08,5.928-1.018,10.036-4.364c0.902-0.735,5.417-4.412,5.673-9.6c0.167-3.398-1.614-4.986-0.436-6.982
		c1.183-2.005,3.338-1.009,5.673-3.055c2.853-2.499,1.49-5.609,3.927-9.164c2.043-2.979,4.76-3.361,7.418-4.8
		c5.166-2.797,6.485-7.625,11.782-21.818c8.013-21.47,7.651-17.541,9.164-23.564c2.639-10.503,2.262-16.571,7.855-23.127
		c3.125-3.665,3.775-2.393,6.982-6.109c7.39-8.565,3.771-15.122,10.473-22.691c0.941-1.063,6.779-7.657,12.655-6.545
		c3.612,0.683,4.654,3.791,9.6,4.364c0.903,0.105,5.17,0.599,6.982-1.745c1.174-1.519,0.162-2.735,0.436-7.418
		c0.228-3.896,0.983-3.996,1.309-8.291c0.332-4.371-0.407-4.833,0-7.418c0.748-4.747,3.989-7.936,5.236-9.164
		c5.008-4.928,11.492-5.63,16.582-6.109c9.792-0.922,17.213,1.669,26.182,4.8c7.302,2.549,11.013,3.887,13.964,6.982
		c7.249,7.603,6.213,18.279,6.109,19.2c-0.904,8.032-5.754,12.875-12.218,20.073c-22.071,24.578-33.107,36.868-37.091,50.182
		c-0.987,3.298-2.711,10.366-8.291,17.455c-3.221,4.093-7.119,7.419-9.164,9.164c-2.756,2.352-3.932,3.057-11.345,8.291
		c-12.457,8.794-13.857,10.136-15.273,11.782c-4.013,4.667-5.913,9.182-6.982,11.782c-2.608,6.342-5.102,12.408-3.491,19.2
		c0.853,3.595,2.434,5.615,1.309,8.291c-1.395,3.317-5.699,4.676-6.109,4.8c-2.523,0.762-3.184-0.061-4.8,0.436
		c-4.338,1.335-4.468,8.777-7.854,17.891c-1.505,4.05-3.185,6.918-6.545,12.655c-5.127,8.752-8.625,12.001-13.964,19.2
		c-2.373,3.199-8.679,11.785-13.527,22.255c-4.904,10.591-3.781,13.318-10.473,36.218c-5.155,17.64-5.43,14.685-6.982,22.255
		c-4.053,19.775,1.122,23.875-3.491,39.709c-3.574,12.269-7.012,10.943-9.6,23.127c-1.829,8.609-0.416,10.699-2.182,27.055
		c-1.299,12.036-2.112,11.345-2.618,19.636c-0.691,11.311,0.828,12.478,0.436,25.745c-0.28,9.472-0.429,14.506-2.182,21.382
		c-2.289,8.976-4.548,10.253-5.673,18.327c-0.611,4.386-1.476,10.595,0.873,17.455c2.234,6.526,4.962,6.586,10.909,17.018
		c3.836,6.73,5.754,10.095,5.673,13.527c-0.194,8.176-7.492,9.176-8.291,18.764c-0.437,5.247,1.479,8.176-0.873,12.218
		c-1.904,3.273-3.792,2.438-5.673,5.236c-3.522,5.24,1.675,10.285,0.873,22.691c-0.218,3.362-0.59,2.841-1.309,9.6
		c-0.116,1.087-0.629,6.009-0.873,13.091c-0.177,5.119-0.167,10.031,0,15.273c0.171,5.378,0.537,12.043,1.746,24
		c2.502,24.749,3.761,24.137,3.054,31.418c-0.917,9.449-3.013,10.229-3.491,20.945c-0.16,3.594,0.184,8.796,0.873,19.2
		c0.838,12.655,1.478,17.64,1.745,19.636c1.052,7.837,1.616,11.851,3.491,16.582c1.102,2.781,2.982,7.415,6.982,12.218
		c5.123,6.151,8.042,5.757,10.036,10.473c1.903,4.5,1.064,9.162,0.436,12.655c-1.145,6.369-3.406,7.676-3.055,12.655
		c0.093,1.317,0.399,4.958,3.055,8.291c0.176,0.221,4.521,5.516,10.473,5.236c5.249-0.246,6.503-4.581,9.6-4.8
		c6.272-0.444,13.334,16.465,22.691,49.309c6.099,21.408,10.004,35.306,13.091,55.418c1.966,12.81,3.722,24.251,3.927,39.709
		c0.125,9.431-0.381,16.211,0.436,30.545c0.226,3.961,0.587,8.895,1.309,18.764c1.201,16.408,1.471,18.268,1.309,23.127
		c-0.217,6.491-0.797,6.047-2.182,19.636c-1.197,11.739-1.795,17.609-1.309,22.691c0.97,10.146,3.431,9.391,4.8,20.509
		c1.447,11.748-1.372,12.01,0.436,24c0.938,6.219,2.193,9.443,1.309,15.273c-0.74,4.881-2.086,5.69-3.491,10.909
		c-2.006,7.453-0.375,9.941-0.873,19.636c-0.501,9.775-2.257,9.164-3.491,20.945c-0.394,3.763-0.414,9.542-0.436,20.945
		c-0.028,13.873-0.032,20.891,0.436,24.873c0.937,7.966,1.746,14.841,5.236,23.127c3.388,8.042,6.135,9.896,6.982,17.018
		c0.547,4.601-0.127,7.804,2.182,9.6c1.873,1.457,4.594,0.971,10.036,0c4.567-0.815,6.991-1.248,9.6-3.055
		c1.908-1.321,1.853-1.95,6.109-6.982c5.099-6.029,5.198-5.151,6.109-6.982c1.254-2.521,0.807-3.663,1.309-13.964
		c0.336-6.897,0.612-7.933,0.873-8.727c1.51-4.599,4.172-6.109,6.982-9.6c5.002-6.214,2.905-9.303,7.418-19.636
		c3.979-9.109,5.86-7.286,9.6-15.709c2.596-5.846,1.682-6.707,5.673-23.564c3.054-12.898,4.512-16.294,5.236-17.891
		c1.528-3.368,4.127-9.097,9.164-14.4c8.533-8.984,13.613-5.744,21.382-13.527c5.516-5.527,10.114-14.334,10.909-23.564
		c0.724-8.41-2.063-13.058,1.309-16.582c3.43-3.583,8.166-0.711,13.091-4.364c4.43-3.286,4.557-8.546,6.109-14.4
		c1.645-6.204,5.32-14.688,14.4-24"/>
	<path style="fill:none;stroke:#00FF00;stroke-miterlimit:10;" d="M1799.273,1411.782c2.616-3.502,7.624-9.247,15.709-13.527
		c4.654-2.464,13.483-7.138,24-4.8c1.127,0.25,14.245,3.337,16.582,12.218c0.653,2.483-0.292,5.874-2.182,12.655
		c-1.334,4.785-2.563,9.193-5.236,14.836c-2.499,5.274-5.097,10.757-10.473,16.146c-3.21,3.217-6.367,5.355-11.345,8.727
		c-6.377,4.319-7.204,4.042-9.6,6.109c-5.957,5.137-5.322,10.704-8.727,18.764c-2.871,6.793-8.605,12.384-20.073,23.564
		c-11.271,10.988-15.447,12.408-17.018,19.2c-1.178,5.092,0.272,8.171-2.618,13.527c-2.789,5.169-7.369,8.29-8.727,9.164
		c-5.076,3.265-6.882,1.988-9.164,4.364c-4.304,4.481,0.801,10.398-1.309,19.636c-2.406,10.538-10.363,8.596-14.836,21.382
		c-2.551,7.291-1.585,12.555-6.545,16.582c-2.889,2.345-4.58,1.667-6.982,4.364c-2.979,3.344-1.751,5.93-3.927,13.527
		c-2.151,7.51-3.801,6.557-5.236,13.091c-1.357,6.178-0.2,8.476-2.618,11.782c-1.975,2.699-3.315,1.944-6.982,5.236
		c-4.038,3.626-4.121,6.076-7.418,10.036c-1.916,2.302-5.102,5.333-10.473,7.854"/>
	<path style="fill:none;stroke:#00FF00;stroke-miterlimit:10;" d="M1670.545,1702.836c-6.986-3.243-10.397-2.632-12.218-1.309
		c-3.346,2.43-1.011,7.033-3.927,15.709c-2.227,6.626-6.125,11.485-9.164,15.273c-4.461,5.562-5.702,5.25-7.854,9.164
		c-3.018,5.488-1.815,8.351-3.491,14.836c-2.264,8.763-5.545,7.732-10.473,18.764c-4.709,10.542-2.051,12.239-6.982,20.509
		c-2.99,5.015-4.526,5.328-9.6,13.091c-3.886,5.945-4.059,7.405-6.982,12.218c-4.607,7.586-9.18,12.185-18.327,21.382
		c-2.117,2.129-7.582,7.535-15.273,13.964c-6.493,5.428-6.238,4.618-10.473,8.291c-4.982,4.321-13.057,12.14-19.636,23.564
		c-2.916,5.062-4.395,7.699-4.8,11.782c-0.848,8.533,3.792,15.333,4.364,16.146c3.191,4.539,5.157,3.824,8.291,8.727
		c2.874,4.496,2.236,6.685,4.364,10.909c2.618,5.199,6.598,7.869,11.782,11.345c7.141,4.79,16.227,10.884,25.745,8.727
		c0.761-0.172,4.871-2.442,13.091-6.982c7.485-4.134,8.255-4.752,12.655-6.982c7.595-3.848,7.758-3.25,10.473-5.236
		c2.374-1.737,7.772-5.686,9.6-12.218c1.411-5.041-0.725-6.544,1.309-10.473c1.815-3.505,4.211-3.65,7.418-7.418
		c2.736-3.215,4.084-6.742,4.8-9.6"/>
	<path style="fill:none;stroke:#00FF00;stroke-miterlimit:10;" d="M1674.036,1889.6c2.26-0.241,7.094-0.423,10.036,2.618
		c1.065,1.101,2.548,3.313,1.745,14.4c-0.588,8.12-0.912,12.6-3.054,18.764c-3.24,9.321-8.138,15.302-9.6,17.018
		c-3.092,3.629-6.546,7.681-12.655,10.473c-6.701,3.062-12.919,2.927-16.145,2.618"/>
	<path style="fill:none;stroke:#00FF00;stroke-miterlimit:10;" d="M1757.382,993.309c-2.441,8.027-5.891,13.679-8.727,17.455
		c-3.526,4.693-8.46,8.801-18.327,17.018c-9.83,8.185-10.924,8.242-14.836,12.655c-5.283,5.958-5.213,8.025-9.6,10.909
		c-5.5,3.616-8.042,1.967-14.4,6.109c-3.454,2.25-7.604,4.954-8.291,9.6c-0.793,5.366,3.57,9.687,4.364,10.473
		c0.591,0.586,4.737,4.571,10.473,4.364c4.17-0.151,5.2-2.375,14.4-8.291c7.668-4.931,8.457-4.353,12.655-7.854
		c5.741-4.788,4.715-6.243,9.164-9.6c5.149-3.886,10.432-4.886,19.2-6.546c10.641-2.014,11.578-0.444,16.145-2.618
		c4.039-1.923,7.111-6.108,13.091-14.4c5.802-8.045,8.701-13.403,13.964-23.127c4.888-9.032,5.431-11.032,5.236-13.527
		c-0.489-6.277-5.153-9.336-3.927-13.964c0.869-3.283,4.161-5.311,6.982-6.545"/>
	<path style="fill:none;stroke:#00FF00;stroke-miterlimit:10;" d="M1735.564,228.8c-1.468-0.064-10.349-0.337-13.964,5.236
		c-2.172,3.348,0.37,6.155,0.873,16.145c0.41,8.153-1.066,8.422-0.436,15.709c0.588,6.809,1.073,12.412,5.236,16.582
		c4.043,4.049,9.588,4.777,13.091,5.236c5.571,0.731,6.177-0.767,13.091-0.436c5.86,0.281,10.56,0.617,14.836,3.491
		c5.684,3.82,5.366,9.551,9.6,10.036c3.351,0.384,6.088-2.915,6.546-3.491c3.025-3.806,2.888-9.905-0.436-15.273"/>
	<path style="fill:none;stroke:#00FF00;stroke-miterlimit:10;" d="M1797.091,1.891L1797.091,1.891c0,0-5.954,1.346-10.473,3.927
		c-2.557,1.461-2.618,2.154-7.854,6.982c-3.655,3.37-6.541,5.719-9.164,7.854c-8.851,7.206-9.938,6.759-12.218,10.036
		c-0.828,1.19-4.026,5.92-3.927,12.218c0.071,4.557,2.23,8.337,6.545,15.709c4.21,7.193,5.079,6.815,7.418,11.782
		c2.713,5.759,1.848,6.91,4.8,13.964c2.98,7.12,4.585,10.954,8.291,12.218c4.782,1.632,9.967-2.071,11.345-3.055
		c3.279-2.341,5.14-5.52,8.727-11.782c4.224-7.372,4.366-9.488,6.982-10.473c2.051-0.772,3.118,0.094,10.473,1.745
		c5.974,1.341,8.961,2.011,10.473,1.745c6.821-1.2,10.538-10.318,13.091-16.582c3.763-9.232,3.966-17.264,3.927-20.509
		c-0.069-5.75-0.189-15.749-6.982-24.873c-3.27-4.391-7.006-7.131-9.6-8.727"/>
	<path style="fill:none;stroke:#00FF00;stroke-miterlimit:10;" d="M1740.364,287.709"/>
	<path style="fill:none;stroke:#00FF00;stroke-miterlimit:10;" d="M1840.291,1773.527c3.237,1.061,7.903,1.973,12.218,0
		c4.58-2.094,4.427-5.455,10.473-10.909c2.997-2.704,6.361-4.566,13.091-8.291c2.987-1.653,6.501-3.599,11.345-5.673
		c9.865-4.224,12.531-3.539,17.018-6.982c2.279-1.748,5.126-4.637,7.418-9.6"/>
</g>
</svg>
