<?xml version="1.0" encoding="iso-8859-1"?>
<!-- Generator: Adobe Illustrator 24.2.3, SVG Export Plug-In . SVG Version: 6.00 Build 0)  -->
<svg version="1.1" xmlns="http://www.w3.org/2000/svg" xmlns:xlink="http://www.w3.org/1999/xlink" x="0px" y="0px"
	 viewBox="0 0 1840 2000" style="enable-background:new 0 0 1840 2000;" xml:space="preserve">
<g id="Layer_1" style="display:none;">
	<image style="display:inline;overflow:visible;" width="1840" height="2000" xlink:href="P13_1_2 - Copy.jpeg" >
	</image>
</g>
<g id="Layer_2">
	<path style="fill:none;stroke:#00FF00;stroke-miterlimit:10;" d="M0,1896c4.947-0.521,11.529-0.607,19,1
		c4.605,0.99,13.016,2.8,21,9c7.482,5.81,6.372,9.095,13,13c1.335,0.786,4.685,2.6,19,4c17.122,1.674,18.777-0.291,28,2
		c8.723,2.167,7.64,4.023,18,7c10.532,3.027,12.743,1.422,25,4c11.822,2.486,10.638,4.163,23,7c9.335,2.142,17.561,4.03,28,3
		c11.81-1.166,13.089-4.748,20-3c8.065,2.04,13.66,8.775,18,14c5.955,7.169,4.057,8.069,8,12c9.317,9.289,18.11,2.464,34,12
		c8.012,4.808,15.259,12.234,16,13c2.236,2.313,4,4.4,5.281,6"/>
</g>
</svg>
