<?xml version="1.0" encoding="iso-8859-1"?>
<!-- Generator: Adobe Illustrator 24.2.3, SVG Export Plug-In . SVG Version: 6.00 Build 0)  -->
<svg version="1.1" xmlns="http://www.w3.org/2000/svg" xmlns:xlink="http://www.w3.org/1999/xlink" x="0px" y="0px"
	 viewBox="0 0 2000 2000" style="enable-background:new 0 0 2000 2000;" xml:space="preserve">
<g id="Layer_1" style="display:none;">
	<image style="display:inline;overflow:visible;" width="2000" height="2000" xlink:href="P13_1_1 - Copy.jpeg" >
	</image>
</g>
<g id="Layer_2">
	<path style="fill:none;stroke:#00FF00;stroke-miterlimit:10;" d="M1378,1711c4.152,0.665,10.487,1.222,18,0
		c4.346-0.707,8.898-2.471,18-6c14.203-5.506,16.479-7.471,18-10c2.314-3.848,2.332-8.094,2-11"/>
	<path style="fill:none;stroke:#00FF00;stroke-miterlimit:10;" d="M1490,1701c-7.438,1.157-12.488,4.311-20,9
		c-7.591,4.739-11.915,8.959-16,13c-7.061,6.984-7.126,9.011-7,10c0.46,3.614,5.313,5.792,15,10c2.359,1.025,7.92,3.353,17,6
		c7.761,2.262,11.723,3.418,17,4c7.897,0.872,9.875-0.518,20-1c14.153-0.673,28.013,1.199,28,2c-0.01,0.631-8.634,1.388-9,0
		c-0.46-1.742,12.989-3.446,20-14c1.334-2.008,3.778-6.358,4-12c0.417-10.614-7.307-18.81-7-19c0.283-0.175,5.577,7.56,5,8
		c-0.675,0.515-6.365-11.215-18-15c-2.172-0.706-7.115-0.804-17-1c-6.164-0.122-6.999,0.038-17,0
		C1491.629,1700.95,1492.179,1700.661,1490,1701z"/>
	<path style="fill:none;stroke:#00FF00;stroke-miterlimit:10;" d="M2000,1902c-2.204-1.535-5.573-3.561-10-5
		c-6.836-2.222-8.954-0.692-16-2c-4.028-0.748-9.74-3.509-21-9c-10.772-5.253-9.561-5.066-12-6c-10.705-4.099-20.61-2.567-30-1
		c-22.729,3.792-26.242,11.625-35,8c-7.949-3.291-7.305-10.675-18-15c-2.975-1.203-6.262-1.941-16-2
		c-14.542-0.088-24.028,1.456-30,2c-10.499,0.957-19.666-1.029-38-5c-39.326-8.518-41.647-15.658-72-20
		c-11.474-1.641-22.533-3.223-37-2c-7.595,0.642-11.49,1.665-22,2c-10.869,0.346-12.63-0.559-23,0c-11.09,0.598-12.301,1.807-21,2
		c-7.444,0.165-12.612-0.587-22-2c-24.264-3.652-25.43-7.158-39-7c-8.565,0.1-10.251,1.522-20,1c-7.711-0.413-13.908-0.744-21-4
		c-6.263-2.875-6.89-5.123-12-6c-5.79-0.994-7.626,1.438-15,2c-1.145,0.087-9.58,0.643-18-3c-7.58-3.279-6.858-6.375-17-13
		c-3.724-2.433-9.293-6.008-17-8c-7.993-2.065-14.531-1.457-19-1c-16.796,1.716-20.303,8.457-31,6c-4.813-1.105-8.963-3.586-13-6
		c-1.181-0.706-6.137-3.719-12-9c-5.527-4.979-5.396-6.151-9-9c-4.573-3.615-8.726-4.845-16-7c-11.156-3.305-20.444-3.872-25-4
		c-10.443-0.293-9.645,1.339-18,1c-11.97-0.486-14.302-3.865-30-7c-12.539-2.504-11.137-0.366-25-3c-16.452-3.126-28-7-28-7
		c-9.015-3.024-13.397-5.31-20-4c-4.305,0.854-6.042,2.541-10,2c-3.931-0.537-6.797-2.827-12-8c-5.755-5.722-8.632-8.583-12-13
		c-7.953-10.429-19.72-15.463-35-22c-20.577-8.802-25.456-5.189-41-15c-5.249-3.313-6.115-4.623-16-11
		c-10.351-6.678-12.45-7.207-23-14c-11.542-7.431-10.8-7.94-18-12c-6.703-3.781-11.807-5.856-22-10c-11.759-4.781-17.638-7.172-22-8
		c-8.393-1.594-14.076-0.614-30,2c-37.381,6.137-34.456,5.4-37,6c-23.645,5.581-41.006,13.752-52,19
		c-25.007,11.937-26.313,16.688-46,23c-23.661,7.587-35.184,5.025-39,4c-4.661-1.252-6.751-2.609-18-6
		c-14.393-4.338-16.391-3.75-22-6c-4.711-1.89-7.462-3.973-25-22c-19.478-20.021-21.878-23.405-30-28c-3.699-2.092-8.616-4.454-16-8
		c-14.464-6.946-15.802-6.827-20-10c-4.141-3.13-3.632-3.846-15-17c-10.344-11.969-10.386-10.937-14-16
		c-5.592-7.833-4.33-8.675-12-21c-6.348-10.2-7.57-10.199-10-16c-3.186-7.606-1.811-9.344-5-18c-1.852-5.028-4.235-9.019-9-17
		c-6.798-11.387-8.735-12.661-13-21c-3.322-6.496-4.983-9.744-6-14c-3.245-13.584,3.505-17.453,1-31
		c-1.901-10.278-6.209-10.337-6-19c0.194-8.031,3.95-10.209,3-18c-0.7-5.737-3.393-9.935-6-14c-5.398-8.415-8.364-7.655-11-13
		c-3.512-7.12,0.843-10.308,1-26c0.112-11.262-2.124-11.147-2-24c0.085-8.76,1.196-15.93,2-21c1.689-10.644,2.87-11.651,4-21
		c0.3-2.484,0.534-7.656,1-18c0.626-13.878,0.518-17.124,0-21c-0.826-6.175-1.626-5.964-2-11c-0.626-8.422,1.151-15.201,2-18
		c2.865-9.449,6.15-9.857,7-17c0.7-5.88-1.295-7.549-2-14c-1.292-11.831,3.736-21.602,6-26c5.872-11.41,10.633-10.222,18-24
		c3.579-6.694,5.159-12.032,6-16c1.405-6.635,3.108-14.675-1-21c-3.506-5.399-7.268-3.422-9.764-7.909
		c-4.481-8.057,6.635-16.246,3.764-31.091c-1.023-5.29-3.357-9.013-4-10c-3.955-6.067-7.444-5.972-11-10
		c-7.257-8.219,0.537-16.237-6-31c-2.734-6.176-4.413-5.483-9-15c-0.856-1.775-3.637-7.691-6-16c-1.875-6.593-2.583-11.729-4-22
		c-1.278-9.263-1.858-16.247-2-18c-0.748-9.239-0.88-16.138-1-24c-0.731-47.8,0.281-45.766-1-52c-1.25-6.081-3.073-12.197-2-21
		c0.829-6.8,2.443-7.471,3-15c0.375-5.077-0.083-9.718-1-19c-0.855-8.651-1.27-8.972-1-12c0.552-6.188,2.809-10.711,5-15
		c3.476-6.804,4.742-6.529,10-15c3.744-6.031,6.209-11.176,9-17c3.941-8.224,3.417-8.289,6-13c3.718-6.782,5.633-8.162,10-15
		c4.893-7.663,4.488-9.062,9-17c4.494-7.907,8.578-12.997,15-21c4.467-5.567,10.213-12.675,19-21c2.82-2.671,9.122-8.471,18-15
		c5.06-3.721,6.965-4.744,15-10c24.771-16.205,23.844-17.724,31-20c6.459-2.054,5.414-0.244,26-3c7.11-0.952,14.782-1.979,24-4
		c12.87-2.822,22.382-6.185,36-11c14.768-5.221,15.062-6.079,25-9c10.765-3.164,12.93-2.895,21-6c12.41-4.775,12.361-7.362,19-8
		c10.261-0.987,18.825,4.383,23,7c4.859,3.046,8.557,5.365,11,10c3.841,7.287-0.296,11.052,3,20c0.67,1.818,3.845,10.44,12,14
		c5.949,2.597,11.853,1.325,18,0c4.817-1.038,7.863-1.695,11-4c7.997-5.878,6.187-14.832,11-16c4.12-1,5.963,5.439,17,10
		c3.922,1.621,7.66,3.106,12,2c5.307-1.352,8.444-5.796,10-8c4.167-5.903,2.327-8.538,6-13c3.634-4.414,8.713-5.816,13-7
		c7.694-2.124,14.041-1.419,18-1c29.888,3.165,25.215,0.791,35,3c7.202,1.626,21.681,5.609,37,15c4.945,3.031,5.444,3.847,21,14
		c10.316,6.733,14.165,9.03,20,11c4.529,1.529,10.879,3.674,19,3c6.289-0.522,6.51-2.142,17-4c7.373-1.306,7.851-0.609,15-2
		c6.278-1.221,5.639-1.705,15-4c11.225-2.751,13.28-2.333,16-5c3.882-3.806,2.648-7.554,6-9c3.491-1.505,6.799,1.71,13,4
		c4.051,1.496,9.958,2.827,18,2"/>
</g>
</svg>
