<?xml version="1.0" encoding="iso-8859-1"?>
<!-- Generator: Adobe Illustrator 24.2.3, SVG Export Plug-In . SVG Version: 6.00 Build 0)  -->
<svg version="1.1" xmlns="http://www.w3.org/2000/svg" xmlns:xlink="http://www.w3.org/1999/xlink" x="0px" y="0px"
	 viewBox="0 0 1840 2000" style="enable-background:new 0 0 1840 2000;" xml:space="preserve">
<g id="Layer_1" style="display:none;">
	<image style="display:inline;overflow:visible;" width="1840" height="2000" xlink:href="P13_2_2 - Copy.jpeg" >
	</image>
</g>
<g id="Layer_2">
	<path style="fill:none;stroke:#00FF00;stroke-miterlimit:10;" d="M1055,811c-4.891,2.499-6.187,8.952-7,13
		c-0.48,2.388-1.923,10.13,2,18c0.983,1.973,1.328,1.996,11,12c6.918,7.156,8.88,9.356,13,12c4.589,2.945,7.668,4.922,11,4
		c5.042-1.395,7.47-8.542,8-13c0.618-5.206-1.451-5.918-1-12c0.478-6.443,2.876-6.665,3-12c0.184-7.906-4.936-13.779-6-15
		c-1.307-1.5-3.82-4.319-8-6c-3.474-1.397-4.732-0.654-14-1C1057.942,810.662,1057.193,809.879,1055,811z"/>
	<path style="fill:none;stroke:#00FF00;stroke-miterlimit:10;" d="M1416,1463c2.298-3.127,5.408-8.192,7-15
		c1.534-6.56,0.975-11.817,0-21c-0.778-7.321-1.201-5.777-3-18c-1.711-11.626-1.562-14.616-4-20c-2.153-4.754-3.005-4.047-6-10
		c-3.615-7.186-2.768-8.998-6-17c-2.367-5.86-2.826-4.899-9-17c-4.936-9.674-4.337-9.69-7-14c-4.222-6.834-8.614-11.467-12-15
		c-6.129-6.396-6.83-5.668-13-12c-7.55-7.749-7.659-10.028-13-15c-6.02-5.603-7.813-4.506-18-11c-18.813-11.992-17.831-19.005-32-26
		c-2.22-1.096-6.134-2.844-9-7c-2.358-3.42-2.019-5.588-4-12c-1.791-5.796-3.862-9.833-6-14c-3.363-6.554-5.221-10.176-9-14
		c-1.685-1.706-1.789-1.464-11-8c-9.727-6.902-9.907-7.381-13-9c-2.535-1.327-6.023-2.551-13-5c-5.013-1.76-7.781-2.628-15-5
		c-8.314-2.732-12.471-4.097-15-5c-17.17-6.128-19.108-8.606-20-10c-2.737-4.273-1.505-7.503-5-10c-3.365-2.405-5.777-0.318-10-2
		c-5.058-2.015-4.604-6.206-11-15c-6.744-9.274-10.417-8.971-11-14c-0.648-5.594,3.799-6.812,4-15c0.039-1.577,0.104-6.916-3-12
		c-2.415-3.956-4.301-3.746-8-8c-2.833-3.257-4.26-6.549-7-13c-4.792-11.283-3.036-11.605-6-16c-4.497-6.668-7.816-4.855-13-12
		c-2.47-3.404-1.479-3.488-7-15c-2.923-6.095-3.397-6.481-6-12c-3.302-7.002-4.953-10.503-6-14c-3.876-12.952,0.882-17.419-4-26
		c-0.172-0.302-0.014-0.009-8-9c-8.853-9.967-10.015-11.417-13-13c-4.586-2.432-5.481-0.938-12-4c-4.406-2.07-7.87-3.697-10-7
		c-3.235-5.017,0.056-8.555-1-16c-0.608-4.285-1.989-5.164-14-22c-7.635-10.701-6.915-10.119-12-17c-8.442-11.423-12-16-12-16
		c-6.793-8.74-7.955-9.707-9-13c-1.452-4.579-0.142-5.659,0-17c0.123-9.857-0.766-17.167-1-19c-0.745-5.827-1.124-5.226-3-16
		c-2.149-12.341-1.578-12.71-3-16c-1.58-3.654-3.078-5.034-11-14c-7.636-8.643-11.454-12.964-12-14c-5.224-9.908,0.339-13.991-4-27
		c-1.649-4.943-4.766-9.628-11-19c-1.133-1.703-4.991-7.446-11-15c-10.238-12.871-11.699-12.118-17-20c-5.017-7.46-3.48-7.795-11-21
		c-4.798-8.425-9.129-14.796-12-19c-7.277-10.656-7.628-9.781-13-18c-6.365-9.737-5.567-10.498-13-22c-4.886-7.56-6.152-8.657-9-14
		c-3.541-6.643-4.526-10.465-7-17c-8.351-22.056-13.734-22.355-16-36c-1.238-7.458,0.463-6.81-1-19c-0.994-8.282-1.801-15.012-5-23
		c-3.864-9.649-6.651-9.733-8-17c-1.605-8.641,1.959-10.551,0-17c-1.042-3.429-3.047-6.173-16-16c-7.63-5.788-14.068-10.248-21-15
		c-15.112-10.358-16.832-11.312-21-15c-3.412-3.019-8.685-7.736-14-15c-6.509-8.895-5.396-11.106-12-21
		c-2.002-2.999-2.345-3.157-15-18c-12.98-15.225-11.857-14.165-17-20c-9.623-10.919-10.828-11.535-17-19
		c-10.086-12.198-8.148-12.099-13-17c-15.184-15.337-35.695-17.857-37-18c-13.394-1.464-15.241,3.32-26,0
		c-7.501-2.315-12.733-6.531-22-14c-11.374-9.167-9.976-10.629-17-15c-3.903-2.429-17.597-10.95-31-7c-7.548,2.224-7.429,6.172-15,8
		c-8.094,1.955-17.468-0.326-24-5c-10.502-7.515-6.718-16.252-19-39c-3.187-5.903-7.125-11.602-15-23
		c-4.93-7.136-9.917-14.321-17-23c-5.318-6.517-9.212-10.678-17-19c-16.809-17.963-17.905-17.401-28-29
		c-10.029-11.523-9.908-13.181-16-18c-6.76-5.347-8.95-4.92-23-13c-7.364-4.235-14.588-8.389-23-15c-1.785-1.403-10.3-8.163-20-19
		c-6.074-6.786-9.998-12.25-17-22c-7.096-9.88-8.846-13.185-15-21c-4.88-6.197-9.183-10.981-12-14"/>
	<path style="fill:none;stroke:#00FF00;stroke-miterlimit:10;" d="M576,30c5.214-2.97,6.737-3.357,7-3
		c0.747,1.015-9.708,6.634-14,18c-2.228,5.901-2.112,11.54-2,17c0.101,4.933,0.759,8.42,2,15c1.424,7.548,2.173,11.376,4,14
		c0.63,0.905,5.621,7.859,13,8c5.201,0.099,8.8-3.267,16-10c4.771-4.462,8.577-8.021,12-14c6.505-11.363,7.615-24.46,6-25
		c-1.291-0.431-5.192,6.869-5,7c0.248,0.169,10.403-9.61,11-22c0.112-2.319,0.284-7.379-3-12c-3-4.222-9.007-8.248-16-7
		c-8.403,1.5-11.784,9.465-12,10"/>
</g>
</svg>
