<?xml version="1.0" encoding="iso-8859-1"?>
<!-- Generator: Adobe Illustrator 24.2.3, SVG Export Plug-In . SVG Version: 6.00 Build 0)  -->
<svg version="1.1" xmlns="http://www.w3.org/2000/svg" xmlns:xlink="http://www.w3.org/1999/xlink" x="0px" y="0px"
	 viewBox="0 0 2000 2000" style="enable-background:new 0 0 2000 2000;" xml:space="preserve">
<g id="Layer_1" style="display:none;">
	<image style="display:inline;overflow:visible;" width="2000" height="2000" xlink:href="N10_2_2 - Copy.jpeg" >
	</image>
</g>
<g id="Layer_2">
	<path style="fill:none;stroke:#00FF00;stroke-miterlimit:10;" d="M0,119c6.623,4.316,16.506,11.65,26,23
		c13.311,15.913,12.303,23.514,24,32c14.117,10.241,22.601,4.26,33,15c7.246,7.484,4.837,12.155,12,27
		c9.311,19.297,16.659,18.197,26,35c10.493,18.875,10.818,37.525,11,48c0.409,23.497-6.253,40.697-8,45
		c-6.878,16.939-16.35,27.989-20,32c-11.436,12.568-24.857,21.034-47,35c-9.539,6.017-12.448,7.371-16,12
		c-6.195,8.075-5.391,14.444-10,37c-3.044,14.897-4.634,22.478-8,29c-6.313,12.232-16.056,19.703-23,24"/>
	<path style="fill:none;stroke:#00FF00;stroke-miterlimit:10;" d="M0,675c1.552,7.11,4.577,17.624,11,29
		c8.333,14.76,14.115,16.319,19,29c5.758,14.947-0.441,17.539,5,33c6.016,17.095,14.949,17.778,18,33
		c2.054,10.246-1.647,11.671-2,26c-0.575,23.303,9.048,26.19,10,48c0.906,20.771-7.69,21.165-7,44c0.427,14.13,3.691,13.08,8,39
		c2.77,16.664,1.563,17.955,5,43c2.511,18.294,3.766,27.442,6,34c7.625,22.382,16.848,23.203,18,38c1.031,13.234-6.299,13.187-11,36
		c-1.958,9.504-0.575,8.971-3,44c-1.445,20.872-2.185,24.655-3,28c-4.19,17.2-11.812,28.796-14,32c-2.937,4.301-11.207,15.634-25,25
		c-2.652,1.801-3.022,1.841-25,15c-4.238,2.538-7.715,4.626-10,6"/>
	<path style="fill:none;stroke:#00FF00;stroke-miterlimit:10;" d="M0,1690c3.8,0.974,9.083,2.884,14,7
		c6.967,5.833,8.156,11.875,13,21c2.805,5.284,8.537,12.189,20,26c16.023,19.304,16.686,17.443,21,25c4.305,7.541,11.35,19.881,9,34
		c-1.069,6.424-3.112,7.385-6,20c-2.235,9.765-3.353,14.647-2,19c2.547,8.197,9.179,7.374,19,18c2.034,2.2,16.13,17.452,12,29
		c-1.592,4.451-4.593,4.721-5,9c-0.664,6.983,7.08,8.901,8,17c0.226,1.988-0.109,3.027-6,17c-5.662,13.43-5.83,13.603-6,15
		c-1.189,9.755,5.451,13.958,8,24c1.61,6.341,1.782,15.775-5,29"/>
</g>
</svg>
