<?xml version="1.0" encoding="iso-8859-1"?>
<!-- Generator: Adobe Illustrator 24.2.3, SVG Export Plug-In . SVG Version: 6.00 Build 0)  -->
<svg version="1.1" xmlns="http://www.w3.org/2000/svg" xmlns:xlink="http://www.w3.org/1999/xlink" x="0px" y="0px"
	 viewBox="0 0 2000 2000" style="enable-background:new 0 0 2000 2000;" xml:space="preserve">
<g id="Layer_1" style="display:none;">
	<image style="display:inline;overflow:visible;" width="2000" height="2000" xlink:href="N10_3_1 - Copy.jpeg" >
	</image>
</g>
<g id="Layer_2">
	<path style="fill:none;stroke:#00FF00;stroke-miterlimit:10;" d="M1802,1625c13.577-2.086,21.427,1.004,26,4
		c7.766,5.088,6.273,10.031,18,23c5.123,5.666,10.769,11.91,20,17c9.64,5.316,15.907,5.358,16,8c0.13,3.691-11.923,8.546-24,9
		c-9.634,0.362-14.802-2.244-30-6c-10.519-2.6-19.248-4.12-25-5"/>
	<path style="fill:none;stroke:#00FF00;stroke-miterlimit:10;" d="M2000,1326c-5.055,0.441-12.573,0.494-21-2
		c-16.807-4.974-26.1-16.786-30-14c-3.585,2.561,3.146,13.339-1,17c-3.709,3.275-11.204-3.486-29-8c-11.426-2.898-11.533-0.921-23-4
		c-16.206-4.351-16.342-8.393-26-9c-9.784-0.615-10.246,3.496-27,6c-12.134,1.814-21.864,3.268-27.339-2.217
		c-4.196-4.203-1.884-8.465-7.661-15.783c-1.734-2.197-7.095-8.99-12-8c-6.216,1.254-4.765,13.609-12.094,16.489
		c-3.815,1.499-9.23-1.477-19.906-7.489c-10.849-6.11-17.681-9.958-17-13c1.023-4.57,17.503-0.616,21.712-8.216
		c2.786-5.03-3.218-8.951-6.712-24.784c-0.623-2.825-1.082-10.883-2-27c-0.601-10.547,0.35-13.6,1-16
		c1.065-3.936,3.525-13.028,11-17c1.599-0.85,5.077-1.503,12.033-2.811c4.034-0.758,8.116-1.382,11.021-1.823
		c8.976-1.364,10.403-1.336,12.778-2.824c2.933-1.836,2.61-3.037,6.167-5.542c2.828-1.991,6.393-3.599,9-4
		c7.341-1.13,10.26,6.91,22,13c4.266,2.213,16.618,8.62,25,4c6.979-3.847,5.062-11.952,11-14c6.536-2.254,10.872,6.871,24,10
		c5.595,1.333,5.958-0.05,22-1c21.979-1.302,22.048,1.25,33-1c11.845-2.434,21.056-7.329,26-10c5.908-3.192,10.603-6.432,14-9"/>
	<path style="fill:none;stroke:#00FF00;stroke-miterlimit:10;" d="M2000,59c-4.555-2.044-11.4-4.792-20-7
		c-12.452-3.197-18.513-2.677-29-4c-14.747-1.86-32.083-4.047-47-15c-11.471-8.422-12.57-15.464-26-21
		c-3.648-1.504-10.443-3.819-19-4c-12.518-0.265-21.795,4.184-26,6c-15.834,6.838-21.338,2.938-73,7
		c-29.729,2.337-22.985,3.242-48,5c-41.052,2.885-47.225-0.393-77,4c-20.164,2.975-22.18,5.194-35,5
		c-19.989-0.303-24.136-5.834-46-5c-13.478,0.514-13.16,2.664-29,3c-11.923,0.253-20.243-0.793-22,3c-1.917,4.138,6.406,8.797,5,15
		c-1.35,5.953-10.602,8.653-19,11c-19.455,5.437-32.34,3.002-33,6c-0.562,2.555,8.113,7.433,17,10c18.86,5.447,37.6,0.172,45-2
		c12.318-3.615,14.837-6.716,21-5c9.87,2.749,15.54,14.082,18,19c2.426,4.849,3.829,7.655,3,11c-1.49,6.013-8.321,6.214-17,13
		c-7.058,5.518-5.245,7.499-16,20c-8.353,9.71-12.53,14.564-18,17c-10.235,4.557-13.957-1.064-30,2c-13.803,2.636-13.028,7.176-24,8
		c-13.663,1.027-15.347-5.976-30-5c-11.493,0.765-13.964,5.307-22,3c-7.684-2.206-8.214-7.158-16-9c-6.577-1.556-8.887,1.342-19,3
		c-13.534,2.218-14.492-2.136-31-1c-14.289,0.984-15.119,4.353-24,3c-10.366-1.579-12.12-6.609-23-11c-12.882-5.2-15.443-0.174-36-3
		c-18.764-2.579-19.098-7.124-40-10c-6.704-0.922-16.523-2.214-29-1c-18.987,1.847-19.004,7.05-33,8
		c-19.173,1.301-21.529-8.302-49-10c-12.387-0.765-19.31-1.193-28,2c-10.363,3.808-14.06,9.393-26,11c-3.835,0.516-9.531,1.219-16-1
		c-7.732-2.653-7.939-6.52-17-11c-6.25-3.09-11.648-3.967-18-5c-6.54-1.063-12.87-2.092-20-1c-12.004,1.839-12.037,7.509-30,15
		c-7.149,2.981-9.705,3.151-21,8c-11.102,4.766-14.459,7.103-16,11c-1.868,4.724-0.502,10.309,2,14c5.276,7.783,16.535,8.515,24,9
		c11.519,0.749,13.436-2.432,20,0c8.468,3.138,7.924,9.411,16,14c6.594,3.746,9.129,0.799,29,1c17.748,0.18,26.622,0.27,35,2
		c5.458,1.127,10.33,2.586,15,0c5.723-3.169,5.762-9.431,10-10c4.888-0.656,6.677,7.427,13,8c6.221,0.564,7.522-6.985,16-9
		c7.58-1.802,9.452,3.54,21,4c10.177,0.405,10.719-3.663,20-3c7.245,0.518,7.478,3.037,22,8c7.866,2.688,13.529,4.58,21,5
		c7.643,0.43,13.936-0.862,18-2c7.224,1.596,17.036,2.533,23-3c4.221-3.915,3.158-7.957,7-10c6.489-3.45,12.869,6.3,29,10
		c11.963,2.744,12.985-1.578,24,2c10.153,3.298,12.026,7.861,21,9c7.416,0.941,9.219-1.784,18-3c20.088-2.781,25.051,9.488,39,5
		c10.304-3.315,19.223-13.751,22-17c5.054-5.913,4.947-7.925,8-9c7.362-2.592,14.64,6.761,35,21c21.035,14.711,24.912,12.87,26,12
		c2.19-1.752,0.202-5.272,2-15c1.327-7.178,2.096-11.343,5-13c5.158-2.943,11.445,5.226,26,10c3.368,1.105,12.924,4.142,24,3
		c17.417-1.796,21.299-12.143,34-10c1.913,0.323,2.045,0.595,16,8c13.001,6.9,19.502,10.349,23,12c16.153,7.623,18.536,5.152,34,12
		c5.9,2.613,12.6,6.742,26,15c22.975,14.159,25.309,17.185,35,21c8.089,3.185,14.719,4.327,31,6c29.313,3.012,51.659,3.813,78,5
		c35.349,1.593,42.748,2.297,49,3c15.771,1.774,30.122,3.389,48,8c0,0,38.464,9.921,79,39c9.359,6.714,16.509,12.914,18,22
		c1.188,7.236-2.105,10.873-1,23c0.26,2.849,0.912,9.466,4,17c4.953,12.084,10.08,11.661,14,22c3.388,8.936-0.181,9.939,3,23
		c3.236,13.285,7.358,14.012,7,22c-0.393,8.761-5.694,15.514-10,21c-6.786,8.646-9.375,7.021-14,14c-7.137,10.77-2.482,16.916-9,24
		c-6.16,6.694-11.777,2.791-21,9c-10.953,7.373-7.203,15.684-17,26c-4.389,4.621-6.499,4.383-40,16c-21.024,7.29-23.863,8.656-31,9
		c-10.008,0.482-17.316-1.585-29-5c-21.667-6.333-24.986-11.142-41-16c-17.76-5.387-32.549-5.197-42-5
		c-24.798,0.517-44.976,7.132-55,11c-13.942,5.38-18.898,9.559-34,13c-11.318,2.579-24.404,3.849-26,4c-9.16,0.867-8.972,0.294-17,1
		c-18.022,1.586-29.319,2.58-39,10c-7.297,5.593-5.124,8.281-13,14c-6.982,5.07-13.079,6.144-27,9c-6.823,1.4-24.461,5.019-37,8
		c-22.578,5.368-23.957,7.559-34,8c-13.865,0.609-16.71-3.327-33-6c-30.73-5.043-58.453,2.753-70,6c-16.273,4.576-18.137,7.606-31,9
		c-10.457,1.133-13.628-0.392-39-3c-34.185-3.514-41.61-2.1-46-1c-12.422,3.112-10.79,6.275-27,12c-17.531,6.192-32.695,7.174-47,8
		c-23.332,1.348-23.485-2.034-38,1c-14.515,3.034-16.904,6.948-31,8c-12.802,0.956-15.901-1.894-25,1c-8.451,2.688-8.806,6.11-21,14
		c-8.179,5.293-18.056,11.684-31,14c-14.665,2.624-16.856-2.92-29,1c-6.335,2.045-11.89,6.363-23,15
		c-9.297,7.227-13.986,10.944-16,16c-2.879,7.227-3.071,18.404,3,24c7.176,6.614,16.399-0.746,26,6c7.814,5.49,5.556,13.071,12,19
		c10.021,9.219,29.225,3.532,38,1c39.465-11.386,80.096-18.265,120-28c28.831-7.034,45.966-10.025,60-12
		c28.376-3.994,45.762-4.074,53-4c23.255,0.237,11.124,2.766,57,8c5.131,0.585,13.619,1.505,19,8c4.403,5.315,6.608,14.22,3,19
		c-3.789,5.02-10.736,1.181-26,3c-16.942,2.019-18.692,7.978-37,10c-10.971,1.212-9.789-0.989-21,0
		c-12.114,1.069-15.398,3.807-41,12c-15.631,5.002-23.446,7.503-31,9c-8.927,1.768-15.942,2.455-28,6
		c-11.008,3.236-14.785,5.494-17,7c-2.773,1.886-15.909,10.82-14,20c1.191,5.725,7.835,9.631,13,11c12.123,3.214,20.028-6.503,27-2
		c4.516,2.917,2.235,7.662,7,12c5.447,4.958,12.676,2.623,26,2c21.171-0.99,20.607,4.078,36,2c14.062-1.898,13.557-5.996,30-9
		c13.154-2.403,23.863-1.678,33-1c23.527,1.745,22.99,6.634,35,5c16.578-2.255,17.602-11.569,37-14c2.984-0.374,2.652-0.115,23,0
		c3.823,0.022,11.549,0.014,27,0c61.149-0.057,57.755-2.212,68,0c13.437,2.901,20.946,6.969,33,4c7.391-1.82,8.576-4.336,19-7
		c4.805-1.228,15.129-3.768,27-2c11.826,1.762,12.289,5.878,22,8c13.711,2.996,17.711-4.135,42-9c20.084-4.023,19.272,0.468,40-4
		c19.785-4.265,22.101-8.696,33-7c11.293,1.757,15.85,7.611,27,6c6.741-0.974,6.462-3.314,15-6c9.216-2.899,15.378-2.009,35-1
		c13.461,0.692,20.191,1.038,26,1c22.184-0.145,23.011-3.657,43-4c21.979-0.377,28.053,3.747,35-2c7.451-6.165,4.716-14.429,13-20
		c2.071-1.392,6.525-3.757,23-2c20.724,2.21,35.97,8.329,40,10c8.328,3.453,19.684,9.024,32,18"/>
</g>
</svg>
