<?xml version="1.0" encoding="iso-8859-1"?>
<!-- Generator: Adobe Illustrator 24.2.3, SVG Export Plug-In . SVG Version: 6.00 Build 0)  -->
<svg version="1.1" xmlns="http://www.w3.org/2000/svg" xmlns:xlink="http://www.w3.org/1999/xlink" x="0px" y="0px"
	 viewBox="0 0 2000 2000" style="enable-background:new 0 0 2000 2000;" xml:space="preserve">
<g id="Layer_1" style="display:none;">
	<image style="display:inline;overflow:visible;" width="2000" height="2000" xlink:href="N10_4_1 - Copy.jpeg" >
	</image>
</g>
<g id="Layer_2">
	<path style="fill:none;stroke:#00FF00;stroke-miterlimit:10;" d="M2000,232c-4.362,0.812-10.99,2.119-19,4
		c-24.123,5.665-25.527,8.258-36,10c-26.136,4.349-31.709-9.419-53-3c-7.434,2.241-13.623,6.494-26,15
		c-17.481,12.013-16.76,15.64-28,21c-10.896,5.196-11.337,1.675-34,9c-12.261,3.963-22.426,8.321-24,9
		c-14.817,6.392-14.243,7.773-22,10c-13.729,3.941-17.554,0.196-27,5c-6.83,3.474-15.379,10.797-14,16c1.61,6.074,14.868,2.16,31,11
		c15.395,8.436,13.653,17.663,27,22c9.181,2.984,11.958-0.748,30,0c7.878,0.327,10.615,1.173,27,4c28.884,4.983,43.327,7.474,57,8
		c16.126,0.62,18.965-1.003,32,1c12.197,1.874,14.844,4.084,25,4c11.949-0.099,13.213-3.198,24-2c8.27,0.919,16.311,3.716,20,5
		c4.137,1.44,7.538,2.882,10,4"/>
	<path style="fill:none;stroke:#00FF00;stroke-miterlimit:10;" d="M2000,983c-4.07,1.311-10.316,2.887-18,3
		c-10.698,0.158-13.186-2.682-23-2c-9.569,0.664-16.849,4.034-21,6c-3.98,1.885-8.374,4.949-17,11c-12.229,8.578-11.904,9.17-17,12
		c-9.04,5.019-17.043,7.033-21,8c-8.505,2.079-10.241,1.203-23,3c-7.453,1.05-15.687,2.209-25,5c-16.252,4.87-15.349,8.583-29,12
		c-13.717,3.434-16.876,0.247-26,5c-5.279,2.75-5.285,4.371-16,14c-11.038,9.92-16.557,14.88-23,18c-9.905,4.797-11.541,1.626-30,7
		c-10.915,3.177-16.962,4.938-24,10c-3.247,2.336-11.843,8.674-17,20c-4.385,9.632-1.274,11.866-5,17c-6.75,9.3-22.189,9.165-41,9
		c-12.748-0.112-12.813-1.449-29-2c-3.791-0.129-17.227-0.513-35,1c-20.26,1.724-30.521,2.695-37,8c-3.181,2.605-7.121,8.737-15,21
		c-7.901,12.297-7.769,13.892-12,18c-7.855,7.625-11.544,5.267-21,13c-9.222,7.542-6.541,10.462-16,19
		c-11.331,10.227-19.148,9.62-21,17c-1.881,7.497,4.574,14.548,5,15c6.563,6.971,16.767,6.461,26,6c10.538-0.527,17.948-3.086,29-7
		c14.843-5.257,22.881-8.104,32-15c11.135-8.421,12.266-14.095,21-16c8.769-1.913,16.57,1.858,21,4c9.947,4.808,10.82,9.651,26,23
		c9.735,8.561,14.603,12.842,20,14c7.893,1.694,13.09-1.357,32-9c4.277-1.729,17.275-6.982,29-11c28.374-9.724,36.084-7.689,44-17
		c6.35-7.469,6.309-14.566,11-15c6.367-0.59,7.529,12.381,19,19c9.367,5.405,14.268,0.031,38,1c14.31,0.584,13.618,2.583,34,4
		c25.096,1.745,30.803-0.961,34-3c7.323-4.67,11.782-12.411,15-18c5.999-10.417,4.162-13.358,9-18c5.62-5.392,12.825-5.96,26-7
		c12.599-0.994,22.924,0.244,28,1c17.708,2.639,17.964,6.338,27,5c7.673-1.136,10.114-4.193,23-7c5.43-1.183,9.98-1.726,13-2"/>
	<path style="fill:none;stroke:#00FF00;stroke-miterlimit:10;" d="M2000,1420c-5.792-1.664-14.279-3.074-23,0
		c-8.477,2.988-10.193,7.752-19,13c-10.384,6.188-14.67,3.54-31,8c-18.081,4.938-17.234,9.388-35,15
		c-14.355,4.534-16.772,2.218-38,6c-15.646,2.787-15.074,4.178-45,12c-10.596,2.77-28.704,7.471-52,12
		c-9.217,1.792-23.667,4.574-43,7c-25.618,3.215-38.428,4.822-48,4c-17.51-1.504-25.778-5.805-33,0c-6.144,4.939-5.705,12.51-15,18
		c-3.751,2.216-4.3,1.265-11,4c-7.637,3.118-12.558,6.653-20,12c-7.838,5.632-12.938,10.351-19,16c-8.136,7.583-12.221,11.447-13,15
		c-1.282,5.843,1.795,11.308,8,22c6.083,10.482,9.125,15.724,14,19c8.102,5.445,16.737,4.923,32,4c2.876-0.174,8.103-0.581,31-5
		c15.955-3.079,23.933-4.619,29-6c23.045-6.281,21.732-10.574,38-14c16.245-3.421,18.167,0.73,41-3c9.449-1.544,16.191-2.645,25-6
		c12.737-4.851,15.334-8.906,35-18c12.885-5.958,17.188-6.723,19-7c10.161-1.556,12.461,1.413,25,1c11.248-0.37,19.968-3.107,26-5
		c12.45-3.908,12.279-6.156,23-9c9.339-2.478,16.842-2.728,25-3c12.69-0.423,12.769,1.054,27,1c16.83-0.063,19.832-2.141,28,0
		c8.82,2.312,15.146,7.309,19,11"/>
</g>
</svg>
