<?xml version="1.0" encoding="iso-8859-1"?>
<!-- Generator: Adobe Illustrator 24.2.3, SVG Export Plug-In . SVG Version: 6.00 Build 0)  -->
<svg version="1.1" xmlns="http://www.w3.org/2000/svg" xmlns:xlink="http://www.w3.org/1999/xlink" x="0px" y="0px"
	 viewBox="0 0 2000 2000" style="enable-background:new 0 0 2000 2000;" xml:space="preserve">
<g id="Layer_1" style="display:none;">
	<image style="display:inline;overflow:visible;" width="2000" height="2000" xlink:href="N10_1_1 - Copy.jpeg" >
	</image>
</g>
<g id="Layer_2">
	<path style="fill:none;stroke:#00FF00;stroke-miterlimit:10;" d="M2000,606c-3.332-0.333-8.705-0.513-15,1
		c-4.595,1.105-15.835,3.807-17,10c-0.868,4.615,4.257,9.041,10,14c4.745,4.098,11.897,9.166,22,13"/>
	<path style="fill:none;stroke:#00FF00;stroke-miterlimit:10;" d="M2000,1580c-8.743,11.46-13.385,12.818-16,12
		c-5.366-1.679-2.769-12.706-10-28c-6.652-14.069-17.021-22.02-21-25c-5.928-4.44-14.431-10.807-27-12
		c-9.649-0.915-17.142,1.651-24,4c-9.651,3.306-14.476,4.958-16,9c-3.865,10.251,17.439,24.16,14.291,29.091
		c-2.43,3.806-17.165-1.284-25.291-4.091c-9.531-3.292-16.899-7.256-22-10c-3.044-1.637-8.386-4.53-15-9
		c-9.921-6.705-9.328-7.921-15-11c-9.734-5.284-19.248-5.921-23-6c-5.91-0.125-4.855,0.98-21,3
		c-7.819,0.978-13.61,1.413-18.127,1.745c-8.68,0.639-13.113,0.952-17.673,0.655c-6.947-0.454-12.16-0.794-17.673-3.927
		c-4.785-2.719-3.875-4.178-9.818-8.509c-4.556-3.32-11.482-8.367-18.982-7.2c-5.563,0.866-5.589,4.239-10.473,4.582
		c-7.57,0.531-14.185-7.102-17.673-11.127c-6.733-7.77-5.709-11.606-11.127-14.4c-3.461-1.785-7.325-1.626-15.055-1.309
		c-10.037,0.412-11.009,2.181-15.709,1.309c-3.912-0.725-6.174-2.495-15.709-11.127c-15.827-14.329-15.823-15.094-18.982-16.364
		c-5.861-2.356-8.498-0.777-24.218,0c-19.269,0.952-17.024-1.336-26.836,0c-17.463,2.377-21.6,9.217-37.309,9.164
		c-6.245-0.021-11.3-1.122-14.4-1.964"/>
	<path style="fill:none;stroke:#00FF00;stroke-miterlimit:10;" d="M1482.036,1520.655c6.499,3.316,13.125,8.221,17.673,15.709
		c2.411,3.969,2.07,5.096,4.582,8.509c6.72,9.133,17.287,12.111,20.945,13.091c8.86,2.372,10.185-0.171,19.636,2.618
		c6.743,1.99,6.445,3.395,14.4,6.546c11.214,4.441,14.094,2.554,26.182,6.545c13.006,4.295,11.242,6.998,18.327,7.854
		c13.132,1.587,16.312-8.048,30.109-7.2c8.859,0.545,8.746,4.59,21.6,6.545c7.851,1.194,13.958,0.608,20.291,0
		c9.065-0.87,16.695-2.745,26.836-5.236c9.249-2.272,8.315-2.449,10.473-2.618c9.04-0.709,15.376,3.185,29.455,11.127
		c16.504,9.31,8.041,4.096,24.873,13.745c22.209,12.731,25.454,15.223,28.8,18.327c3.561,3.304,9.711,9.6,15.055,18.982
		c5.821,10.219,10.636,18.674,7.855,26.836c-1.751,5.138-5.105,6.028-9.164,15.709c-2.007,4.786-3.579,8.653-1.964,10.473
		c2.751,3.099,10.835-4.15,18.982-0.655c4.159,1.785,6.363,5.524,8.509,9.164c4.456,7.558,2.514,11.335,6.545,17.018
		c2.817,3.971,6.341,5.759,10.473,7.854c7.953,4.034,15.473,4.59,25.527,5.236c11.799,0.759,12.666-0.669,17.018,1.309
		c4.817,2.189,4.775,4.401,14.4,13.091c1.331,1.202,5.937,5.317,12.436,9.818c9.375,6.493,12.483,6.72,14.4,6.545
		c4.357-0.397,4.715-3.065,9.164-4.582c7.938-2.706,16.546,2.462,25.527,7.855c6.157,3.697,7.328,5.392,17.018,12.436
		c6.888,5.007,12.669,8.785,16.364,11.127"/>
	<path style="fill:none;stroke:#00FF00;stroke-miterlimit:10;" d="M2004.364,1919.927c-2.584,1.53-7.322,3.788-13.091,3.273
		c-1.738-0.155-5.219-0.709-13.745-6.545c-5.185-3.549-7.859-6.055-17.673-14.4c-9.474-8.056-10.735-8.911-13.091-9.164
		c-6.662-0.716-8.866,4.797-15.709,3.927c-5.856-0.745-5.564-4.951-12.436-7.2c-8.255-2.701-11.173,2.552-20.291,0
		c-6.019-1.684-5.686-4.236-12.436-5.891c-6.482-1.589-7.282,0.642-13.745-0.655c-9.098-1.826-10.686-6.885-16.364-5.891
		c-4.959,0.868-4.804,4.911-9.818,5.891c-6.464,1.263-12.853-4.257-17.018-7.854c-5.701-4.924-4.538-6.423-9.818-10.473
		c-2.813-2.158-10.07-7.725-17.018-5.891c-0.857,0.226-1.011,0.38-8.509,5.236c-7.764,5.027-8.258,5.289-9.164,5.236
		c-6.656-0.388-9.798-16.267-12.436-15.709c-1.836,0.388,0.482,7.911-3.927,15.709c-2.835,5.013-7.282,8.073-9.818,9.818
		c-3.092,2.127-5.581,3.84-9.164,4.582c-8.16,1.69-12.343-3.654-15.709-1.309c-3.552,2.473-3.277,11.471,0.655,17.018
		c2.937,4.144,5.503,2.961,11.782,8.509c5.792,5.118,4.737,7.122,9.164,9.818c6.547,3.987,11.226,1.046,13.745,4.582
		c2.772,3.891-0.406,10.943-1.964,14.4c-2.957,6.561-5.725,6.908-6.546,11.782c-0.99,5.881,2.1,10.957,2.618,11.782
		c4.23,6.733,9.922,5.361,13.091,11.782c2.187,4.43-0.366,5.401,1.964,9.818c2.778,5.269,7.222,5.427,11.782,11.782
		c1.737,2.421,2.729,4.679,3.273,6.109"/>
</g>
</svg>
