<?xml version="1.0" encoding="iso-8859-1"?>
<!-- Generator: Adobe Illustrator 24.2.3, SVG Export Plug-In . SVG Version: 6.00 Build 0)  -->
<svg version="1.1" xmlns="http://www.w3.org/2000/svg" xmlns:xlink="http://www.w3.org/1999/xlink" x="0px" y="0px"
	 viewBox="0 0 2000 2000" style="enable-background:new 0 0 2000 2000;" xml:space="preserve">
<g id="Layer_1" style="display:none;">
	<image style="display:inline;overflow:visible;" width="2000" height="2000" xlink:href="N10_7_3 - Copy.jpeg" >
	</image>
</g>
<g id="Layer_2">
	<path style="fill:none;stroke:#00FF00;stroke-miterlimit:10;" d="M2.764,26.327c2.084-1.704,5.365-3.948,9.818-5.236
		c4.868-1.408,6.558-0.349,10.473-1.964c5.537-2.284,5.759-5.888,9.818-7.855c1.429-0.692,5.706-2.332,17.673,3.273
		c17.117,8.016,27.101,20.144,28.8,22.255c6.223,7.728,9.201,14.256,13.745,24.218c5.102,11.183,8.412,18.644,8.509,28.8
		c0.078,8.177-2.031,7.286-1.964,16.364c0.062,8.437,1.898,11.073,3.927,26.836c1.315,10.212,1.052,13.048-0.655,15.709
		c-2.261,3.525-5.894,4.927-11.782,7.2c-5.216,2.013-9.899,2.994-16.364,3.927c-15.071,2.177-14.136,0.39-19.636,1.964
		c-9.309,2.664-20.373,10.182-24.218,20.945c-1.932,5.408-0.431,7.127-3.273,12.436c-1.223,2.285-5.226,9.763-13.745,11.782
		C7.404,208.519,1.943,206.029,0,205.018"/>
	<path style="fill:none;stroke:#00FF00;stroke-miterlimit:10;" d="M0,405.964c3.342,1.12,8.453,2.246,13.891,0.655
		c5.472-1.601,6.221-4.475,14.4-9.818c4.816-3.146,10.306-6.733,17.673-7.855c7.765-1.182,8.357,1.784,14.4,0.655
		c4.557-0.852,6.312-2.929,22.255-18.327c7.845-7.577,10.837-10.374,15.709-13.745c2.581-1.786,7.178-4.967,11.127-6.545
		c14.56-5.82,32.135,5.416,45.164,13.745c15.03,9.609,26.435,16.901,30.764,30.764c0.559,1.791,0.281,1.388,1.309,27.491
		c0.758,19.249,1.046,22.918-1.964,26.182c-6.482,7.031-17.391,0.401-23.564,7.855c-3.535,4.268-0.648,7.275-4.582,19.636
		c-0.819,2.575-2.768,8.574-6.545,14.4c-5.073,7.824-9.282,8.916-17.673,16.364c-15.447,13.712-12.179,19.775-21.6,23.564
		c-11.232,4.517-18.386-3.091-26.182,3.273c-5.753,4.696-7.69,13.602-7.855,14.4c-1.365,6.61,0.862,8.681-1.309,11.782
		c-3.718,5.31-11.808,1.462-17.018,7.2c-3.425,3.772-0.807,6.401-3.927,10.473c-3.765,4.913-9.066,3.031-24.873,7.2
		c-10.089,2.661-14.446,5.146-15.709,5.891c-5.173,3.049-8.815,6.58-11.127,9.164"/>
	<path style="fill:none;stroke:#00FF00;stroke-miterlimit:10;" d="M2.764,826.836c11.003-0.052,16.575-3.418,19.636-6.545
		c3.823-3.906,3.099-6.797,7.854-11.127c5.176-4.714,8.021-3.099,14.4-7.855c1.626-1.212,6.74-5.114,9.818-11.782
		c2.22-4.81,2.353-9.534,2.618-18.982c0.247-8.781-0.588-9.085,0-14.4c0.862-7.799,3.36-13.489,5.236-17.673
		c3.728-8.312,6.854-15.285,13.745-20.291c6.457-4.691,8.764-2.238,20.945-7.2c8.792-3.581,7.909-4.988,21.6-12.436
		c16.49-8.971,20.35-8.332,24.218-14.4c1.418-2.225,2.691-7.374,5.236-17.673c3.36-13.594,2.622-14.201,4.582-17.018
		c4.589-6.598,14.23-11.314,22.909-10.473c5.342,0.518,7.654,2.882,11.127,1.309c4.184-1.896,3.727-6.642,6.545-11.127
		c4.743-7.549,13.049-5.268,34.691-11.782c12.531-3.771,18.796-5.657,25.527-10.473c5.598-4.005,7.702-7.095,14.4-9.818
		c1.425-0.579,5.685-2.211,17.018-3.273c9.039-0.847,10.821-0.23,18.982-0.655c19.434-1.01,23.997-5.271,30.109-1.309
		c5.272,3.417,2.646,7.086,8.509,12.436c9.15,8.35,18.847,2.427,25.527,10.473c3.392,4.085,4.349,9.775,5.236,15.055
		c0.903,5.371,0.346,7.614,0.655,10.473c1.154,10.695,12.757,14.577,22.909,24.218c9.971,9.469,18.905,24.835,18.982,39.927
		c0.027,5.233-4.346,14.906-13.091,34.036c-6.136,13.423-10.418,21.821-18.982,38.618c-9.545,18.722-11.528,21.833-14.4,25.527
		c-8.728,11.226-11.634,9.779-20.291,20.945c-11.137,14.366-10.899,22.658-18.327,24.218c-7.13,1.498-10.286-5.525-19.636-3.927
		c-7.101,1.214-7.017,5.561-14.4,7.2c-9.756,2.166-13.208-4.693-21.6-2.618c-5.512,1.362-5.513,4.689-16.364,15.055
		c-8.971,8.569-13.456,12.854-19.636,15.055c-11.071,3.942-15.534-1.738-26.182,2.618c-7.073,2.894-5.721,5.653-15.055,12.436
		c-4.959,3.604-14.719,7.688-34.036,15.709c-8.9,3.695-12.436,5.037-15.709,9.164c-4.32,5.447-2.534,8.624-7.2,14.4
		c-5.408,6.694-9.708,4.78-14.4,11.127c-3.962,5.359-1.356,7.346-5.236,15.709c-3.846,8.288-9.71,13.459-13.745,17.018
		c-3.763,3.319-3.594,2.426-13.745,9.818c-8.703,6.338-13.055,9.506-15.709,12.436c-6.434,7.103-5.745,10.277-11.127,13.091
		c-5.284,2.762-9.133,1.367-11.127,4.582c-1.559,2.513-0.066,4.749,0.655,10.473c0.832,6.611-0.147,11.669-1.309,17.673
		c-1.868,9.651-4.025,8.866-5.173,16.385c-0.594,3.891-2.084,13.658,3.209,20.924c3.7,5.079,6.662,3.372,11.782,9.164
		c6.188,7,3.672,11.543,8.509,15.055c4.51,3.274,10.704,2.009,22.909-0.655c13.034-2.844,12.238-4.427,19.465-5.507
		c9.604-1.435,11.621,1.268,33.554,4.198c9.956,1.33,15.869,2.12,24.218,1.964c4.851-0.091,14.149-0.569,25.527-3.273
		c8.11-1.927,9.45-3.124,26.836-9.164c13.151-4.568,19.727-6.852,24.218-7.854c9.856-2.2,10.788-0.99,35.345-3.273
		c18.776-1.745,23.583-2.95,28.145-4.582c7.982-2.855,9.645-5.025,18.327-9.164c13.825-6.591,25.817-8.818,31.418-9.818
		c13.206-2.359,30.127-5.382,49.091,1.964c14.752,5.714,23.703,14.976,27.491,18.982c4.751,5.023,8.562,9.145,10.473,15.709
		c1.834,6.298,0.757,10.856-2.618,25.527c-6.67,28.994-6.934,30.613-7.2,33.382c-1.368,14.234,0,28.145,0,28.145
		c1.165,11.847,3.159,16.672,0,22.909c-3.232,6.38-7.404,5.448-11.127,12.436c-2.249,4.222-1.881,6.729-2.618,20.291
		c-0.691,12.703-1.036,19.054-1.964,23.564c-2.1,10.21-4.332,10.806-6.545,22.255c-1.616,8.361-0.443,8.135-1.964,16.364
		c-1.556,8.421-3.023,9.952-7.855,25.527c-3.279,10.568-4.924,15.942-5.236,20.291c-0.708,9.86,1.598,17.524,3.273,22.909
		c1.622,5.218,4.85,15.253,13.091,24.873c7.814,9.122,12.551,9.016,17.673,18.327c3.758,6.832,2.496,9.23,5.891,13.091
		c5.77,6.561,14.65,5.588,25.527,6.545c6.606,0.581,34.865,3.068,51.709,19.636c6.539,6.432,4.386,8.129,15.709,20.945
		c7.678,8.691,12.336,13.964,20.291,18.327c10.957,6.01,15.235,3.201,20.945,9.164c6.078,6.346,2.697,11.059,8.509,20.291
		c4.609,7.321,8.111,6.542,20.945,17.018c10.097,8.241,16.528,15.742,20.945,20.945c9.151,10.779,13.727,16.168,15.709,24.218
		c1.669,6.775-0.704,5.558,0,22.255c0.601,14.255,0.902,21.382,1.964,27.491c1.042,5.995,2.428,11.414,0,13.091
		c-2.534,1.75-6.586-2.396-9.164-0.655c-3.587,2.422-0.088,13.383,0.655,15.709c2.48,7.768,6.361,13.451,9.164,17.018
		c4.164,5.3,5.696,5.607,17.018,16.364c10.84,10.299,12.261,12.701,12.436,15.709c0.345,5.903-4.302,10.733-7.2,13.745
		c-5.362,5.574-8.589,4.926-18.327,12.436c-7.483,5.771-8.266,8.226-8.509,9.164c-1.124,4.339,0.981,8.375,4.582,15.055
		c5.213,9.67,9.507,13.054,8.509,14.4c-1.329,1.792-10.774-1.726-18.327-7.2c-5.586-4.048-6.554-6.57-13.091-10.473
		c-2.147-1.282-10.222-6.103-12.436-3.927c-2.167,2.129,3.893,8.385,1.309,13.091c-2.021,3.681-8.457,4.824-13.091,3.927
		c-5.268-1.019-6.128-4.273-13.745-6.545c-3.811-1.137-6.064-1.809-7.855-0.655c-4.266,2.75-0.227,12.208-3.927,14.4
		c-3.175,1.881-9.384-3.165-11.127-4.582c-4.576-3.719-7.233-8.429-8.509-11.127c-2.729-5.769-1.986-8.34-4.582-9.818
		c-3.243-1.846-5.6,1.485-9.818,0c-4.504-1.586-3.917-6.124-9.164-9.164c-2.751-1.594-3.284-0.561-9.164-1.964
		c-5.256-1.254-11.87-2.832-15.709-7.854c-1.922-2.515-2.372-4.949-3.273-9.818c-1.192-6.445-0.145-8.602-0.655-17.673
		c-0.322-5.735-0.484-8.603-1.309-11.127c-2.876-8.796-9.951-13.797-11.782-15.055c-7.355-5.054-10.456-2.639-13.091-6.546
		c-3.946-5.851,2.58-11.906-1.309-20.945c-1.283-2.982-1.821-1.923-7.2-9.164c-6.1-8.212-6.018-10.395-9.818-14.4
		c-3.524-3.715-4.651-2.95-13.745-8.509c-9.24-5.648-10.662-8.018-22.909-15.709c-8.961-5.628-11.228-6.261-13.745-5.891
		c-6.601,0.97-8.547,7.904-13.091,7.2c-5.026-0.778-4.746-9.586-10.473-11.127c-2.997-0.807-6.839,1.633-14.4,6.545
		c-9.719,6.315-11.43,9.05-15.055,8.509c-4.039-0.602-3.884-4.294-9.818-7.855c-6.976-4.186-14.475-3.456-16.364-3.273
		c-6.714,0.653-7.282,3.31-17.018,7.2c-8.001,3.196-8.356,1.697-22.909,5.891c-9.248,2.665-13.873,3.998-18.327,6.545
		c-9.463,5.411-8.841,9.14-15.055,10.473c-2.334,0.5-3.366,0.177-20.291-3.273c-7.302-1.489-10.983-2.201-12.436-0.655
		c-2.361,2.513,1.491,6.77,0,13.745c-1.344,6.287-6.044,10.172-7.2,11.127c-7.991,6.605-19.629,5.936-19.636,5.891
		c-0.005-0.031,5.221-0.738,5.236-0.655c0.027,0.144-16.115-0.509-21.6,7.854c-4.221,6.436,1.729,12.329-2.618,18.982
		c-2.281,3.491-5.384,4.109-19.636,8.509c-12.839,3.964,1.089-0.061-22.255,7.2c-14.721,4.579-20.323,6.199-25.527,11.782
		c-2.228,2.391-5.095,5.551-4.582,9.164c0.762,5.361,8.209,6.371,9.164,11.782c0.76,4.31-3.144,8.322-5.236,10.473
		c-7.987,8.209-20.119,9.333-26.182,9.818c-10.754,0.86-14.583-1.514-18.327,1.964c-2.303,2.139-1.647,3.773-5.236,13.091
		c-2.836,7.361-4.253,11.041-6.545,12.436c-5.272,3.209-9.561-2.431-17.673,0c-5.326,1.596-8.813,5.628-12.436,9.818
		c-4.942,5.715-4.912,8.618-9.164,11.782c-4.137,3.078-8.804,3.782-11.927,3.927"/>
	<path style="fill:none;stroke:#00FF00;stroke-miterlimit:10;" d="M678.909,1814.545c-2.172,2.064,4.917,8.362,5.236,18.982
		c0.193,6.419-2.32,6.664-3.927,17.673c-1.033,7.078-1.678,11.494,0,17.018c0.731,2.406,3.389,9.917,10.473,14.4
		c4.723,2.989,6.003,1.207,9.818,3.927c5.43,3.871,4.27,8.501,9.818,18.327c2.725,4.826,5.388,7.929,9.818,13.091
		c7.379,8.597,8.654,7.709,13.091,13.745c6.29,8.557,4.636,11.579,9.818,15.709c1.099,0.876,8.745,6.767,17.673,3.927
		c5.726-1.822,10.56-6.783,11.782-12.436c1.403-6.492-3.165-8.302-4.582-19.636c-1.002-8.021,1.166-8.069,0-15.709
		c-0.981-6.428-3.207-10.922-7.2-18.982c-0.94-1.898-3.547-7.032-7.855-13.091c-5.658-7.958-8.101-8.86-9.164-9.164
		c-5.196-1.483-8.171,2.557-11.127,0.655c-3.733-2.402-0.019-9.504-4.582-14.4c-2.414-2.59-3.95-1.135-8.509-3.927
		c-6.154-3.769-4.906-7.368-11.127-12.436c-5.435-4.428-7.208-2.349-12.436-7.2c-3.525-3.27-3.937-5.346-7.854-7.855
		C685.867,1815.751,680.591,1812.947,678.909,1814.545z"/>
	<path style="fill:none;stroke:#00FF00;stroke-miterlimit:10;" d="M749.6,1786.4c-2.25-4.603-5.874-10.08-11.782-14.4
		c-2.609-1.908-3.812-2.236-15.709-7.2c-14.444-6.027-16.681-7.217-18.327-5.891c-2.951,2.377-1.498,10.827,2.618,16.364
		c3.899,5.244,7.182,3.831,13.745,9.818c2.754,2.512,5.365,6.509,10.473,14.4c3.604,5.567,6.477,10.308,8.509,13.745"/>
	<path style="fill:none;stroke:#00FF00;stroke-miterlimit:10;" d="M626.545,2000c-0.606-3.259-1.235-9.102,0.655-15.927
		c0.662-2.391,2.015-7.087,5.891-11.782c1.846-2.236,6.491-7.863,13.745-9.164c5.889-1.056,10.5,1.277,18.327,5.236
		c8.992,4.549,8.677,6.566,17.673,11.127c9.734,4.935,16.252,5.69,18.982,5.891c5.31,0.391,10.799,0.796,13.745-2.618
		c2.984-3.458,1.853-9.087,0.655-15.055c-1.365-6.793-3.055-7.401-3.927-12.436c-1.4-8.084,2.291-10.368,2.618-18.327
		c0.417-10.127-5.079-18.045-9.818-24.873c-6.72-9.682-14.534-14.817-17.018-16.364c-1.869-1.163-9.1-3.612-23.564-8.509
		c-8.077-2.735-12.588-4.185-15.055-1.964c-2.363,2.127-0.219,5.253-1.964,7.855c-3.539,5.277-17.556,0.167-45.818-4.582
		c-16.463-2.766-22.388-2.826-28.8-0.655c-3.962,1.342-6.245,2.904-11.127,3.273c-8.762,0.661-11.379-3.619-18.982-3.927
		c-9.651-0.391-17.237,6.026-20.945,9.164c-7.793,6.592-6.875,10.805-13.745,20.291c-5.66,7.815-14.683,13.937-32.727,26.182
		c-9.682,6.57-15.087,10.238-23.564,14.4c-9.771,4.798-12.002,4.547-22.909,9.818c-15.953,7.71-14.807,10-23.564,13.091
		c-11.68,4.122-12.753-0.292-36,1.964c-18.904,1.835-18.718,4.805-32.727,4.582c-7.578-0.121-12.359-1.065-18.982,1.309
		c-7.528,2.699-12.591,7.949-15.709,12"/>
</g>
</svg>
