<?xml version="1.0" encoding="iso-8859-1"?>
<!-- Generator: Adobe Illustrator 24.2.3, SVG Export Plug-In . SVG Version: 6.00 Build 0)  -->
<svg version="1.1" xmlns="http://www.w3.org/2000/svg" xmlns:xlink="http://www.w3.org/1999/xlink" x="0px" y="0px"
	 viewBox="0 0 2000 2000" style="enable-background:new 0 0 2000 2000;" xml:space="preserve">
<g id="Layer_1" style="display:none;">
	<image style="display:inline;overflow:visible;" width="2000" height="2000" xlink:href="N10_6_2 - Copy.jpeg" >
	</image>
</g>
<g id="Layer_2">
	<path style="fill:none;stroke:#00FF00;stroke-miterlimit:10;" d="M981.091,0c-3.389,4.359-9.045,10.782-17.455,16.727
		c-8.378,5.923-11.43,5.674-20.945,12.218c-2.903,1.997-4.971,3.637-20.073,17.455c-18.59,17.009-17.34,16.245-20.073,18.327
		c-14.152,10.78-17.398,8.188-27.927,17.454c-3.662,3.223-8.55,9.712-18.327,22.691c-7.385,9.804-10.835,15.107-13.964,21.818
		c-4.11,8.816-6.628,14.432-4.364,20.073c2.328,5.797,8.892,9.59,14.836,10.473c13.412,1.992,20.514-11.302,29.673-7.854
		c7.09,2.669,5.426,11.611,12.218,13.964c2.711,0.939,7.991,1.251,27.927-15.709c8.124-6.911,11.034-10.184,27.055-25.309
		c15.834-14.949,19.259-17.667,25.309-19.2c9.276-2.349,14.046,0.795,19.2-3.491c6.162-5.124,1.713-11.589,6.982-20.945
		c5.525-9.811,12.911-7.13,28.8-20.945c9.511-8.27,6.948-9.302,13.964-13.964c12.38-8.225,20.743-5.263,27.927-13.964
		c4.946-5.99,3.317-10.221,7.855-12.218c5.743-2.528,9.619,3.694,20.945,4.364c10.237,0.606,12.56-4.152,17.455-1.745
		c6.602,3.246,3.2,12.306,10.473,27.055c6.039,12.247,12.176,13.691,11.345,20.073c-0.954,7.331-9.239,6.861-17.455,18.327
		c-7.27,10.148-3.194,13.883-10.473,22.691c-6.816,8.249-11.738,6.603-19.2,15.709c-5.752,7.02-3.693,9.053-8.727,16.582
		c-7.848,11.736-15.033,10.055-30.545,23.564c-12.425,10.821-8.571,12.558-18.327,19.2c-11.812,8.042-19.546,6.915-27.927,16.582
		c-5.608,6.469-2.917,7.864-7.854,13.091c-10.86,11.497-24.138,5.016-35.782,15.709c-6.276,5.764-2.782,7.98-9.6,16.582
		c-10.675,13.468-20.305,9.377-37.527,22.691c-11.701,9.046-9.165,12.425-23.564,23.564c-10.009,7.743-11.279,6.139-23.564,14.836
		c-18.875,13.363-17.515,18.309-28.8,22.691c-14.228,5.525-18.918-1.355-30.545,5.236c-8.235,4.668-12.678,11.971-19.2,22.691
		c-5.9,9.697-4.24,10.435-11.345,22.691c-7.194,12.409-10.905,15.12-9.6,19.2c2.154,6.732,15.246,8.696,22.691,8.727
		c8.501,0.036,9.925-2.445,28.8-7.855c11.89-3.407,12.723-2.823,27.055-6.982c10.096-2.93,15.144-4.394,19.2-6.109
		c14.388-6.083,17.665-11.342,27.927-12.218c7.099-0.606,6.892,1.795,13.964,1.745c15.45-0.109,28.414-11.656,42.764-24.436
		c7.837-6.98,10.414-10.61,17.455-13.091c6.078-2.141,10.037-1.507,14.836-5.236c4.259-3.31,4.176-6.168,7.855-12.218
		c0.961-1.581,9.092-14.608,22.691-20.073c9.019-3.625,10.458,0.09,17.455-3.491c10.168-5.204,8.697-13.85,18.327-22.691
		c5.542-5.087,7.067-3.178,27.927-11.345c21.172-8.29,20.674-10.678,33.164-13.964c11.501-3.026,11.76-0.958,30.545-4.364
		c8.019-1.454,18.737-3.44,31.418-7.855c6.906-2.404,9.88-3.957,30.545-13.964c32.182-15.583,31.05-14.76,34.036-16.582
		c10.787-6.58,23.624-14.577,34.909-29.673c5.254-7.028,12.396-16.58,14.836-30.545c1.551-8.875-0.403-10.336,0.873-24.436
		c1.253-13.845,3.311-14.354,5.236-28.8c2.019-15.151-0.081-15.814,1.745-35.782c1.035-11.32,1.639-10.324,3.491-27.055
		c1.824-16.476,2.705-30.684,2.618-30.691c-0.029-0.002-0.209,1.631-0.873,8.873"/>
	<path style="fill:none;stroke:#00FF00;stroke-miterlimit:10;" d="M1153.891,407.709c-0.436-0.578-9.626,7.482-26.182,15.709
		c-5.112,2.54-8.088,3.686-13.091,6.982c-4.694,3.092-10.113,6.729-14.836,13.091c-2.163,2.913-4.06,7.179-7.855,15.709
		c-3.998,8.987-5.997,13.481-5.236,13.964c1.206,0.766,7.36-8.331,20.073-21.818c4.282-4.543,7.388-7.547,12.218-12.218
		C1139.024,419.744,1154.437,408.433,1153.891,407.709z"/>
	<path style="fill:none;stroke:#00FF00;stroke-miterlimit:10;" d="M1845.964,1996.073c0.919-7.515,3.441-17.628,11.345-22.691
		c6.106-3.91,10.318-1.537,18.327-5.236c1.9-0.878,5.907-2.971,19.2-20.946c10.628-14.371,15.955-21.702,16.582-28.8
		c0.778-8.806-2.657-14.939,0-16.582c3.242-2.004,8.425,7.084,18.327,7.855c9.062,0.705,19.596-5.748,20.945-13.091
		c1.305-7.103-6.668-11.315-4.364-16.582c2.239-5.117,10.517-2.862,14.836-9.6c2.957-4.613,1.958-10.162,1.745-11.345
		c-1.577-8.764-8.997-10.491-8.727-15.709c0.283-5.485,8.587-5.604,15.709-13.091c9.014-9.475,9.308-23.573,9.6-37.527
		c0.286-13.677-2.5-14.204-0.873-25.309c1.534-10.471,4.619-14.155,2.618-20.946c-2.045-6.941-6.263-6.462-11.345-14.836
		c-5.13-8.451-2.09-11.008-6.982-26.182c-3.529-10.947-5.586-11.091-8.727-22.691c-3.143-11.607-2.432-16.441-1.745-19.2
		c1.621-6.517,4.474-6.971,4.364-11.345c-0.204-8.055-9.958-9.644-12.218-18.327c-1.808-6.947,3.07-11.171,6.109-20.073
		c1.941-5.684,3.109-13.208-1.745-35.782c-8.435-39.225-16.401-37.155-21.818-67.2c-3.141-17.421-3.211-33.363-13.964-39.273
		c-3.493-1.92-7.513-2.45-13.091-6.982c-4.549-3.695-5.549-6.326-11.345-13.964c-8.89-11.713-10.016-10.11-13.091-15.709
		c-5.52-10.053-0.742-13.132-5.236-24.436c-4.576-11.509-13.831-19.139-19.2-23.564c-9.695-7.991-14.152-7.75-16.582-13.964
		c-3.299-8.436,2.316-15.536-1.745-19.2c-2.949-2.661-6.817,0.264-14.836-0.873c-7.774-1.102-9.672-4.636-15.709-6.982
		c-14.257-5.54-34.459,2.204-45.382,12.218c-2.196,2.014-6.966,6.823-14.836,12.218c-5.675,3.89-9.531,6.483-11.345,5.236
		c-4.094-2.814,8.627-20.77,1.745-29.673c-3.144-4.068-8.909-4.341-9.6-4.364c-7.562-0.252-10.038,6.399-27.927,20.946
		c-6.595,5.363-6.813,4.91-12.218,9.6c-7.468,6.48-9.373,9.359-11.345,8.727c-4.086-1.308,1.4-14.516-5.236-25.309
		c-5.157-8.387-16.683-13.769-27.927-12.218c-8.894,1.227-18.73,6.945-21.818,15.709c-3.043,8.635,0.575,19.914,1.746,23.564
		c1.994,6.216,4.392,9.636,2.618,12.218c-1.928,2.807-7.926,3.376-10.473,0.873c-2.938-2.888,0.54-8.069,0.873-16.582
		c0.46-11.786-5.738-13.837-6.982-24.436c-1.082-9.225,3.642-17.786,13.091-34.909c4.058-7.353,4.503-6.985,15.709-25.309
		c6.986-11.424,10.479-17.135,11.345-19.2c4.24-10.1,2.791-13.204,8.727-38.4c2.265-9.612,3.246-12.431,5.236-15.709
		c4.475-7.37,8.981-8.709,15.709-15.709c5.543-5.767,8.202-10.807,13.091-20.073c6.362-12.058,10.596-20.084,11.345-31.418
		c0.474-7.177,1.208-18.282-6.109-26.182c-7.868-8.494-20.225-8.082-27.055-7.855c-14.821,0.494-25.742,7.259-34.909,13.091
		c-14.092,8.965-11.728,11.786-24.436,20.073c-10.396,6.779-11.215,4.393-41.891,16.582c-19.126,7.599-23.732,10.483-29.673,7.855
		c-9.356-4.14-9.252-16.301-17.455-17.455c-8.028-1.129-15.669,9.461-17.454,7.854c-1.514-1.362,4.976-8.077,2.618-13.091
		c-2.045-4.348-8.591-2.84-10.473-6.982c-2.423-5.333,5.985-13.219,4.364-14.836c-1.426-1.422-7.198,5.392-13.964,4.364
		c-7.397-1.125-11.177-10.893-11.345-11.345c-4.362-11.715,4.191-23.666,6.109-26.182c1.131-1.483,1.865-2.193,15.709-13.091
		c12.304-9.686,13.152-10.25,14.836-12.218c5.873-6.863,7.624-14.094,9.6-22.691c4.508-19.61-0.751-22.075,3.491-36.655
		c3.606-12.393,7.412-10.634,13.091-27.055c3.672-10.618,2.394-12.261,6.982-26.182c4.228-12.829,6.442-19.33,11.345-23.564
		c8.322-7.184,15.289-3.57,20.073-10.473c4.818-6.951-1.217-12.103,3.491-20.945c4.162-7.816,10.148-6.178,16.582-15.709
		c4.611-6.831,1.941-8.273,6.109-14.836c7.045-11.095,15.584-8.405,22.691-19.2c4.907-7.453,1.566-9.844,6.982-17.455
		c4.86-6.83,11.375-10.281,18.327-13.964c11.557-6.122,15.481-4.785,20.073-10.473c0.984-1.219,2.706-5.193,6.109-13.091
		c5.059-11.742,6.166-14.877,7.855-14.836c3.471,0.083,3.288,13.435,8.727,14.836c3.668,0.945,7.756-4.094,14.836-13.091
		c15.104-19.191,22.691-28.875,24.436-33.164c5.749-14.127,5.438-26.567,5.236-32.291c-0.764-21.69-9.776-37.06-21.818-57.6
		c-8.824-15.05-13.236-22.575-22.691-30.545c-2.895-2.441-17.384-14.301-40.146-18.327c-10.811-1.912-24.876-4.401-39.273,2.618
		c-12.686,6.185-20.033,17.023-22.691,20.945c-9.101,13.427-6.443,20.009-14.836,26.182c-9.336,6.865-15.699,0.984-24.436,7.854
		c-7.894,6.208-4.15,12.15-13.091,27.055c-5.947,9.914-8.709,9.128-19.2,23.564c-9.929,13.662-6.94,13.658-12.218,19.2
		c-12.508,13.132-23.755,7.342-47.127,21.818c-8.595,5.324-7.983,6.67-16.582,11.345c-11.954,6.5-15.236,5.039-29.673,11.345
		c-16.613,7.257-16.34,10.97-27.055,13.091c-11.037,2.184-20.809,0.121-25.309-0.873c-15.614-3.448-17.302-9.402-25.309-7.855
		c-9.766,1.888-9.568,11.196-21.818,14.836c-7.46,2.217-8.358-0.99-18.327,0.873c-13.375,2.499-15.095,8.896-22.691,7.855
		c-10.373-1.422-12.818-14.129-19.2-13.091c-5.908,0.961-4.339,11.938-13.964,21.818c-6.668,6.846-17.085,11.498-27.054,11.345
		c-10.982-0.168-13.315-6.042-22.691-4.364c-3.634,0.651-5.28,1.891-17.455,10.473c-19.931,14.05-19.257,13.362-20.945,14.836
		c-11.397,9.953-9.272,12.627-20.073,21.818c-7.868,6.695-14.803,12.598-24.436,13.091c-9.304,0.476-11.574-4.582-18.327-2.618
		c-8.902,2.589-7.385,12.083-17.454,19.2c-4.43,3.131-6.077,2.25-30.546,6.109c-21.005,3.313-18.454,3.751-26.182,4.364
		c-17.512,1.389-21.583-1.578-29.673,2.618c-6.512,3.378-10.347,8.657-14.836,14.836c-8.127,11.188-5.902,14.847-12.218,20.073
		c-6.74,5.577-10.304,2.262-20.945,8.727c-4.209,2.557-10.229,6.215-13.964,13.091c-4.058,7.473-0.888,10.406-4.364,21.818
		c-1.723,5.657-4.138,13.588-10.473,18.327c-5.782,4.326-11.198,3.275-24.436,3.491c-9.391,0.153-25.727,0.42-39.273,4.364
		c-12.826,3.735-11.89,7.488-29.673,16.582c-9.642,4.93-11.57,4.672-48,16.582c-22.359,7.31-33.723,11.042-42.764,14.836
		c-20.369,8.549-18.164,10.104-36.655,17.455c-7.804,3.102-3.358,0.902-48.873,13.091c-8.07,2.161-15.332,4.138-22.691,0.873
		c-6.042-2.681-6.94-6.583-13.091-7.855c-8.622-1.782-13.509,4.513-17.455,1.745c-3.752-2.631-3.07-10.944-0.873-16.582
		c2.392-6.137,6.315-8.431,14.836-15.709c0,0,6.891-5.885,19.2-18.327c15.785-15.955,12.344-17.396,19.2-21.818
		c14.881-9.599,24.449,1.473,44.509-6.982c10.8-4.552,9.624-8.435,26.182-19.2c9.316-6.057,17.683-9.648,34.036-16.582
		c7.367-3.124,27.532-11.525,58.473-21.818c23.656-7.87,35.484-11.805,41.018-12.218c17.41-1.3,31.167,2.543,38.4-6.109
		c4.297-5.14,1.948-9.496,6.982-13.964c6.345-5.632,13.755-1.974,25.309-3.491c14.139-1.856,14.179-8.795,34.036-17.455
		c16.28-7.099,31.219-8.961,36.655-9.6c20.648-2.427,27.842,1.731,37.527-5.236c4.388-3.156,7.58-7.632,13.964-16.582
		c4.244-5.95,5.748-9.08,12.218-18.327c5.157-7.37,7.773-11.078,9.6-12.218c8.845-5.518,21.083-1.763,29.673,0.873
		c13.607,4.175,18.731,9.683,22.691,6.982c3.915-2.67,3.442-11.147,1.745-16.582c-3.016-9.662-10.558-11.823-9.6-16.582
		c0.881-4.38,7.431-3.353,15.709-9.6c5.259-3.969,5.978-6.92,15.709-21.818c5.719-8.755,8.578-13.133,11.345-16.582
		c9.996-12.457,17.656-12.548,33.164-23.564c16.165-11.482,26.183-24.41,32.291-32.291c12.045-15.543,10.38-18.913,21.818-30.545
		c7.917-8.052,12.46-10.245,20.073-20.073c8.499-10.972,6.255-12.651,12.218-18.327c11.061-10.529,19.135-5.091,30.545-15.709
		c5.347-4.976,8.487-10.743,13.091-19.2c6.463-11.872,4.653-13.355,8.727-17.455c8.264-8.315,16.353-2.862,27.927-11.345
		c7.044-5.163,10.693-12.053,13.091-16.582c5.289-9.988,2.768-12.335,7.854-20.945c5.802-9.82,10.245-8.738,13.964-17.455
		c3.827-8.971-0.283-11.516,3.491-18.327c5.507-9.937,16.074-7.797,19.2-16.582c2.297-6.454-2.854-9.164-0.873-16.582
		c1.619-6.063,6.466-9.514,17.455-16.582c13.005-8.364,18.611-11.502,25.309-15.709c32.51-20.421,38.4-24.436,38.4-24.436
		c3.7-2.523,8.73-6.019,14.836-5.236c6.2,0.795,8.596,5.37,12.218,4.364c4.146-1.152,4.318-8.067,6.982-16.582
		c4.795-15.325,11.309-15.518,17.454-30.545c2.436-5.957,3.37-12.99,5.236-27.055c2.732-20.585,4.016-31.063,0-40.146
		c-2.622-5.929-7.915-13.699-10.473-17.454c-5.29-7.766-7.885-10.219-8.727-15.709c-0.861-5.609,1.218-7.153,0-13.091
		c-1.202-5.86-3.812-7.208-6.109-12.218c-3.759-8.198-0.764-13.294-0.873-25.309c-0.05-5.56-0.141-15.661-4.364-24.436
		c-9.35-19.434-32.562-19.07-34.909-34.909c-0.884-5.965,2.166-7.652,0-13.091c-3.112-7.815-10.553-7.206-18.327-16.582
		c-5.351-6.453-7.203-13.227-7.854-15.709c-2.814-10.722,1.059-14.076-0.873-23.564c-1.801-8.846-6.001-10.019-13.091-21.818
		c-6.622-11.02-3.882-11.534-12.218-30.545c-10.389-23.694-18.524-31.741-20.945-34.036c-4.92-4.663-9.683-7.78-13.091-9.745"/>
</g>
</svg>
