<?xml version="1.0" encoding="iso-8859-1"?>
<!-- Generator: Adobe Illustrator 24.2.3, SVG Export Plug-In . SVG Version: 6.00 Build 0)  -->
<svg version="1.1" xmlns="http://www.w3.org/2000/svg" xmlns:xlink="http://www.w3.org/1999/xlink" x="0px" y="0px"
	 viewBox="0 0 2000 2000" style="enable-background:new 0 0 2000 2000;" xml:space="preserve">
<g id="Layer_1" style="display:none;">
	<image style="display:inline;overflow:visible;" width="2000" height="2000" xlink:href="N10_7_2 - Copy.jpeg" >
	</image>
</g>
<g id="Layer_2">
	<path style="fill:none;stroke:#00FF00;stroke-miterlimit:10;" d="M1827,0c-1.46,4.501-3.7,10.763-7,18
		c-4.322,9.477-6.66,14.604-11,20c-4.135,5.14-5.54,4.871-24,19c-11.865,9.081-14.416,11.589-16,16c-3.189,8.883,0.562,17.081,1,18
		c3.789,7.96,10.798,11.126,13,12c8.255,3.276,15.876,0.905,22-1c9.563-2.975,11.735-6.501,24-13c6.043-3.202,13.014-6.896,21-9
		c6.682-1.761,12.026-1.869,43,2c24.308,3.037,26.905,3.839,33,2c7.432-2.243,13.288-6.495,25-15c8.35-6.064,7.907-6.759,18-14
		c9.039-6.485,16.084-10.727,20-13c4.354-2.528,8.131-4.534,11-6"/>
	<path style="fill:none;stroke:#00FF00;stroke-miterlimit:10;" d="M2000,208.291c-6.333,3.726-12.027,6.188-16.582,7.855
		c-9.835,3.599-12.652,2.863-17.673,6.545c-7.156,5.249-5.436,9.679-11.782,13.091c-6.942,3.733-10.733-0.639-17.673,2.618
		c-7.245,3.4-5.887,9.465-13.091,17.018c-4.597,4.82-7.957,5.294-26.836,12.436c-16.165,6.116-24.248,9.174-27.491,11.127
		c-17.454,10.513-14.318,19.044-28.145,24.873c-12.911,5.443-17.692-1.132-34.036,5.891c-4.492,1.93-11.621,5.09-17.673,12.436
		c-7.053,8.561-8.598,17.897-9.164,21.6c-0.988,6.461,0.256,7.19,0.655,22.255c0.319,12.045,0.442,18.152-1.309,22.255
		c-1.223,2.864-7.952,7.338-20.945,16.364c-7.408,5.146-8.56,5.692-13.091,9.164c-6.314,4.838-6.904,5.945-10.473,7.855
		c-4.141,2.216-8.053,3.035-15.709,4.582c-11.942,2.413-12.42,1.228-17.673,3.273c-2.327,0.906-8.495,3.382-13.745,9.164
		c-4.588,5.052-3.374,7.009-7.855,11.782c-5.48,5.836-12.077,8.003-13.745,8.509c-8.798,2.671-10.888-1.222-20.291,1.309
		c-6.703,1.804-5.411,3.721-14.4,6.545c-5.143,1.616-8.363,1.867-13.745,4.582c-2.469,1.245-7.605,4.124-7.2,5.236
		c0.567,1.555,11.721-1.037,15.709-1.964c9.152-2.127,9.894-3.252,14.4-3.273c6.565-0.03,11.728,2.327,13.746,3.273
		c8.12,3.808,8.56,7.839,13.745,8.509c3.105,0.402,4.813-0.802,13.745-5.891c11.418-6.505,17.217-9.785,21.6-11.127
		c8.564-2.623,14.802-2,18.327-1.309c3.596,0.704,9.388,1.839,11.127,5.891c1.587,3.697-1.712,6.297,0,9.818
		c1.726,3.551,7.493,5.864,11.782,3.927c4.386-1.981,5.188-7.487,5.236-7.855c0.924-7.084-5.728-11.926-3.927-14.4
		c1.394-1.915,5.486,0.838,10.473-1.309c3.311-1.425,4.526-3.939,6.545-6.545c4.373-5.644,9.72-8.112,17.673-11.782
		c7.671-3.54,13.7-4.512,22.255-5.891c12.428-2.003,18.642-3.005,23.564,0c5.454,3.33,9.165,10.04,9.164,16.364
		c-0.001,8.973-7.475,14.636-5.891,16.364c1.394,1.52,7.004-3.06,15.709-5.891c5.289-1.72,8.452-1.73,24.218-1.964
		c22.56-0.334,26.703-0.469,30.764-0.655c17.071-0.782,22.052-1.981,26.836-3.927c2.965-1.206,8.595-3.496,14.4-8.509
		c8.249-7.123,7.479-11.649,13.745-14.4c7.713-3.386,13.932,1.252,17.018-2.618c2.231-2.798-0.754-5.554,0.655-11.782
		c1.233-5.451,5.241-10.952,11.127-13.745c7.349-3.488,14.361-1.207,15.927-0.655"/>
	<path style="fill:none;stroke:#00FF00;stroke-miterlimit:10;" d="M1542.255,547.345c-0.654-3.495-2.144-11.451-8.509-15.709
		c-2.119-1.418-4.573-2.288-14.4-2.618c-9.586-0.322-14.909,0.248-24.218,0.655c-14.306,0.624-14.056-0.186-22.909,0.655
		c-10.111,0.96-15.167,1.44-20.946,3.927c-10.736,4.621-9.849,9.916-19.636,15.709c-10.838,6.415-22.471,6.166-35.345,5.891
		c-16.957-0.363-19.059-4.284-28.145-1.309c-10.718,3.509-17.619,12.183-20.946,16.364c-7.79,9.791-4.949,12.443-10.473,18.327
		c-9.325,9.935-19.061,4.124-45.164,13.091c-7.317,2.514-16.553,6.406-26.182,13.091c-7.392,5.132-12.813,10.381-17.018,17.018
		c-3.497,5.52-7.144,11.277-5.236,16.364c2.256,6.016,11.014,7.719,18.982,9.164c12.835,2.328,17.916,0.179,38.618-0.655
		c19.929-0.802,20.748,0.967,29.455-1.309c2.385-0.624,6.982-1.975,26.182-12.436c22.422-12.218,19.051-11.954,25.527-14.4
		c7.649-2.888,22.628-7.136,39.927-7.855c5.472-0.227,10.214-0.061,15.055-3.273c6.135-4.07,5.132-8.724,11.127-14.4
		c5.789-5.481,14.285-8.301,21.6-7.855c11.138,0.679,12.188,8.481,20.945,8.509c8.81,0.028,9.755-7.861,28.146-21.6
		c12.836-9.589,18.818-10.558,22.255-18.982C1543.883,556.509,1542.659,549.504,1542.255,547.345z"/>
	<path style="fill:none;stroke:#00FF00;stroke-miterlimit:10;" d="M1341.964,1277.818c-5.948,2.485-11.147,8.782-11.782,15.709
		c-0.349,3.804,1.949,8.427,6.545,17.673c3.221,6.479,4.831,9.718,7.2,12.436c2.105,2.415,8.279,9.499,17.018,10.473
		c6.004,0.669,6.875-2.253,18.982-5.891c13.873-4.169,17.018-1.621,21.6-5.891c5.699-5.311,5.804-13.886,5.891-20.945
		c0.079-6.484,0.173-14.12-5.236-20.945c-0.768-0.969-7.602-9.345-17.018-9.164c-6.88,0.133-6.949,4.675-15.709,5.891
		c-5.988,0.831-7.397-1.092-17.673-0.655C1346.82,1276.72,1344.339,1276.826,1341.964,1277.818z"/>
	<path style="fill:none;stroke:#00FF00;stroke-miterlimit:10;" d="M2000,1802.109c-3.15,0.11-7.853,0.701-12.655,3.273
		c-5.771,3.09-5.591,5.777-11.782,9.818c-6.074,3.965-7.824,2.409-16.364,7.2c-4.92,2.76-7.451,4.181-9.818,7.2
		c-2.81,3.585-3.657,7.675-5.236,15.709c-2.085,10.605-0.821,10.902-2.618,15.055c-0.717,1.657-4.404,9.664-12.436,13.091
		c-5.977,2.55-8.096-0.11-17.673,2.618c-5.084,1.448-9.287,2.645-10.473,5.891c-0.81,2.217,0.307,3.966,4.582,13.091
		c4.702,10.037,4.746,10.902,4.582,11.782c-1.049,5.611-9.97,8.437-20.945,11.782c-14.048,4.281-15.209,2.106-23.564,5.891
		c-8.51,3.856-13.575,8.953-19.636,15.055c-9.079,9.138-9.214,13.03-9.164,14.4c0.164,4.478,3.236,7.694,5.891,10.473
		c2.309,2.417,7.47,7.107,18.327,10.473c12.524,3.882,14.727,0.453,25.527,4.582c5.787,2.212,9.912,5.015,15.055,8.509
		c7.707,5.237,14.764,11.509,14.4,12c-0.125,0.168-1.182-0.259-5.236-2.836"/>
	<path style="fill:none;stroke:#00FF00;stroke-miterlimit:10;" d="M2000,820.945c-2.223-1.541-7.521-4.744-14.618-4.582
		c-6.188,0.142-10.714,2.772-13.745,4.582c-6.902,4.121-6.34,6.869-13.091,11.127c-3.698,2.333-9.641,6.081-16.364,4.582
		c-4.484-1-9.982-4.484-10.473-9.164c-0.332-3.165,1.75-5.706,4.582-9.164c4.59-5.603,7.246-5.364,11.127-10.473
		c1.972-2.596,4.292-5.648,4.582-9.818c0.281-4.037-1.991-7.765-6.545-15.055c-3.937-6.301-4.893-6.497-7.2-11.127
		c-1.485-2.981-3.167-6.42-3.927-11.127c-0.662-4.099-0.232-7.37,0.655-13.745c1.066-7.662,1.599-11.494,3.273-15.055
		c3.273-6.962,8.431-10.91,10.473-12.436c6.385-4.773,8.534-3.064,17.018-7.855c5.017-2.833,11.289-6.375,15.055-13.091
		c2.005-3.577,2.455-8.76,3.273-18.982c0.705-8.81,0.614-14.115,1.964-24.218c0.876-6.559,1.687-10.101,4.582-13.091
		c3.032-3.131,6.921-4.18,9.382-4.582"/>
</g>
</svg>
