<?xml version="1.0" encoding="iso-8859-1"?>
<!-- Generator: Adobe Illustrator 24.2.3, SVG Export Plug-In . SVG Version: 6.00 Build 0)  -->
<svg version="1.1" xmlns="http://www.w3.org/2000/svg" xmlns:xlink="http://www.w3.org/1999/xlink" x="0px" y="0px"
	 viewBox="0 0 2000 2000" style="enable-background:new 0 0 2000 2000;" xml:space="preserve">
<g id="Layer_1" style="display:none;">
	<image style="display:inline;overflow:visible;" width="2000" height="2000" xlink:href="N10_2_1 - Copy.jpeg" >
	</image>
</g>
<g id="Layer_2">
	<path style="fill:none;stroke:#00FF00;stroke-miterlimit:10;" d="M1827,0c1.834,4.149,4.734,10.147,9,17
		c4.621,7.424,7.014,11.194,11,14c7.237,5.095,11.799,1.165,23,4c7.861,1.99,13.574,6.326,25,15c11.936,9.061,11.307,10.956,21,18
		c12.058,8.763,14.401,6.825,27,15c12.664,8.217,11.5,10.955,29,25c14.656,11.762,28.046,19.933,28,20c-0.013,0.019-1.085-0.677-6-4
		"/>
	<path style="fill:none;stroke:#00FF00;stroke-miterlimit:10;" d="M2000,526c-12.563,12.346-17.385,17.578-17,18
		c0.405,0.444,6.302-4.708,7-4c0.749,0.759-5.756,6.957-13,18c-5.452,8.311-4.782,9.396-8,12c-5.764,4.665-9.433,2.414-18,7
		c-3.432,1.837-12.072,6.462-12,12c0.06,4.672,6.267,5.702,16,14c10.092,8.603,15.599,17.878,18,22c3.701,6.353,5.588,11.568,9,21
		c4.995,13.807,5.089,18.476,10,25c4.272,5.675,9.402,9.053,13,11"/>
	<path style="fill:none;stroke:#00FF00;stroke-miterlimit:10;" d="M2000,1246c-5.852,0.78-14.597,2.213-25,5
		c-15.151,4.058-15.999,6.214-26,8c-11.779,2.103-12.284-0.587-35,0c-17.256,0.446-18.974,2.05-26,0c-7.661-2.236-9.912-5.396-22-13
		c-6.402-4.027-12.268-7.018-24-13c-25.995-13.255-38.992-19.882-51-20c-13.739-0.135-14.297,5.029-26,3
		c-16.473-2.856-23.808-14.551-31-11c-4.693,2.317-2.431,7.722-9,17c-5.842,8.25-13.46,12.21-17,14c-5.332,2.696-17.194,8.693-29,5
		c-13.03-4.076-15.229-16.589-25-16c-5.224,0.315-5.971,3.976-12,7c-14.248,7.147-24.473-6.076-44-5
		c-18.239,1.005-17.886,13.014-40,16c-7.485,1.011-6.052-0.564-35-3c-28.175-2.371-36.447-1.461-40-1
		c-12.717,1.651-20.781,4.795-29,8c-10.97,4.277-19.682,7.779-20,13c-0.417,6.844,13.953,10.704,13,15
		c-0.883,3.982-13.777,3.137-32,5c-28.76,2.94-27.98,8.245-43,7c-21.292-1.766-23.255-12.461-41-11c-9.057,0.745-7.628,3.456-33,12
		c-14.058,4.734-21.285,7.119-31,8c-3.757,0.341-15.41,1.161-30-2c-18.278-3.959-19.57-9.487-31-9c-12.467,0.532-13.263,7.208-26,8
		c-11.245,0.699-16.134-4.162-31-9c-8.401-2.734-20.772-5.716-37-6"/>
	<path style="fill:none;stroke:#00FF00;stroke-miterlimit:10;" d="M1079,1341c3.939-2.185,9.969-4.701,17-4
		c7.618,0.76,8.966,4.554,17,7c10.998,3.348,13.462-2.245,30-1c4.731,0.356,10.487,1.571,22,4c11.745,2.478,14.75,3.653,19,2
		c7.082-2.754,6.252-8.935,13-13c6.149-3.704,11.815-1.569,27,1c0,0,11.207,1.896,36,4c15.356,1.303,27.123,1.124,34,1
		c20.344-0.366,36.476-2.466,48-4c24.96-3.323,27.071-5.412,40-5c6.291,0.2,14.861,1.8,32,5c14.083,2.629,26.118,4.876,42,9
		c20.366,5.288,19.313,6.459,27,7c14.066,0.99,17.934-2.906,35-2c6.608,0.351,13.962,0.797,23,4c14.229,5.043,22.449,13.313,27,18
		c5.855,6.03,9.874,10.284,9,15c-0.563,3.036-3.187,6.444-15,11c-13.813,5.328-25.865,6.701-43,8c-15.224,1.154-12.525,0.586-33,2
		c-22.675,1.565-25.271,2.212-35,2c-12.678-0.276-14.068-1.501-25-1c-6.553,0.3-15.571,1.176-26,4c-9.666,2.617-14.499,3.925-19,8
		c-1.439,1.302-10.74,9.722-9,21c0.109,0.708,1.571,9.294,9,14c9.288,5.884,17.194-1.081,33,1c11.695,1.54,10.464,5.76,25,10
		c12.292,3.585,22.861,3.057,44,2c16.207-0.81,19.986-2.303,35-2c8.766,0.177,18.86,0.916,20,1c11.722,0.869,13.438,1.494,22,2
		c4.856,0.287,14.346,0.679,25,0c18.455-1.176,17.357-4.096,28-4c12.113,0.109,13.229,3.889,40,11c15.678,4.165,14.757,2.725,25,6
		c5.141,1.644,18.855,6.317,35,16c7.854,4.71,9.489,6.532,26,19c27.107,20.469,40.661,30.704,53,37c10.267,5.238,15.671,6.82,27,14
		c7.334,4.649,14.923,9.526,23,18c5.791,6.075,13.614,14.282,18,27c4.831,14.008-0.042,17.441,5,25c5.897,8.842,13.893,6.141,35,16
		c15.86,7.408,13.639,10.005,28,16c11.116,4.641,21.804,9.103,36,9c12.355-0.09,20.754-3.59,29,2c3.577,2.425,5.724,5.61,7,8"/>
</g>
</svg>
