<?xml version="1.0" encoding="iso-8859-1"?>
<!-- Generator: Adobe Illustrator 24.2.3, SVG Export Plug-In . SVG Version: 6.00 Build 0)  -->
<svg version="1.1" xmlns="http://www.w3.org/2000/svg" xmlns:xlink="http://www.w3.org/1999/xlink" x="0px" y="0px"
	 viewBox="0 0 2000 2000" style="enable-background:new 0 0 2000 2000;" xml:space="preserve">
<g id="Layer_1" style="display:none;">
	<image style="display:inline;overflow:visible;" width="2000" height="2000" xlink:href="N10_3_2 - Copy.jpeg" >
	</image>
</g>
<g id="Layer_2">
	<path style="fill:none;stroke:#00FF00;stroke-miterlimit:10;" d="M0,50c2.812,3.224,8.015,8.347,16,12
		c10.565,4.834,19.957,4.331,25,4c14.694-0.964,25.048-7.306,29-10c3.972-2.708,11.787-8.166,17-18c2.817-5.314,2.804-8.002,7-21
		c2.364-7.324,4.544-13.209,6-17"/>
	<path style="fill:none;stroke:#00FF00;stroke-miterlimit:10;" d="M0,812c9.26-1.081,15.237,1.501,18,3c4.55,2.47,7.367,5.98,13,13
		c4.876,6.077,5.964,8.507,10,14c1.054,1.434,7.981,10.794,15,17c10.118,8.946,15.181,6.701,34,16c13.689,6.764,23.184,13.968,27,17
		c13.123,10.428,21.045,20.767,25,26c23.9,31.62,30.083,65.88,34,89c5.153,30.418,2.191,44.924,1,50
		c-1.991,8.487-5.505,22.715-17,35c-6.134,6.555-13.829,11.796-20,16c-7.986,5.439-12.134,7.232-21,14
		c-5.356,4.088-6.695,5.611-12,10c-8.716,7.21-15.63,11.809-25,18c-13.544,8.95-23.544,15.495-38,22
		c-12.991,5.846-19.504,7.125-26,7c-7.708-0.148-13.945-2.244-18-4"/>
	<path style="fill:none;stroke:#00FF00;stroke-miterlimit:10;" d="M5,1318c6.902,5.294,13.118,9.201,18,12
		c14.39,8.25,19.714,8.323,29,16c7.533,6.228,5.656,7.524,14,15c11.864,10.629,18.502,10.557,26,17c7.235,6.217,9.922,16.896,15,38
		c10.679,44.376,2.969,47.466,13,66c4.129,7.63,9.829,15.224,8,25c-1.566,8.367-7.007,9.574-8,18c-1.322,11.222,7.793,13.647,7,25
		c-0.458,6.554-3.482,5.548-11,24c-2.952,7.245-4.521,12.397-5,14c-2.159,7.231-1.993,8.833-4,17c-2.88,11.722-4.32,17.583-8,24
		c-5.235,9.129-8.182,7.922-10,14c-2.044,6.832,0.637,13.555,6,27c2.727,6.838,5.187,11.608,9,19c5.369,10.409,8.053,15.614,11,19
		c4.551,5.229,8.205,6.488,23,14c15.706,7.974,23.559,11.962,28,15c11.855,8.11,9.825,10.176,26,23
		c14.22,11.275,17.293,10.871,22,18c6.001,9.089,2.609,12.172,9,25c6.1,12.244,10.057,11.175,16,23c4.71,9.372,2.466,10.525,8,28
		c4.271,13.485,9.109,23.857,12,30c5.775,12.272,7.412,13.318,13,26c7.695,17.463,7.648,22.417,7,26c-1.596,8.817-6.867,9.52-7,17
		c-0.139,7.794,5.508,11.329,12,22c3.241,5.326,7.344,13.503,10,25"/>
</g>
</svg>
