<?xml version="1.0" encoding="iso-8859-1"?>
<!-- Generator: Adobe Illustrator 24.2.3, SVG Export Plug-In . SVG Version: 6.00 Build 0)  -->
<svg version="1.1" xmlns="http://www.w3.org/2000/svg" xmlns:xlink="http://www.w3.org/1999/xlink" x="0px" y="0px"
	 viewBox="0 0 2000 1616" style="enable-background:new 0 0 2000 1616;" xml:space="preserve">
<g id="Layer_1" style="display:none;">
	<image style="display:inline;overflow:visible;" width="2000" height="1616" xlink:href="N10_8_3 - Copy.jpeg" >
	</image>
</g>
<g id="Layer_2">
	<path style="fill:none;stroke:#00FF00;stroke-miterlimit:10;" d="M0,308c2.812-1.446,7.398-3.847,13-7
		c10.681-6.011,13.077-8.009,19-10c6.766-2.274,6.629-0.671,15-3c9.131-2.541,11.054-4.938,20-8c0.948-0.325,8.756-2.954,18-4
		c9.23-1.045,11.684,0.418,34,3c18.156,2.101,20.014,1.535,26,4c3.972,1.635,3.209,1.907,18,11c12.704,7.81,17.389,10.144,17,13
		c-0.492,3.613-8.366,2.644-12,9c-2.501,4.375-0.104,7.167-2,13c-1.213,3.733-3.646,7.053-10,12c-10.736,8.358-21.213,12.443-25,14
		c-8.396,3.451-17.597,9.634-36,22c-14.558,9.783-22.028,16.121-39,26c-6.015,3.501-11.856,6.651-20,8
		c-7.024,1.163-13.549,0.62-21,0c-6.272-0.522-11.433-1.342-15-2"/>
	<path style="fill:none;stroke:#00FF00;stroke-miterlimit:10;" d="M595,0c-0.251,10.197-3.328,14.204-6,16
		c-5.081,3.415-9.821-0.407-19,3c-5.022,1.864-8.311,4.756-12,8c-1.993,1.752-5.825,5.37-11,13c-9.109,13.429-6.014,16.595-12,21
		c-4.811,3.54-7.706,2.219-17.109,8.309c-3.041,1.969-4.912,3.515-6.627,5.572c-1.16,1.39-4.301,5.474-5.264,11.119
		c-0.773,4.532,0.845,6.222,2,14c2.367,15.943,1.523,19.349,1,21c-0.92,2.903-3.626,5.975-9,12c-12.094,13.558-20,21-20,21
		c-2.238,2.107-4.613,4.266-6,8c-1.579,4.253-0.213,6.071-1,11c-0.177,1.111-1.817,11.389-8,14c-5.752,2.43-10.588-3.825-15-1
		c-2.792,1.787-3.328,5.874-4,11c-0.878,6.695,0.923,6.983,0,11c-1.174,5.113-4.305,5.664-13.2,16.436
		c-3.366,4.077-5.05,6.115-5.891,7.855c-3.126,6.462-2.117,11.611-5.909,13.709c-0.525,0.29-0.337,0.077-4.626,1.091
		c0,0-3.598,0.85-7.374,1.909c-8.069,2.264-12.204,3.325-14,6c-1.658,2.469-1.789,5.356-2,10c-0.313,6.883,1.325,8.014,0,11
		c-1.784,4.019-6.406,5.696-10,7c-3.101,1.125-4.077,0.888-12,2c-11.32,1.589-10.793,2.278-14,2c-5.523-0.479-6.034-2.433-14-4
		c-3.733-0.734-6.935-1.364-10-1c-4.045,0.481-9.085,2.839-19,17c-10.632,15.185-9.956,19.786-17,26c-6.768,5.971-14.632,8.111-20,9
		"/>
	<path style="fill:none;stroke:#00FF00;stroke-miterlimit:10;" d="M154,400c-2.751-0.088-8.927,0.105-15,4
		c-2.656,1.704-6.667,4.275-8,9c-1.744,6.179,1.761,13.666,7,17c6.13,3.902,10.609-0.444,18,4c4.835,2.907,4.049,5.447,8.436,7.091
		c2.185,0.819,3.911,0.762,15.709-1.309C190.68,437.932,191.08,437.666,193,438c6.69,1.164,8.748,5.602,12.673,4.4
		c3.317-1.016,3.098-4.567,6.545-6.545c3.903-2.239,6.866,0.96,14.4,1.964c10.092,1.345,18.593-2.272,20.945-3.273
		c6.387-2.717,5.975-4.562,11.782-6.545c7.142-2.439,10.63-0.626,17.018-1.309c10.095-1.079,10.353-6.564,24.218-13.091
		c9.061-4.265,20.929-9.853,32.073-5.891c7.863,2.796,9.3,8.189,17.018,8.509c3.692,0.153,5.288-1.001,15.055-5.236
		c13.005-5.64,19.576-8.448,22.909-7.855c8.181,1.456,7.251,9.255,18.327,15.055c10.568,5.534,21.596,3.766,24.218,3.273
		c10.34-1.943,10.091-6.628,20.945-9.164c8.023-1.874,7.781,0.774,25.527,0c12.496-0.545,19.057-2.139,20.945-2.618
		c4.371-1.11,4.63-1.563,13.745-4.582c19.581-6.484,21.547-5.44,22.255-4.582c2.508,3.043-5.53,10.165-2.618,15.709
		c1.925,3.666,7.441,4.361,14.4,5.236c7.729,0.973,9.097-0.191,18.327,0c13.808,0.286,16.072,3.001,22.909,0.655
		c6.192-2.125,5.45-4.735,11.782-7.2c7.498-2.918,10.666-0.087,23.564,0c16.018,0.108,17.382-4.218,26.182-1.309
		c2.859,0.945,10.202,3.372,15.709,9.818c2.286,2.676,2.622,4.133,5.236,5.891c4.36,2.932,7.513,1.628,13.091,3.927
		c5.149,2.123,4.039,3.884,8.509,5.891c6.345,2.849,8.888-0.563,23.564,0c4.007,0.154,5.436,0.47,8.509,0
		c5.674-0.868,8.714-3.156,11.782-4.582c8.201-3.813,11.535,0.891,25.527,0c11.132-0.709,10.957-3.818,22.909-4.582
		c8.489-0.542,16.241-1.038,20.945,3.273c4.718,4.323,4.595,11.853,1.964,28.145c-6.099,37.766-9.592,59.396-23.564,64.145
		c-7.259,2.468-12.195-1.373-17.673,3.273c-6.684,5.669-2.846,14.37-9.818,20.291c-5.277,4.481-8.862,0.673-17.018,4.582
		c-4.442,2.128-9.349,8.866-18.982,22.255c-7.508,10.435-10.091,14.921-16.364,17.018c-3.878,1.296-5.862,0.575-7.855,2.618
		c-4.015,4.117,0.035,11.154,0,20.945c-0.034,9.534-3.924,16.512-7.855,23.564c-7.288,13.074-17.092,20.129-22.909,24.218
		c-5.185,3.645-12.908,8.969-24.218,11.782c-12.075,3.003-22.033,1.599-33.382,0c-18.127-2.555-19.433-6.337-30.764-5.236
		c-10.217,0.992-12.01,4.345-21.6,3.927c-9.864-0.43-11.221-4.119-21.6-5.891c-10.001-1.708-17.673,0.193-30.109,3.273
		c-12.785,3.167-21.073,7.429-28.145,11.127c-10.5,5.491-12.573,8.235-13.745,10.473c-4.79,9.14,0.154,19.896,0.655,20.945
		c0.966,2.024,2.527,5.208,5.891,7.854c9.117,7.173,21.991,2.935,22.909,2.618c9.2-3.178,8.304-8.542,18.327-12.436
		c2.463-0.957,10.641-4.135,18.982-1.309c6.583,2.23,6.639,5.954,15.055,11.782c3.105,2.15,10.329,7.041,20.291,8.509
		c12.994,1.914,24.079-2.964,26.182-3.927c4.629-2.121,5.991-3.722,11.127-5.236c1.857-0.547,8.91-2.627,15.709-1.309
		c13.078,2.534,13.452,15.354,30.764,23.564c3.243,1.538,7.041,3.339,12.436,3.927c12.509,1.365,17.405-5.552,26.182-3.273
		c8.448,2.193,12.961,10.952,14.4,13.745c3.85,7.473,0.747,9.23,3.927,29.455c1.306,8.304,2.294,10.969,1.964,17.018
		c-0.361,6.598-1.747,7.283-1.964,14.4c-0.263,8.633,1.644,12.015-0.655,14.4c-2.915,3.025-9.414,1.149-11.127,0.655
		c-14.34-4.139-16.899-18.755-24.873-18.327c-4.762,0.255-4.976,5.529-11.782,10.473c-13.875,10.078-36.804,5.458-37.964,0
		c-0.899-4.232,11.487-8.03,10.473-11.782c-1.105-4.084-17.658-6.505-30.109,0.655c-8.724,5.016-6.466,9.579-16.364,15.709
		c-8.126,5.033-17.705,6.946-25.527,8.509c-9.482,1.894-11.684,1.106-15.055,3.927c-5.031,4.211-3.629,8.9-9.818,15.709
		c-2.037,2.242-5.035,5.539-9.818,7.2c-6.862,2.382-10.618-0.959-22.909-1.309c-5.24-0.149-8.249-0.235-11.782,0.655
		c-9.033,2.274-11.413,8.384-26.836,24.218c-12.319,12.647-16.348,14.445-20.291,15.055c-5.636,0.871-7.768-1.201-13.091,0.655
		c-7.508,2.617-11.408,9.575-13.745,13.745c-4.723,8.426-5.333,16.696-5.236,21.6"/>
	<path style="fill:none;stroke:#00FF00;stroke-miterlimit:10;" d="M157.236,738.909c-4.436,7.289-10.84,5.011-16.364,11.782
		c-4.844,5.938-4.691,13.542-4.582,18.982c0.082,4.076,0.244,12.104,5.891,19.636c1.312,1.75,5.621,7.075,13.091,9.818
		c10.205,3.747,19.909,0.325,30.109-3.273c11.978-4.224,11.905-7.071,22.909-9.818c9.712-2.425,12.006-0.766,16.364-3.927
		c8.137-5.903,8.868-18.019,9.164-22.909c0.214-3.553-0.73-8.696-2.618-18.982c-1.694-9.229-2.669-11.393-4.582-13.091
		c-3.876-3.441-6.881-0.777-13.091-3.927c-6.848-3.474-5.779-8.025-12.436-11.127c-0.834-0.389-8.089-3.648-14.4-0.655
		c-6.221,2.951-4.599,8.694-11.127,12.436c-5.85,3.354-9.622,0.157-13.745,3.927C158.35,730.953,160.305,733.867,157.236,738.909z"
		/>
	<path style="fill:none;stroke:#00FF00;stroke-miterlimit:10;" d="M0,18.255c2.479-1.064,6.198-2.248,10.618-1.964
		c7.638,0.491,10.284,4.91,20.291,9.164c7.516,3.195,12.673,5.386,18.327,3.927c7.122-1.838,6.775-7.337,17.018-13.745
		c1.537-0.962,13.465-8.424,18.327-4.582c2.765,2.185,0.85,6.132,3.927,11.127c2.549,4.137,6.774,6.155,9.818,7.2"/>
</g>
</svg>
