<?xml version="1.0" encoding="iso-8859-1"?>
<!-- Generator: Adobe Illustrator 24.2.3, SVG Export Plug-In . SVG Version: 6.00 Build 0)  -->
<svg version="1.1" xmlns="http://www.w3.org/2000/svg" xmlns:xlink="http://www.w3.org/1999/xlink" x="0px" y="0px"
	 viewBox="0 0 2000 1616" style="enable-background:new 0 0 2000 1616;" xml:space="preserve">
<g id="Layer_1" style="display:none;">
	<image style="display:inline;overflow:visible;" width="2000" height="1616" xlink:href="N10_8_2 - Copy.jpeg" >
	</image>
</g>
<g id="Layer_2">
	<path style="fill:none;stroke:#00FF00;stroke-miterlimit:10;" d="M1857.309,755.055c-2.662,2.657-8.925,8.909-10.473,18.327
		c-1.301,7.917,1.367,14.198,3.491,19.2c2.453,5.776,5.346,12.589,12.218,16.582c5.822,3.383,12.026,2.837,24.436,1.745
		c10.687-0.94,16.031-1.41,19.2-4.364c6.864-6.397,1.934-15.234,9.6-22.691c4.396-4.276,6.821-2.153,12.218-6.982
		c1.397-1.25,9.286-8.596,8.727-19.2c-0.448-8.505-6.062-13.995-9.6-17.455c-3.009-2.942-10.073-9.851-19.2-9.6
		c-7.409,0.203-8.418,4.911-17.454,5.236c-7.201,0.259-8.784-2.651-13.091-0.873c-4.476,1.848-4.119,5.548-10.473,12.218
		C1862.454,751.876,1861.569,750.803,1857.309,755.055z"/>
	<path style="fill:none;stroke:#00FF00;stroke-miterlimit:10;" d="M2000,315.2c-2.72,5.655-7.321,12.779-15.273,17.455
		c-5.72,3.363-7.855,2.333-13.964,6.109c-6.179,3.819-6.143,6.201-16.582,17.455c-9.474,10.213-11.383,10.276-13.964,15.709
		c-1.262,2.657-4.482,9.693-2.618,18.327c0.464,2.152,2.449,11.345,9.6,14.836c3.326,1.624,4.858,0.592,17.455,0
		c8.216-0.386,12.324-0.579,16.582,0c4.418,0.601,11.072,2.201,18.764,6.982"/>
	<path style="fill:none;stroke:#00FF00;stroke-miterlimit:10;" d="M1900.945,3.636c8.457,5.165,15.344,6.158,20.073,6.109
		c10.481-0.108,13.51-5.365,23.564-4.364c5.08,0.506,4.218,1.84,18.327,6.982c10.018,3.651,15.145,5.471,20.945,5.236
		c7.208-0.292,12.84-3.164,16.146-5.236"/>
</g>
</svg>
