<?xml version="1.0" encoding="iso-8859-1"?>
<!-- Generator: Adobe Illustrator 24.2.3, SVG Export Plug-In . SVG Version: 6.00 Build 0)  -->
<svg version="1.1" xmlns="http://www.w3.org/2000/svg" xmlns:xlink="http://www.w3.org/1999/xlink" x="0px" y="0px"
	 viewBox="0 0 2000 2000" style="enable-background:new 0 0 2000 2000;" xml:space="preserve">
<g id="Layer_1" style="display:none;">
	<image style="display:inline;overflow:visible;" width="2000" height="2000" xlink:href="N10_4_2 - Copy.jpeg" >
	</image>
</g>
<g id="Layer_2">
	<path style="fill:none;stroke:#00FF00;stroke-miterlimit:10;" d="M417,2000c-5.674-20.136-14.43-32.734-21.509-40.582
		c-5.182-5.745-12.851-12.698-26.182-27.927c-9.77-11.162-13.551-16.452-12.218-21.818c0.326-1.313,1.587-5.158,15.709-12.218
		c13.682-6.84,17.701-5.832,29.673-11.345c10.478-4.825,18.274-8.416,24.436-16.582c6.067-8.04,4.015-11.856,12.218-24.436
		c4.862-7.456,7.636-11.711,13.091-14.836c8.354-4.786,12.196-0.736,25.309-4.364c5.536-1.531,14.808-4.096,21.818-12.218
		c6.403-7.418,7.663-15.7,8.727-22.691c1.022-6.717,2.159-14.185-1.745-20.945c-3.154-5.461-7.085-6.108-11.345-9.6
		c-11.141-9.13-10.918-27.323-10.473-63.709c0.145-11.859,0.89-18.84,1.745-24.436c1.124-7.354,1.653-7.175,5.236-23.564
		c3.896-17.819,3.556-19.338,6.109-22.691c5.1-6.699,10.098-5.421,20.073-12.218c2.803-1.91,13.183-8.984,18.327-20.073
		c8.724-18.807,0.419-44.924-9.6-47.127c-4.482-0.986-6.873,3.35-10.473,1.745c-6.109-2.723-1.256-16.117-7.855-32.291
		c-3.17-7.77-10.131-18.995-16.582-18.327c-6.204,0.642-5.654,11.634-15.709,16.582c-4.345,2.138-9.588,1.716-20.073,0.873
		c-16.119-1.297-16.063-4.128-25.309-3.491c-11.112,0.765-14.059,5.051-21.818,2.618c-3.369-1.057-6.028-3.032-11.345-6.982
		c-9.348-6.944-8.31-8.699-12.218-10.473c-8.668-3.934-20.362,1.709-34.909,8.727c-8.656,4.177-12.319,7.021-15.709,5.236
		c-5.749-3.027-2.414-15-6.982-16.582c-3.925-1.359-11.994,5.537-13.091,13.091c-0.734,5.053,1.975,8.176,0,10.473
		c-2.501,2.908-7.902-0.867-11.345,1.745c-5.094,3.865,1.98,15.73-2.618,20.073c-4.548,4.296-13.531-5.363-26.182-2.618
		c-9.318,2.022-8.781,8.203-21.818,14.836c-3.536,1.799-14.318,7.285-27.055,6.109c-13.649-1.26-14.19-8.753-27.927-11.345
		c-18.4-3.472-31.856,7.248-34.909,2.618c-0.556-0.843-0.972-2.505,8.727-21.818c4.937-9.831,6.256-11.811,5.236-13.964
		c-2.607-5.507-18.065-6.989-27.055,0c-7.2,5.598-3.989,11.761-11.345,18.327c-7.171,6.401-12.106,2.224-26.182,8.727
		c-11.561,5.341-10.805,9.347-19.2,11.345c-8.964,2.134-20.054,0.002-27.927-6.982c-8.76-7.771-10.216-18.604-10.473-20.945
		c-0.992-9.054,2.546-13.502,0-15.709c-3.845-3.333-13.076,5.801-27.927,8.727c-10.271,2.024-19.515,0.346-26.327-1.745"/>
	<path style="fill:none;stroke:#00FF00;stroke-miterlimit:10;" d="M0,1419.2c6.827-10.184,14.017-15.423,19.345-18.327
		c5.226-2.849,6.891-2.487,20.945-8.727c7.46-3.312,11.281-5.026,15.709-7.855c8.561-5.468,8.788-8.063,14.836-12.218
		c7.692-5.284,15.601-6.432,31.418-8.727c16.395-2.379,20.367-0.711,26.182-5.236c5.403-4.204,4.35-7.493,10.473-13.964
		c0.718-0.759,8.822-9.125,20.945-12.218c17.779-4.536,26.07,6.896,36.655,0c5.411-3.525,11.247-11.726,12.218-13.091
		c3.341-4.695,2.846-5.307,5.236-7.855c5.506-5.866,10.546-5.189,17.455-9.6c3.278-2.093,3.775-3.287,11.345-12.218
		c13.496-15.921,13.329-13.792,20.073-22.691c4.296-5.669,7.519-11.052,13.964-21.818c7.705-12.871,8.598-15.817,8.727-19.2
		c0.218-5.704-1.98-6.244-5.236-18.327c-3.38-12.541-1.419-13.466-4.364-20.073c-4.025-9.032-10.82-14.326-14.836-17.455
		c-3.902-3.04-4.585-2.781-20.945-11.345c-14.661-7.675-14.434-8.052-17.455-8.727c-7.361-1.645-8.625,0.612-25.309,0.873
		c-10.888,0.17-11.996-0.765-14.836,0.873c-8.299,4.786-4.374,15.969-11.345,20.073c-2.875,1.692-5.947,1.207-30.545-7.854
		c-15.338-5.65-16.1-6.182-19.2-6.109c-9.719,0.229-9.947,5.64-27.055,10.473c-6.556,1.852-10.578,2.203-13.964,6.109
		c-3.691,4.258-1.923,7.313-5.236,10.473c-5.441,5.189-16.723,3.165-23.564,0c-6.132-2.838-5.862-5.281-10.473-6.109
		c-8.436-1.515-13.901,5.846-17.455,3.491c-3.901-2.586,1.145-12.475-2.618-15.709c-2.146-1.844-7.401-1.731-21.091,6.982"/>
	<path style="fill:none;stroke:#00FF00;stroke-miterlimit:10;" d="M0,957.527c8.361-6.204,15.761-8.589,21.091-9.6
		c11.297-2.142,15.985,1.379,24.436-2.618c7.824-3.701,6.473-7.981,14.836-13.091c9.32-5.695,12.793-1.476,26.182-6.109
		c11.506-3.981,20.34-11.041,26.182-15.709c7.007-5.599,8.44-8.125,14.836-11.345c6.97-3.509,9.164-2.472,16.582-6.109
		c7.732-3.791,12.816-8.579,15.709-11.345c9.694-9.27,8.426-13.329,15.709-17.455c5.139-2.911,6.437-1.268,17.455-4.364
		c10.962-3.08,10.503-4.939,20.073-7.855c16.485-5.023,22.907-1.05,27.927-6.982c4.808-5.681,0.533-11.236,5.236-15.709
		c3.153-2.998,7.692-2.993,28.8,0c19.082,2.706,23.069,3.793,27.055,0.873c5.318-3.896,3.073-9.387,8.727-18.327
		c4.689-7.415,10.437-10.285,17.455-14.836c3.124-2.026,23.604-15.501,37.527-34.036c7.279-9.69,11.142-18.601,17.455-33.164
		c5.789-13.355,8.862-23.664,9.6-26.182c3.93-13.411,5.472-23.698,6.982-34.036c1.672-11.452,3.69-25.682,3.491-44.509
		c-0.114-10.813-0.238-22.527-3.491-37.527c-3.012-13.886-7.198-23.641-11.345-33.164c-3.531-8.108-5.659-11.776-38.4-62.836
		c-4.381-6.833-7.43-11.51-13.091-16.582c-9.54-8.547-13.904-6.93-27.055-16.582c-10.127-7.432-9.348-9.719-19.2-15.709
		c-4.436-2.697-8.776-4.707-17.455-8.727c-8.211-3.803-12.317-5.705-16.582-6.982c-8.014-2.399-12.51-1.968-21.818-2.618
		c-15.94-1.114-30.556-2.135-44.509-9.6c-9.649-5.162-9.526-8.347-16.582-9.6c-9.918-1.761-13.617,3.92-27.055,4.364
		c-9.91,0.327-9.237-2.718-21.818-3.491c-15.21-0.934-17.741,3.421-29.673,1.745c-10.277-1.443-9.103-4.773-22.691-8.727
		c-3.704-1.078-4.236-0.96-34.909-4.364c-10.431-1.158-16.394-1.852-24.436-4.364C7.583,388.489,3.066,386.502,0,385.018"/>
	<path style="fill:none;stroke:#00FF00;stroke-miterlimit:10;" d="M3.636,234.036c4.654-0.49,11.497-1.85,18.327-6.109
		c4.799-2.992,5.191-4.672,13.091-11.345c4.461-3.769,4.555-3.418,17.455-13.091c12.368-9.274,13.981-10.871,15.709-13.091
		c5.754-7.393,3.768-10.124,7.855-14.836c4.138-4.771,9.604-5.927,36.655-7.854c17.878-1.274,26.817-1.911,32.291-1.745
		c12.653,0.383,22.102,1.95,36.655,4.364c12.46,2.066,25.157,2.685,37.527,5.236c2.894,0.597,7.989,1.703,13.964,0
		c6.552-1.868,9.743-5.855,13.964-9.6c12.388-10.993,17.891-5.919,30.545-15.709c9.816-7.594,5.201-9.638,19.2-23.564
		c9.094-9.046,14.152-11.278,18.327-20.073c1.543-3.25,2.483-7.403,4.364-15.709c2.54-11.219,3.81-16.828,3.491-23.564
		c-0.237-5.007-1.904-10.029-5.236-20.073c-2.286-6.889-5.433-16.246-11.345-27.927C303.775,14.017,300.075,7.36,295.127,0"/>
</g>
</svg>
