<?xml version="1.0" encoding="iso-8859-1"?>
<!-- Generator: Adobe Illustrator 24.2.3, SVG Export Plug-In . SVG Version: 6.00 Build 0)  -->
<svg version="1.1" xmlns="http://www.w3.org/2000/svg" xmlns:xlink="http://www.w3.org/1999/xlink" x="0px" y="0px"
	 viewBox="0 0 2000 2000" style="enable-background:new 0 0 2000 2000;" xml:space="preserve">
<g id="Layer_1" style="display:none;">
	<image style="display:inline;overflow:visible;" width="2000" height="2000" xlink:href="N10_5_2 - Copy.jpeg" >
	</image>
</g>
<g id="Layer_2">
	<path style="fill:none;stroke:#00FF00;stroke-miterlimit:10;" d="M415,5c0.4,5.173,0.561,12.877-1,22
		c-1.644,9.607-3.462,10.638-5,20c-2.409,14.66,1.217,17.184-2,26c-4.125,11.303-13.775,17.266-15,18
		c-11.508,6.896-17.312,0.654-30,7c-5.207,2.604-3.009,3.045-20,19c-12.768,11.989-16.963,14.514-18,21
		c-0.892,5.577,1.806,6.231,2,16c0.202,10.168-2.681,11.486-2,19c0.569,6.282,3.69,17.578,11,20c8.046,2.667,13.939-7.813,22-5
		c6.846,2.389,4.98,10.78,13,15c4.084,2.149,6.8,1.148,22,0c11.239-0.849,16.859-1.273,19-1c14.946,1.908,24.926,15.225,33,26
		c7.054,9.414,13.261,17.697,15,30c1.832,12.966-3.58,14.251-4,36c-0.287,14.823,2.129,19.321-2,25c-5.148,7.081-11.677,3.904-20,12
		c-7.085,6.891-4.607,11.384-12,20c-3.826,4.459-8.884,7.306-19,13c-11.359,6.394-18.965,10.675-30,14
		c-14.953,4.505-20.988,2.67-24,8c-2.072,3.667-0.715,9.111,2,20c2.034,8.159,3.052,12.238,6,16c6.348,8.099,15.716,9.788,17,10
		c11.14,1.837,19.796-4.111,24-7c6.644-4.566,7.425-7.866,12-12c10.32-9.325,24.729-9.143,36-9c25.039,0.317,43.539,10.443,61,20
		c18.94,10.367,31.145,20.985,35.394,24.812c11.774,10.604,20.938,18.858,28.015,32.893c5.95,11.802,3.643,14.24,11.973,31.604
		c7.289,15.194,9.853,14.989,12.218,24.436c1.478,5.904,0.643,6.648,2.618,30.545c0.707,8.553,1.074,12.904,1.745,16.582
		c1.311,7.18,2.923,16.013,7.855,24.436c6.599,11.272,11.382,8.556,19.2,20.073c5.777,8.51,2.974,9.71,11.345,25.309
		c7.849,14.625,12.387,17.434,13.964,18.327c6.896,3.906,12.151,2.31,13.964,6.109c2.381,4.991-5.851,9.503-5.236,17.455
		c0.634,8.208,9.835,8.93,17.455,20.073c6.754,9.877,2.262,13.311,8.727,28.8c2.402,5.754,3.177,5.651,17.455,27.055
		c10.22,15.32,15.372,23.079,17.455,27.927c6.537,15.219,2.995,18.408,9.6,29.673c5.758,9.819,9.525,9.231,19.2,20.945
		c8.066,9.767,12.147,18.287,18.327,31.418c9.145,19.431,7.812,22.334,14.836,38.4c11.322,25.896,19.162,28.363,39.273,66.327
		c3.133,5.913,5.87,11.797,11.345,23.564c8.466,18.195,9.86,22.642,10.473,27.927c1.289,11.115-2.26,13.998-2.618,24.436
		c-0.518,15.096,6.528,20.071,13.964,39.273c9.239,23.856,9.452,44.811,9.6,59.345c0.122,11.988,0.146,23.71-4.364,38.4
		c-3.929,12.797-7.823,25.481-19.2,33.164c-10.633,7.18-17.289,2.894-27.055,11.345c-7.476,6.47-5.737,10.854-13.091,21.818
		c-10.243,15.271-24.391,22.833-32.291,27.054c-11.689,6.247-10.402,2.597-34.036,12.218c-14.48,5.894-26.855,12.105-34.036,15.709
		c-6.561,3.293-4.968,2.651-20.073,10.473c-23.763,12.306-23.737,11.84-26.182,13.964c-13.15,11.422-10.105,21.606-20.945,26.182
		c-6.007,2.536-6.935-0.594-23.564,0c-15.148,0.541-15.466,3.177-26.182,2.618c-13.618-0.71-15.152-5.074-25.309-4.364
		c-4.072,0.285-8.791,1.333-24.436,10.473c-20.757,12.125-19.712,14.52-32.291,20.945c-14.885,7.603-16.037,4.091-34.909,13.091
		c-15.619,7.449-15.657,10.249-26.182,13.091c-12.994,3.509-26.314,2.854-30.545,2.618c-13.445-0.748-15.962-3.341-21.818-0.873
		c-8.861,3.735-8.006,11.74-16.582,19.2c-8.414,7.319-14.367,4.075-32.291,8.727c-20.182,5.238-17.678,10.659-44.509,20.073
		c-14.216,4.988-17.445,4.352-32.291,10.473c-1.256,0.518-0.358,0.161-24.436,12.218c-12.394,6.206-17.576,8.776-17.455,12.218
		c0.109,3.082,4.356,3.692,9.6,8.727c2.856,2.742,3.647,4.531,10.473,19.2c6.413,13.783,9.724,20.75,14.836,24.436
		c2.342,1.689,2.17,1.011,8.727,4.364c11.274,5.764,16.025,9.935,22.691,13.964c10.992,6.642,21.038,9.176,26.182,10.473
		c7.343,1.852,25.108,6.12,45.382,0.873c14.241-3.686,13.677-7.914,26.182-9.6c12.679-1.709,14.721,2.44,32.291,2.618
		c5.68,0.057,18.197-0.247,32.291-4.364c17.37-5.073,15.611-9.649,28.8-13.091c21.773-5.682,28.681,6.236,48.873-0.873
		c10.719-3.774,19.884-11.045,23.564-13.964c11.168-8.86,10.121-11.957,17.455-15.709c8.638-4.419,12.946-1.583,35.782-2.618
		c15.505-0.703,23.257-1.054,27.927-3.491c13.416-7,11.633-18.168,27.055-25.309c7.817-3.62,15.712-4.194,18.327-4.364
		c10.675-0.691,11.823,2.39,19.2,1.745c11.728-1.025,12.816-9.16,31.418-18.327c7.395-3.644,13.424-6.615,21.818-6.982
		c10.096-0.441,12.933,3.352,26.182,6.109c5.424,1.129,17.837,3.712,31.418,0.873c7.403-1.548,10.236-3.679,32.291-15.709
		c12.725-6.941,19.088-10.412,24.436-13.091c5.821-2.916,26.435-12.959,54.109-20.073c18.69-4.804,28.036-7.206,40.145-7.855
		c11.165-0.598,17.906,0.384,26.182-4.364c7.062-4.051,11.292-10.007,16.582-17.454c4.5-6.336,8.072-13.098,12.218-20.945
		c4.877-9.233,4.369-9.325,6.109-11.345c5.704-6.625,16.468-11.793,27.055-9.6c11.8,2.444,17.72,12.862,21.818,20.073
		c2.56,4.504,4.65,12.955,8.727,29.673c6.471,26.534,6.71,27.611,7.855,31.418c3.403,11.32,5.008,14.164,7.854,25.309
		c5.558,21.757,3.053,25.047,1.745,26.182c-4.75,4.123-13.5-2.999-17.455,0.873c-3.626,3.55,1.793,11.434,5.236,29.673
		c2.274,12.044,3.36,18.21,0.873,25.309c-3.422,9.765-11.671,16.465-13.964,18.327c-7.765,6.307-12.051,5.811-14.836,11.345
		c-3.084,6.129,1.038,8.988-0.873,16.582c-3.069,12.199-15.612,12.391-16.582,21.818c-0.941,9.143,10.35,13.887,7.925,21.354
		c-1.438,4.427-5.674,3.588-11.416,10.064c-0.931,1.05-7.174,8.263-7.854,17.454c-0.77,10.394,6.442,11.578,7.854,23.564
		c0.329,2.791-1.231,10.626-4.364,26.182c-2.352,11.677-3.295,15.451-0.873,18.327c3.291,3.909,10.247,3.131,14.836,2.618
		c6.433-0.719,11.584-2.987,20.073-7.855c11.042-6.332,13.673-9,19.2-12.218c11.618-6.766,14.351-3.338,35.782-9.6
		c22.182-6.482,32.474-14.017,39.273-8.727c4.232,3.292,3.216,8.523,6.982,9.6c5.31,1.518,10.5-7.976,19.2-15.709
		c10.961-9.743,26.808-16.082,41.018-15.709c13.023,0.341,22.354,6.337,41.018,18.327c13.941,8.957,20.912,13.435,25.309,19.2
		c23.163,30.37,8.534,91.122-4.364,108.218c-1.259,1.668-6.399,8.089-4.364,13.091c1.947,4.785,8.86,4.346,10.473,9.6
		c1.188,3.869-2.054,5.76-0.873,10.473c0.906,3.615,3.447,5.037,6.109,7.855c2.86,3.027,6.205,8.031,7.855,16.582"/>
	<path style="fill:none;stroke:#00FF00;stroke-miterlimit:10;" d="M1388.655,2000c-1.626-10.539-4.08-18.965-6.109-24.873
		c-2.629-7.655-4.2-12.121-7.854-17.454c-3.426-5-8.551-12.48-17.455-15.709c-9.798-3.553-15.61,1.145-20.073-3.491
		c-4.444-4.617-1.161-11.855-5.236-13.964c-2.624-1.357-6.109,0.545-11.345,3.491c-10.547,5.934-9.744,9.314-14.836,10.473
		c-7.764,1.767-10.995-5.78-22.691-5.236c-3.661,0.17-8.341,0.387-10.473,3.491c-3.381,4.923,4.136,10.577,3.491,21.818
		c-0.573,9.984-6.997,14.132-4.364,18.327c2.493,3.972,8.916,1.311,14.836,6.109c3.938,3.192,5.448,7.895,6.109,11.345"/>
	<path style="fill:none;stroke:#00FF00;stroke-miterlimit:10;" d="M1218.473,1868.655c2.615-8.81,2.282-15.912,1.746-20.073
		c-0.781-6.061-1.565-12.144-6.109-14.836c-4.556-2.699-10.368-0.493-13.964,0.873c-8.141,3.091-8.779,6.908-18.327,13.964
		c-11.462,8.47-15.135,6.363-20.073,13.091c-5.432,7.401-1.744,10.981-6.982,16.582c-4.34,4.64-7.578,2.939-23.564,9.6
		c-6.845,2.853-10.324,4.333-13.091,6.982c-5.921,5.669-4.328,9.785-9.6,14.836c-2.113,2.024-4.097,3.018-18.327,6.982
		c-17.953,5.001-17.922,4.291-21.818,6.109c-8.448,3.943-10.176,8.02-19.2,15.709c-9.952,8.48-22.949,14.799-26.182,16.582
		c-7.052,3.891-12.641,6.54-12.218,7.855c0.444,1.379,6.999-0.292,18.327,0.873c5.738,0.59,10.705,1.147,11.345,3.491
		c0.812,2.973-5.798,7.125-6.982,7.854"/>
	<path style="fill:none;stroke:#00FF00;stroke-miterlimit:10;" d="M1104.146,2000c2.418-3.746,6.519-8.931,13.091-12.655
		c3.443-1.95,7.288-3.072,14.836-5.236c14.819-4.248,17.63-3.674,20.073-6.982c4.122-5.581-0.306-12.056,3.491-14.836
		c3.589-2.628,11.523,0.244,15.709,5.236c2.669,3.183,3.27,7.984,4.364,17.454c0.875,7.584,1.462,16.953,0.873,17.018
		c-0.229,0.025-0.699-1.355-1.745-7.418"/>
	<path style="fill:none;stroke:#00FF00;stroke-miterlimit:10;" d="M1198.4,1890.473c-7.198,9.234-7.444,14.4-6.109,17.455
		c2.715,6.213,12.199,4.22,19.2,13.091c1.07,1.356,6.15,8.121,4.364,14.836c-0.594,2.234-1.708,3.559-10.473,11.345
		c-9.786,8.694-11.111,9.452-12.218,12.218c-2.204,5.507-1.458,13.756,3.491,17.455c6.349,4.745,16.21-0.546,20.073-2.618
		c7.914-4.246,11.826-10.759,13.091-13.091c0.959-1.768,1.457-3.09,4.364-14.836c3.758-15.184,3.912-16.96,6.109-20.073
		c3.683-5.22,8.524-7.704,12.218-9.6c4.993-2.562,11.824-6.067,19.2-4.364c8.059,1.861,9.706,8.308,14.836,7.855
		c3.135-0.277,7.178-3.097,11.345-13.964"/>
	<path style="fill:none;stroke:#00FF00;stroke-miterlimit:10;" d="M347.491,1900.945c-3.211,2.021-9.411,5.923-10.473,13.091
		c-0.916,6.189,2.356,12.394,6.982,15.709c7.943,5.693,18.16,1.633,20.073,0.873c8.64-3.433,7.608-8.589,16.582-12.218
		c8.023-3.245,11.617-0.244,16.582-4.364c3.518-2.918,6.513-8.406,5.236-13.964c-1.766-7.692-10.502-10.241-11.345-10.473
		c-3.262-0.897-8.037,0.263-17.455,2.618c-6.536,1.635-11.049,3.114-14.836,4.364
		C352.652,1898.623,349.519,1899.669,347.491,1900.945z"/>
	<path style="fill:none;stroke:#00FF00;stroke-miterlimit:10;" d="M732.364,1064.873c-3.373-1.181-5.496,2.344-18.327,10.473
		c-8.039,5.093-10.62,5.872-12.218,9.6c-1.908,4.451-1.551,11.083,1.745,13.091c4.209,2.564,9.105-4.915,20.945-6.109
		c1.714-0.173,13.838-1.249,18.327,5.236c3.689,5.33-0.209,12.253,1.745,13.091c2.478,1.063,12.249-8.553,10.473-16.582
		c-1.453-6.567-9.25-5.831-15.709-15.709C734.628,1070.749,736.045,1066.162,732.364,1064.873z"/>
	<path style="fill:none;stroke:#00FF00;stroke-miterlimit:10;" d="M650.327,1150.4c4.456,0.268,14.305,0.862,15.709,5.236
		c1.434,4.469-6.005,12.696-14.836,15.709c-12.328,4.206-17.739-5.036-34.909-3.491c-7.613,0.685-5.337,2.393-25.309,7.855
		c-21.962,6.006-27.02,4.572-29.673,3.491c-7.494-3.053-7.337-7.985-15.709-10.473c-6.964-2.069-13.224-0.484-18.327,0.873
		c-11.041,2.936-17.902,8.191-22.691,11.345c-21.364,14.074-44.327,14.571-44.509,13.964c-0.316-1.054,65.486-13.61,72.436-41.018
		c0.908-3.581,1.966-11.966,8.727-17.454c5.204-4.224,8.485-2.428,15.709-6.982c9.667-6.094,10.33-13.432,14.836-13.091
		c4.759,0.361,4.542,8.585,13.091,17.454c4.804,4.985,9.509,7.198,18.327,11.345c10.1,4.751,16.545,7.782,25.309,7.855
		C637.813,1153.095,639.612,1149.754,650.327,1150.4z"/>
	<path style="fill:none;stroke:#00FF00;stroke-miterlimit:10;" d="M323.055,427.782c-1.617-2.961-16.811,2.899-18.327,3.491
		c-4.223,1.649-11.699,4.568-11.345,6.982c0.335,2.284,7.651,3.923,13.964,2.618C316.854,438.907,324.375,430.201,323.055,427.782z"
		/>
</g>
</svg>
