<?xml version="1.0" encoding="iso-8859-1"?>
<!-- Generator: Adobe Illustrator 24.2.3, SVG Export Plug-In . SVG Version: 6.00 Build 0)  -->
<svg version="1.1" xmlns="http://www.w3.org/2000/svg" xmlns:xlink="http://www.w3.org/1999/xlink" x="0px" y="0px"
	 viewBox="0 0 2000 2000" style="enable-background:new 0 0 2000 2000;" xml:space="preserve">
<g id="Layer_1" style="display:none;">
	<image style="display:inline;overflow:visible;" width="2000" height="2000" xlink:href="N10_1_2 - Copy.jpeg" >
	</image>
</g>
<g id="Layer_2">
	<path style="fill:none;stroke:#00FF00;stroke-miterlimit:10;" d="M0,1593c2.4-2.657,7.133-7.188,11-6c3.326,1.022,2.776,6.209,7,17
		c2.245,5.735,4.044,10.331,7.891,14.618c3.924,4.373,8.02,6.241,15.109,9.382c6.671,2.955,9.22,3.061,25,8
		c11.586,3.626,17.431,5.451,20,6c11.513,2.46,13.345,1.111,18,4c6.126,3.802,11.53,11.461,11,19c-0.375,5.332-3.39,5.945-3,10
		c0.794,8.265,14.079,13.615,20,16c10.778,4.341,14.151,2.609,23,8c9.004,5.486,9.844,9.918,10,11c0.677,4.701-2.884,6.458-2,10
		c1.593,6.382,14.296,9.413,22,10c7.486,0.57,10.1-1.174,15,1.2c4.614,2.235,4.391,4.797,9,8.8c9.097,7.901,16.704,2.889,22,10
		c1.47,1.974,1.2,2.509,5,18c2.157,8.792,3.37,13.211,5,18c3.261,9.583,4.954,14.387,8,15c3.655,0.735,6.321-4.371,13-11
		c6.004-5.958,12.336-9.639,25-17c16.041-9.324,17.007-6.998,27-14c6.868-4.812,14.609-10.235,20-20c2.486-4.502,3.99-12.335,7-28
		c1.872-9.743,3.067-16.047,4-25c1.825-17.514,2.012-20.723,1-24c-0.91-2.945-2.414-6.156-3.309-11.964
		c-0.883-5.727,0.097-5.741-0.691-10.036c-1.366-7.447-4.529-8.602-6.69-17.025c-1.093-4.262-0.266-3.9-1.31-8.975
		c-1.667-8.108-4.814-13.919-7-18c-2.688-5.019-5.792-9.012-12-17c-3.891-5.007-7.985-10.274-14-17c-7.488-8.372-9.15-9.162-12-14
		c-4.102-6.965-1.999-8.402-6-15c-1.702-2.807-5.839-9.629-13.618-13.436c-3.917-1.917-5.772-1.608-11.574-4.647
		c-3.693-1.934-4.44-2.844-7.807-4.916c-10.888-6.702-15.381-4.764-18-9c-2.012-3.254,0.224-5.187,2-17
		c1.738-11.56-0.048-11.954,1.782-22.473c1.897-10.904,3.866-10.763,3.927-17.891c0.042-4.934-0.895-5.765-2.618-17.891
		c-1.893-13.323-1.158-15.102-0.091-15.745c3.268-1.97,9.338,6.985,14,5c4.959-2.112,4.228-14.23,4-18
		c-0.24-3.981-0.683-11.308-5-19c-8.347-14.87-19.052-10.754-29-25c-7.854-11.246-3.769-17.651-12.948-25.433
		c-6.743-5.717-11.758-4.643-14.597-10.476c-3.063-6.293,1.642-9.871-0.455-20.091c-1.862-9.076-6.776-12.125-5-15
		c2.658-4.303,13.622,2.603,21.6-2.873c7.347-5.042,3.569-14.688,10.4-18.127c4.67-2.351,6.972,1.887,23,3
		c2.684,0.186,5.314,0.255,11.545,0.727c10.67,0.809,11.943,1.291,13.091,2.182c4.765,3.697,1.276,9.704,5.236,15.709
		c3.843,5.828,9.374,3.576,21.818,8.727c15.124,6.261,13.464,12.282,26.309,15.655c8.141,2.137,11.319,0.378,20,4
		c5.585,2.33,9.323,5.168,13,8c10.492,8.079,10.886,12.038,19,19c10.536,9.039,21.43,12.28,24,13c4.456,1.248,15.501,4.342,28,1
		c9.041-2.418,9.753-5.773,30-20c12.477-8.767,24.806-10.959,25-18c0.076-2.752-1.659-3.288-1.316-6.057
		c0.879-7.099,12.621-6.293,17.607-14.852c4.531-7.779-1.918-14.027,3.491-21.818c3.049-4.393,5.895-3.554,10.909-7.854
		c1.51-1.295,6.632-5.986,11.345-24c2.25-8.598,3.13-16.758,4.8-32.727c1.27-12.146,1.91-18.389,2.164-26.691
		c0.306-10.026,0.494-17.36-1-27c-2.113-13.631-3.206-20.685-9-25c-5.633-4.195-10.969-2.273-16.164-8.146
		c-3.821-4.319-1.806-6.346-4.836-9.854c-7.606-8.808-22.88,0.974-34.436-8.473c-3.862-3.157-4.095-5.834-8.564-7.527
		c-5.836-2.211-8.622,1.149-15-0.764c-6.973-2.092-7.293-7.203-12-7.236c-5.895-0.042-6.455,7.97-13.745,10.291
		c-2.211,0.704-5.679,1.087-24-7.854c-8.322-4.062-8.368-4.512-16.255-8.436c-13.607-6.771-20.411-10.157-26.945-10.764
		c-9.175-0.852-11.267,2.175-17.891-0.436c-2.777-1.095-4.138-2.309-13.164-10.8c-12.637-11.889-12.757-12.132-14.327-13.2
		c-7.833-5.325-10.171-2.884-21.673-7.8c-6.366-2.721-16.78-7.227-24-17c-4.805-6.504-2.556-7.919-9-20
		c-3.448-6.465-7.17-13.524-14-20c-6.331-6.003-8.161-4.727-22.091-13.745c-10.4-6.733-15.6-10.1-20.909-16.255
		c-7.778-9.017-4.597-10.957-13-21c-7.661-9.156-14.442-12.488-13.607-18.005c0.64-4.226,4.984-4.677,5.189-8.886
		c0.198-4.062-3.667-7.36-10.582-13.109c-8.402-6.985-11.14-7.039-12.545-10.891c-1.902-5.211,0.202-13.077,4.8-15.273
		c5.825-2.782,10.832,5.836,23.745,5.164c2.679-0.14,6.985-0.421,10.291-3.418c2.848-2.581,2.174-4.657,4.709-6.582
		c3.121-2.371,6.841-1.273,14.491-0.4c8.359,0.954,6.522-0.06,15.709,0.873c8.163,0.829,20.173,2.048,33.6,6.982
		c16.555,6.083,15.488,10.546,26.2,11.545c8.366,0.78,12.65-1.602,21.967,1.331c5.878,1.851,6.405,3.502,12.033,4.669
		c7.435,1.542,10.915-0.428,18.345-0.527c9.597-0.128,11.667,3.052,20.655,4.527c16.666,2.736,35.939-3.864,37-11
		c0.57-3.832-4.707-7.681-12-13c-8.541-6.23-13.589-10.742-21-11c-6.67-0.232-8.464,2.946-13.309,1.236
		c-5.485-1.935-4.879-6.605-10.691-11.236c-6.228-4.963-9.541-1.688-21.164-6.218c-9.544-3.72-8.56-6.415-17.836-9.782
		c-9.56-3.469-10.934-0.595-20-4c-5.771-2.167-5.239-3.193-20-12c-8.178-4.879-12.362-7.352-17-9c-8.312-2.953-9.228-1.227-17-4
		c-5.279-1.884-9.924-4.948-19-11c-10.89-7.262-10.44-8.737-17-12c-8.243-4.1-10.095-2.626-14.418-6.291
		c-5.827-4.94-3.737-8.698-9.582-16.709c-6.361-8.718-10.828-6.543-16-15c-2.066-3.377-6.035-10.083-5-19
		c0.217-1.874,1.177-9.234,7-15c4.746-4.7,10.562-5.864,22-8c6.329-1.182,10.936-1.514,18-2c11.91-0.819,18.028-1.204,26,0
		c5.761,0.87,11.03,1.715,17,5c6.492,3.573,5.892,5.672,11,8c7.16,3.263,10.884,0.298,23,1c7.374,0.427,12.612,1.91,20,4
		c4.773,1.35,13.23,3.793,23,9c7.468,3.98,7.717,5.319,14,9c13.514,7.918,26.677,10.112,38,12c15.562,2.594,17.06,0.5,26,4
		c6.691,2.62,11.552,6.116,21,13c12.004,8.747,10.979,9.52,20,16c16.71,12.003,21.586,10.328,30,20c1.076,1.237,4.384,6.492,11,17
		c6.473,10.281,8.356,13.734,13,20c8.367,11.289,12.369,13.731,15,15c5.469,2.639,10.575,2.9,13,3c11.072,0.458,13.154-4.477,21-3
		c7.85,1.478,8.366,7.918,15,8c6.43,0.079,7.45-5.674,13.636-5.873C564.88,846.831,572.716,859.351,575,863
		c4.513,7.211,3.067,8.877,7,13c6.992,7.329,18.198,7.07,20,7c7.711-0.299,8.869-4.203,14-3c4.388,1.029,7.3,5.015,12.945,12.945
		c4.617,6.486,6.926,9.729,7.855,13.091c3.037,10.99-4.949,14.891-2.8,24.964c0.734,3.442,6.584,9.259,18,21
		c10.542,10.842,13.069,12.246,16,13c7.205,1.852,9.963-1.999,20-3c10.179-1.015,17.966,1.888,29,6
		c18.611,6.937,17.927,12.185,28,13c5.922,0.479,14.362-3.341,31-11c14.554-6.7,21.831-10.05,29-15c11.384-7.86,10.764-10.406,25-22
		c13.856-11.285,15.621-9.631,30-21c11.197-8.853,19.284-15.247,26.836-26.036c4.212-6.017,7.863-14.666,15.164-31.964
		c10.269-24.33,8.279-23.782,13-31c8.929-13.651,16.115-15.713,17-26c0.559-6.499-2.004-9.214-0.655-18.382
		c0.991-6.735,2.908-8.891,4.655-14.618c2.275-7.46,1.171-15.041,0-30c-1.047-13.369-3.263-23.332-5-31
		c-1.785-7.879-4.214-15.693-9-31c-9.681-30.962-12.411-36.152-14-39c-3.051-5.47-1.871-2.267-15-22
		c-9.819-14.758-11.163-17.578-16-21c-4.84-3.424-11.227-4.949-24-8c-15.679-3.745-19.094-2.718-26-7
		c-4.558-2.826-3.424-3.493-13-12c-2.775-2.465-9.729-8.605-19-15c-11.474-7.914-14.322-7.82-20-14c-3.838-4.177-7.892-8.715-8-15
		c-0.113-6.558,4.129-11.593,7-15c6.477-7.687,11.583-7.474,15-14c2.283-4.359,2.321-8.876,2-12"/>
	<path style="fill:none;stroke:#00FF00;stroke-miterlimit:10;" d="M0,1784.873c0.867,0.847,2.211,1.935,4.073,2.618
		c2.759,1.012,5.166,0.591,6.545,0.436c4.74-0.531,7.162,0.993,12.382,2.073c9.093,1.881,10.881-0.852,21,0
		c6.348,0.534,15.01,1.263,22,7c5.792,4.754,4.139,7.779,12,16c3.961,4.142,7.43,7.771,13,10c9.545,3.82,13.803-1.055,20,3
		c6.515,4.263,3.672,10.865,10,15c5.983,3.909,10.147-0.931,22,1c2.461,0.401,12.368,2.252,21,10c6.765,6.072,9.515,12.863,12,19
		c3.979,9.826,4.6,18.048,5,24c0.913,13.576,1.444,21.471-3,28c-2.934,4.31-6.915,6.378-31,12c-22.308,5.207-33.462,7.811-47,9
		c-11.898,1.045-22.224,1.889-36,0c-12.909-1.77-19.364-2.656-27-7c-9.25-5.263-12.649-11.214-23-14c-5.725-1.541-10.765-1.357-14-1
		"/>
</g>
</svg>
