<svg id="Layer_2" data-name="Layer 2" xmlns="http://www.w3.org/2000/svg" width="2000" height="2000.1247" viewBox="0 0 2000 2000.1247"><defs><style>.cls-1{fill:none;stroke:lime;stroke-miterlimit:10;}</style></defs><path class="cls-1" d="M662,382a61.789,61.789,0,0,0,10,24,55.926,55.926,0,0,0,18,17c5.1475,2.9708,8.1467,3.4956,22,7,30.7665,7.7828,29.12,8.52,36,9,15.5818,1.0875,16.6531-3.2079,30-1,12.4373,2.0574,10.4128,5.6063,27,10,14.8307,3.9284,22.7852,2.77,31,10a31.3457,31.3457,0,0,1,7,9,56.2561,56.2561,0,0,1-21,10c-6.0794,1.4052-8.675.8194-20,3-9.1679,1.7653-9.176,2.4782-14,3-11.6655,1.2618-13.4015-2.7143-22-2-14.7092,1.2219-25.0953,14.1425-29,19a40.94,40.94,0,0,0-8,14c-1.6565,5.28-1.3238,8.4667-1,21,.5559,21.5171-.19,21.2241,1,25a42.0456,42.0456,0,0,0,14,20c7.95,6.0786,12.13,4.2439,27,10,5.6482,2.1864,15.936,6.1688,26,14,10.9792,8.5434,8.9988,11.79,24,26,10.1525,9.6167,12.5,9.4943,17,16,4.7055,6.8033,5.6791,12.0571,9,26,7.3063,30.6754,6.3715,21.1055,12,46,4.358,19.2753,4.4738,23.0459,9,29,7.1891,9.457,17.6366,14.0724,22,16,13.4892,5.9591,19.5084,3.2706,28,10,5.4,4.28,7.9766,9.338,11,16,9.8463,21.6958,14.4191,38.33,18,49,5.6252,16.7616,11.8413,27.861,22,46,11.4662,20.4737,25.1306,40.3841,29,46,15.7511,22.8608,22.5586,29.7126,22,42-.2312,5.0854-1.7568,11.82,1,21,1.9846,6.6086,5.1685,11.0872,8,15a73.7993,73.7993,0,0,0,22,20c8.8359,5.2516,14.6972,6.3105,27,10a455.4322,455.4322,0,0,1,48,18c18.1441,8.0588,27.2161,12.0882,38,20,15.3155,11.2365,17.8226,17.9576,31,22,11.7177,3.5946,23.3466,2.4557,28,2,10.7335-1.0512,12.33-3.3208,25-5,7.39-.9794,25.7712-3.4155,28,2,1.7821,4.33-8.9754,8.3024-13,22a37.5523,37.5523,0,0,0,0,20c3.0549,10.5887,8.9724,11.31,17,24,5.1974,8.2161,7.3822,15.2886,11,27,5.6782,18.3813,3.4846,21.9482,9,29,7.3958,9.4559,18.4553,12.14,22,13a47.804,47.804,0,0,0,28-2c10.9614-4.382,14.3109-10.8935,29-15,5.3513-1.496,8.5653-1.6546,10,0,1.2867,1.484,1.1835,4.4742-3,13-4.6456,9.4676-7.6681,15.6273-15,23-6.245,6.28-9.6124,7.4021-27,18-24.5889,14.9872-20.8151,14.5471-27,17-20.8552,8.2713-30.9893.2769-42,10-2.7049,2.3886-2.4,3.1421-11,22-12.223,26.803-14.0584,27.9562-16,37-1.35,6.2862-3.447,16.5427-1,29,1.997,10.1662,4.9155,11.0818,9,26,2.2193,8.1058,4.1872,15.5012,4,25-.2042,10.3593-2.8693,18.0285-5,24-7.3444,20.5836-15.2982,21.6972-18,37a51.3424,51.3424,0,0,0,2,25c3.1413,9.3156,8.2222,15.1787,15,23,8.9835,10.3666,12.7777,11.3645,21,21a108.6766,108.6766,0,0,1,13,19c6.733,12.7926,14.3116,17.797,20,20,8.7993,3.4078,13.7581.3763,25,5,10.1458,4.1728,9.5642,8.0639,17,10,6.6421,1.7294,10.6206-.46,31-8,24.6744-9.129,29.2406-9.7664,33-10a62.5109,62.5109,0,0,1,26,4,66.7928,66.7928,0,0,1,27,20c3.4661,4.2634,11.6526,14.5886,14,30,2.3516,15.438-2.4119,27.7362-6,37-7.6245,19.6849-14.4443,19.18-19,37a84.3128,84.3128,0,0,0-2,29c.82,9.0271,1.3473,14.8276,5,21,6.6394,11.2195,18.5955,15.2011,27,18,16.21,5.3983,30.1713,3.9861,39,3,21.4374-2.3943,21.72-8.2262,41-10,13.1288-1.2079,12.1895,1.5707,41,3,23.0228,1.1422,26.13-.5078,36,2,15.1711,3.8545,26.1272,12.4008,33,19,5.2921,4.7758,12.4341,12.6506,16,24,2.8771,9.157,1.3077,13.8326,1,34-.0979,6.42.2681,17.6134,1,40,.8633,26.4019,1.4764,29.7716-1,37-3.1256,9.1234-6.5355,10.8572-13,24a140.7012,140.7012,0,0,0-10,27"/><path class="cls-1" d="M1538,1330c1.5743,2.8974-.9291,8.6377-6,20-5.24,11.7416-7.9614,14.8626-9,16-3.7417,4.0977-7.3887,6.2626-12,9-8.6671,5.145-10.3912,3.9986-19,9-8.2958,4.82-7.8357,6.5471-13,8-2.7936.786-10.8644,2.5133-18-2a20.2847,20.2847,0,0,1-6-6c-1.3114-1.9174-5.5588-8.1279-4-14,1.8773-7.0718,11.2383-10.1223,17-12,9.6112-3.1321,11.9152-.4461,17-4,6.5752-4.5955,4.3783-10.2436,11-14,5.5345-3.14,8.8734-.2174,14-4,4.3619-3.2185,3.257-6.3022,7-9C1523.0371,1322.6489,1534.86,1324.2214,1538,1330Z"/></svg>