<svg id="Layer_2" data-name="Layer 2" xmlns="http://www.w3.org/2000/svg" width="1584.424" height="2000" viewBox="0 0 1584.424 2000"><defs><style>.cls-1{fill:none;stroke:lime;stroke-miterlimit:10;}</style></defs><path class="cls-1" d="M5.424,409a44.9535,44.9535,0,0,1,11-20c3.8433-3.9669,8.784-9.0664,14-8,6.8616,1.4028,9.4228,12.5,10,15,1.2783,5.5381.5362,10.1008-1,19-1.9849,11.4982-2.9773,17.2473-6,22-4.4263,6.96-10.4716,10.5405-18,15a84.4729,84.4729,0,0,1-15,7"/><path class="cls-1" d="M136.424,952c-8.1739,6.5761-13.5767,10.9229-17,19-2.0757,4.8975-2.3838,10.265-3,21-.6717,11.7022-.9475,17.6822,2,24a30.4393,30.4393,0,0,0,10,12c2.7017,1.8933,7.3042,5.1189,13,5,6.3625-.1328,10.9949-4.757,20-14,2.9322-3.01,6.9947-8.0474,15-18,9.5029-11.8145,10.7711-13.693,12-17,2.6267-7.0685,2.3041-13.21,2-19-.4756-9.0555-.7832-14.9106-5-20-6.3849-7.706-17.0071-7.9536-19-8C155.3881,936.7428,147.5541,943.0455,136.424,952Z"/><path class="cls-1" d="M.424,1299a50.4926,50.4926,0,0,1,17,7c5.4744,3.578,9.7241,8.434,18,18,7.9791,9.2229,7.1177,9.2846,11,13,8.4218,8.06,13.2779,8.5378,20,14,9.6945,7.8776,13.4852,18.1711,16,25,5.5415,15.0481,3.7641,27.8021,1,46-1.5005,9.8787-6.277,41.3258-18,68-2.1888,4.98-5.2782,11.2925-5,20,.2553,7.9913,3.1023,10.339,4,22,.5866,7.62.895,12.4864-2,17-3.15,4.9113-6.49,3.7871-12,9-5.2985,5.0123-4.2724,8.0018-10,18-6.0277,10.5221-8.3034,9.2-13,18-2.8675,5.3728-2.1614,6.1321-7,22-2.8919,9.4839-5.2785,17.31-9,26a153.7537,153.7537,0,0,1-11,21"/><path class="cls-1" d="M149.424,1806c-5.5,5.462-8.2656,8.2292-9,10-3.1789,7.665-.74,18.7257,6,23,2.94,1.8641,7.6664,1.6015,17,1,11.1456-.7182,12.4255-1.99,20-2,8.4048-.0114,8.5193,1.5518,18,2,5.7825.2734,21.3015,1.007,23-4,1.223-3.6054-6.0465-6.277-9-17a26.6226,26.6226,0,0,1-1-10c.4775-4.7858,2.1284-6.892,7-18,3.4615-7.8926,3.8062-9.5157,3-11-2.1939-4.039-10.7813-3.1291-12-3-2.3075.2445-6.98,1.07-17,8-11.3134,7.8251-12.3422,11.6052-18,12-6.1488.429-7.1778-3.8789-13-3C162.4787,1794.2937,160.3939,1795.1066,149.424,1806Z"/><path class="cls-1" d="M249.424,1764a32.8862,32.8862,0,0,0,19,9,33.9,33.9,0,0,0,21-5c7.12-4.5788,5.6807-7.8293,13-13,9.4112-6.6485,14.8367-3.4265,19-9,4.7547-6.3652,3.4885-18.3459-3-24-4.2909-3.7391-9.8932-3.864-16-4a47.3771,47.3771,0,0,0-14,2,69.811,69.811,0,0,0-17,7"/></svg>