<svg id="Layer_2" data-name="Layer 2" xmlns="http://www.w3.org/2000/svg" width="1584.2996" height="2000.2385" viewBox="0 0 1584.2996 2000.2385"><defs><style>.cls-1{fill:none;stroke:lime;stroke-miterlimit:10;}</style></defs><path class="cls-1" d="M.3,1877a58.5581,58.5581,0,0,1,16-7,60.6944,60.6944,0,0,1,15-2c7.1606-.0743,16.6074-.1724,25,5,5.8234,3.589,4.3667,5.5416,15,17a166.2349,166.2349,0,0,0,16,15,135.7433,135.7433,0,0,0,19,14c7.2606,4.3115,12.8743,6.4973,22,10a232.4911,232.4911,0,0,0,32,10c15.1473,3.528,15.9575,2.0536,34,6,17.0833,3.7366,25.7779,7.1191,28,8,16.0519,6.3638,22.3078,12.2128,25,15,3.6986,3.8292,7.7282,8.1146,9,15a26.19,26.19,0,0,1-3,17"/><path class="cls-1" d="M187.3,1807a25.1674,25.1674,0,0,0-5,10,27.1028,27.1028,0,0,0,1,15c1.3523,4.3966,2.791,9.0742,7,12,3.1618,2.198,4.3444.9448,12,3a77.4643,77.4643,0,0,1,15,6c3.638,1.7926,6.6647,3.5472,9,5"/><path class="cls-1" d="M.3,1155c3.313-2.4793,8.095-5.9744,14-10,8.0438-5.4837,10.5853-6.78,16-11,6.7365-5.25,10.1048-7.8753,13-12,4.4376-6.3222,3.7714-9.7266,8-19a78.1487,78.1487,0,0,1,9-15"/><path class="cls-1" d="M116.3,401a45.6281,45.6281,0,0,1-7,20c-4.7015,7.1378-8.1718,7.5085-17,18-2.2483,2.6719-1.1283,1.5843-11,15-9.7377,13.2336-10.3911,13.6987-12,17-3.3574,6.889-1.7361,7.3746-6,19-4.1927,11.4312-6.1631,12.06-6,17,.3077,9.324,7.6148,15.8176,9,17a27.5252,27.5252,0,0,0,13,6c7.8105,1.518,10.1965-1.1434,24-3a130.1632,130.1632,0,0,1,23-1c6.8484.2553,11.666.4349,18,2a64.8289,64.8289,0,0,1,22,10,60.7394,60.7394,0,0,1,17,19"/><path class="cls-1" d="M187.3,628a92.2442,92.2442,0,0,1-9,23,83.2945,83.2945,0,0,1-15,20c-5.7551,5.5889-7.2264,5.2634-14,12-7.9526,7.9091-7.2491,9.6749-12,13-6.7029,4.6912-10.9388,3.1608-22,6-10.9289,2.8052-9.4293,4.9758-25,11-12.2958,4.7571-20.7469,8.0269-32,8-8.0793-.0193-6.8341-1.7121-23-3a117.983,117.983,0,0,0-23,0,104.3839,104.3839,0,0,0-12,2"/><path class="cls-1" d="M314.3,1806c-8.23-4.7452-17.41-4.7141-23,0-2.9974,2.5276-6.3249,7.55-5,12,.3382,1.1361,1.611,4.3547,15,9a117.1514,117.1514,0,0,0,20,5"/><path class="cls-1" d="M29.3,349a159.152,159.152,0,0,1,27-10c11.6117-3.1248,15.7766-2.787,19-2,9.0238,2.2034,14.4,8.8389,16,11,7.99,10.793,6.9318,25.0083,7,25,.0217-.0026-.1167-1.4123-1-9"/></svg>