<svg id="Layer_2" data-name="Layer 2" xmlns="http://www.w3.org/2000/svg" width="1584" height="960.0963" viewBox="0 0 1584 960.0963"><defs><style>.cls-1{fill:none;stroke:lime;stroke-miterlimit:10;}</style></defs><path class="cls-1" d="M792.2909.0963c1.1652,5.9364,1.1878,12.4589-1.9636,18.1818-3.7461,6.8028-8.6579,6.448-11.1273,13.0909-2.7845,7.49,2.2457,11.21-1.3091,18.3273-2.16,4.3254-4.5539,4.0237-7.2,9.1636-2.2539,4.3782-1.6329,6.7644-2.6181,12.4364-2.1426,12.3347-7.0785,12.5606-9.1637,24.8-1.309,7.6837.5469,8.12-1.3091,13.1636-2.8942,7.8655-8.0755,8.623-13.0909,15.7091-5.1,7.2063-1.4628,8.8545-6.5455,23.5636-5.5268,15.9946-10.8432,16.9841-11.1272,27.4909-.0846,3.1291.2732,7.2471-1.3091,13.091a61.9894,61.9894,0,0,1-3.9273,9.8182c-1.9041,4.17-3.733,8.176-6.5454,13.0908-6.7081,11.7225-8.4345,10.1333-10.4728,16.3637-1.9545,5.9747-1.0383,9.4882-4.5818,13.0909-2.5607,2.6037-4.0225,1.7684-6.5455,3.9273-1.7507,1.498-4.6632,4.9946-4.5818,21.6.06,12.2352,1.6544,13.023.6546,18.9818-1.1541,6.878-4.01,10.1911-8.5091,17.6728-9.3791,15.5974-6.1972,16.55-17.0182,36.6545-8.77,16.2936-10.092,14.2419-13.0909,22.9091-4.7762,13.804-.9412,17.6193-5.8909,31.4181-3.9155,10.9158-6.69,9.5719-13.091,23.5637-3.4016,7.4352-3.0133,8.6783-9.8181,30.7636-4.5285,14.6974-6.7928,22.0461-9.8182,30.1091-6.7479,17.9839-8.7874,18.4936-11.7818,30.1091-2.824,10.9548-1.1621,11.0914-4.5818,24.8727-3.59,14.4679-5.3831,14.1613-7.2,24.8728-2.1312,12.5644-.1145,15.6407-3.9273,21.6-3.8945,6.0869-7.6236,5.4175-12.4364,12.4363-2.4249,3.5366-3.58,7.8123-5.8909,16.3637-2.8877,10.6872-4.7136,17.4443-5.2363,26.8363-.3455,6.2064.2037,7.7127-1.3091,10.4728-2.64,4.8163-7.0312,5.19-15.0546,10.4727-1.7454,1.1492-4.8727,3.8207-11.1272,9.1636-8.923,7.6224-13.4441,11.5191-16.3637,15.7091a46.08,46.08,0,0,0-5.8909,11.7818"/><path class="cls-1" d="M865.6,192.3872a42.442,42.442,0,0,0-22.9091.6545c-13.884,4.5728-21.2973,16.0457-30.1091,30.1092-7.9838,12.7422-11.8124,23.2954-15.7091,34.0363-6.041,16.6516-10.6693,29.4092-11.7818,46.4728-.5671,8.6976.0614,14.1856-2.6182,23.5636-1.8386,6.4345-3.8318,9.7909-5.8909,18.9818-1.3554,6.05-2.1655,9.6662-1.9636,14.4a39.9511,39.9511,0,0,0,6.5454,19.6363c5.56,8.8826,12.87,13.1217,27.4909,21.6,10.0375,5.8206,15.161,8.7265,20.2909,8.509,4.46-.189,10.5573-1.9292,22.9092-14.4a156.4474,156.4474,0,0,0,23.5636-30.7637c8.96-15.0678,17.5245-29.47,23.5636-51.0545,6.1066-21.8257,9.16-32.7385,5.8909-44.5091-2.104-7.5761-6.2451-14.8023-3.9273-24.8728,1.4236-6.1853,4.1381-8.4655,3.9273-15.0545-.0683-2.1364-.4337-9.783-6.5454-15.7091a22.0549,22.0549,0,0,0-12.4364-5.8909"/><path class="cls-1" d="M1023.3455,85.6963c-16.9143-6.9884-34.4323-7.0882-43.8546,1.9637-6.9921,6.7171-8.5594,17.5453-10.4727,30.7636a87.3493,87.3493,0,0,0-.6546,20.2909c.7627,8.3856,1.443,15.8663,5.8909,23.5636,8.0788,13.9805,22.7421,18.5617,26.1818,19.6364,12.7646,3.988,23.43,1.5357,30.1092,0a70.7552,70.7552,0,0,0,31.4181-17.0182c5.9215-5.6235,7.8336-9.5944,8.5091-11.1273,3.12-7.08,2.5225-13.5694,1.9636-19.6363a54.0216,54.0216,0,0,0-5.2363-18.9818c-2.1015-4.1848-4.5026-8.9663-9.8182-13.091a30.8966,30.8966,0,0,0-13.7454-5.9636"/><path class="cls-1" d="M649.6,719.9508a50.7852,50.7852,0,0,1,2.6182-18.9818c2.14-6.2623,4.3892-12.8444,10.4727-17.0182,5.4733-3.755,7.9238-1.3575,15.0546-5.8909,3.9737-2.5263,3.5668-3.4959,10.4727-9.1636,5.6881-4.6682,8.532-7.0023,11.7818-7.8546,6.7676-1.7747,13.0056,1.5065,16.3636,3.2728,6.0012,3.1566,9.9734,8.2564,17.6728,18.3273,8.35,10.9219,11.5222,17.145,12.4363,18.9818,4.2122,8.4639,6.3292,12.874,5.2364,18.3272-1.5544,7.7565-8.5246,12.2439-11.1273,13.7455"/><path class="cls-1" d="M883.9272,522.9327a85.8746,85.8746,0,0,0-30.109,10.4727c-7.43,4.2875-17.1,9.8674-24.2182,21.6-3.4187,5.6346-9.52,15.6908-7.8545,26.8364.437,2.9245,1.272,5.0083.6545,8.509-1.2208,6.9222-6.2755,8.9257-9.1636,14.4-2.798,5.3036-1.6472,10.7358.6545,21.6,2.8388,13.3993,7.9684,22.7591,12.4364,30.7637,6.0832,10.8985,9.1248,16.3477,14.4,19.6363,10.7056,6.6741,23.4392,4.1906,28.1454,3.2728,13.8433-2.7,14.6191-9.0043,28.1455-10.4728,10.2889-1.1169,12.6039,2.2307,18.9818-.6545,9.2242-4.1728,12.6779-14.9281,14.4-20.2909,1.858-5.786,4.8031-14.9573.6546-22.9091-2.3171-4.4412-4.8106-4.5991-9.8182-12.4364A38.5862,38.5862,0,0,1,916,602.7872c-.9091-3.0562-3.0334-10.198,0-17.0182,1.5381-3.4583,2.5985-2.778,5.8909-7.8545,1.8626-2.8719,5.1115-7.8812,5.8909-14.4.6648-5.56-.7676-9.7024-2.6182-15.0546-2.3906-6.9139-4.362-12.6152-9.8181-16.3636-2.9158-2.0031-6.0893-2.8627-12.4364-4.5818a87.5226,87.5226,0,0,0-9.1636-1.9636"/></svg>