<svg id="Layer_2" data-name="Layer 2" xmlns="http://www.w3.org/2000/svg" width="2000.4485" height="2000.4154" viewBox="0 0 2000.4485 2000.4154"><defs><style>.cls-1{fill:none;stroke:lime;stroke-miterlimit:10;}</style></defs><path class="cls-1" d="M1894,2000.2377a142.3487,142.3487,0,0,1,13-26,194.7774,194.7774,0,0,1,15-20c7.7922-9.4663,10.0449-10.9863,17-20,5.7374-7.4357,8.6061-11.1536,11-16,3.9139-7.9239,5.0292-14.4564,7-26,1.6248-9.5169,2.4371-14.2753,2-21-.3357-5.1632-1.04-6.0494-4-20-2.3093-10.8828-3.4641-16.3243-4-21-1.3871-12.1012.4263-12.9183-1-26-1.2023-11.0277-2.5966-11.4173-2-17,.7129-6.67,2.8629-7.6066,8-20,2.4994-6.03,4.3329-12.02,8-24,3.3409-10.9148,3.8259-13.7876,4-17,.3973-7.3321-1.2576-8.4472,0-13,1.5494-5.6093,4.686-6.1773,12-15,3.3085-3.991,5.8723-7.994,11-16,3.6533-5.7041,6.6477-10.8055,9-15"/><path class="cls-1" d="M2000,1295.2377a224.816,224.816,0,0,0-15-26c-6.7076-9.9935-9.5127-12.3793-14-21-2.4984-4.8-4.6655-10.8665-9-23-4.6115-12.9091-6.9388-19.4763-8-25-1.527-7.9485-1.2982-12.9837-1-26,.6843-29.8672,1.0265-44.8008,0-57-1.0923-12.9816-2.17-13.2736-3-27a234.29,234.29,0,0,1,0-33c.8414-11.3475,1.8462-12.56,3-28,.6752-9.0358.887-16.0829,1-20,.324-11.2294.1932-20.4225,0-27-.3684-12.538-.5815-18.9508-2-26-1.6428-8.1643-2.7922-13.8761-7-20-2.6721-3.889-7.1147-7.2594-16-14-8.4351-6.3992-12.6526-9.5988-18-12-9.6664-4.3407-11.3036-1.7574-19-5-4.046-1.7047-7.3765-4.0125-26-27-12.5713-15.5171-13.4038-17.3663-14-20-1.7577-7.7648.8624-12.0861-1-25a95.0568,95.0568,0,0,0-3-13,379.4563,379.4563,0,0,1-9-46,202.06,202.06,0,0,1-2-31c.418-22.9023,4.7233-22.9023,3-35-2.0115-14.1209-7.66-12.5979-18-41a227.1366,227.1366,0,0,1-7-23c-2.7627-10.7813-4.144-16.1719-4-21,.2452-8.2186,2.9989-11.5849,11-29,8.7153-18.97,6.1876-16.5852,12-28,5.2734-10.3563,8.132-13.8469,17-31,4.6661-9.0256,6.2794-12.7106,7-18,.7728-5.6732.1643-10.5909-1-20-1.3143-10.6213-2.39-11.8186-2-17,.3575-4.7516,1.4952-6.8449,5-16,0,0,5.0488-13.189,10-29,2.9895-9.547,4.38-15.32,5-18,1.8938-8.1858,2.8407-12.2787,3-17,.34-10.0606-2.2339-17.8256-4-23-2.1818-6.392-4.1093-12.0393-9-18-6.9036-8.4141-15.25-12.0148-20-14-2.7408-1.1454-4.4637-1.6281-21-5-21.1691-4.3167-22.575-4.3881-27-6-4.6626-1.6985-4.3347-2.0683-21-11-18.2725-9.7931-19.6375-9.8689-26-14a132.8021,132.8021,0,0,1-21-17c-8.1566-7.9309-9.8759-11.465-30-39-14.1392-19.3462-14.455-19.195-18-25-7.1321-11.6788-11.4633-21.4761-17-34-5.8892-13.3212-8.8337-19.9817-11-28-1.813-6.7106-2.9-15.8983-5-34-1.828-15.7566-2.7419-23.6349-3-31-.3762-10.7373.307-11.5484,0-30-.22-13.2455-.59-13.8981,0-18,1.0029-6.97,3.0752-12.065,10-26,3.7087-7.4634,8.3843-16.6068,14-27"/></svg>